<?xml version="1.0" encoding="UTF-8" standalone="no"?>
<!-- Created with Inkscape (http://www.inkscape.org/) -->

<svg
   xmlns:dc="http://purl.org/dc/elements/1.1/"
   xmlns:cc="http://creativecommons.org/ns#"
   xmlns:rdf="http://www.w3.org/1999/02/22-rdf-syntax-ns#"
   xmlns:svg="http://www.w3.org/2000/svg"
   xmlns="http://www.w3.org/2000/svg"
   xmlns:xlink="http://www.w3.org/1999/xlink"
   xmlns:sodipodi="http://sodipodi.sourceforge.net/DTD/sodipodi-0.dtd"
   xmlns:inkscape="http://www.inkscape.org/namespaces/inkscape"
   inkscape:export-ydpi="7.1999998"
   inkscape:export-xdpi="7.1999998"
   inkscape:export-filename="C:\Dokumente und Einstellungen\wga\Desktop\Hotfolder.png"
   sodipodi:docname="Hotfolder.svg"
   width="800"
   height="800"
   id="svg2"
   version="1.1"
   inkscape:version="0.47 r22583">
  <defs
     id="defs4">
    <linearGradient
       id="linearGradient4261">
      <stop
         style="stop-color:#ffffff;stop-opacity:1;"
         offset="0"
         id="stop4263" />
      <stop
         style="stop-color:#ffffff;stop-opacity:0;"
         offset="1"
         id="stop4265" />
    </linearGradient>
    <linearGradient
       inkscape:collect="always"
       id="linearGradient4610">
      <stop
         style="stop-color:#ff0000;stop-opacity:1;"
         offset="0"
         id="stop4612" />
      <stop
         style="stop-color:#ff0000;stop-opacity:0;"
         offset="1"
         id="stop4614" />
    </linearGradient>
    <linearGradient
       id="linearGradient4564">
      <stop
         style="stop-color:#000000;stop-opacity:1;"
         offset="0"
         id="stop4566" />
      <stop
         style="stop-color:#000000;stop-opacity:0;"
         offset="1"
         id="stop4568" />
    </linearGradient>
    <linearGradient
       id="linearGradient4483">
      <stop
         id="stop4485"
         offset="0"
         style="stop-color:#ffffff;stop-opacity:1;" />
      <stop
         id="stop4487"
         offset="1"
         style="stop-color:#ffffff;stop-opacity:1" />
    </linearGradient>
    <linearGradient
       id="linearGradient4419">
      <stop
         id="stop4421"
         offset="0"
         style="stop-color:#f3ff1f;stop-opacity:1;" />
      <stop
         id="stop4423"
         offset="1"
         style="stop-color:#94a151;stop-opacity:0" />
    </linearGradient>
    <linearGradient
       id="linearGradient4306">
      <stop
         style="stop-color:#ff4b1b;stop-opacity:1;"
         offset="0"
         id="stop4308" />
      <stop
         id="stop3737"
         offset="0.84285712"
         style="stop-color:#ff250d;stop-opacity:0.54117647;" />
      <stop
         style="stop-color:#ff0000;stop-opacity:0.0877193;"
         offset="1"
         id="stop4310" />
    </linearGradient>
    <linearGradient
       id="linearGradient4268">
      <stop
         id="stop4270"
         offset="0"
         style="stop-color:#f3ff1f;stop-opacity:1;" />
      <stop
         id="stop4272"
         offset="1"
         style="stop-color:#dc3e2b;stop-opacity:1;" />
    </linearGradient>
    <linearGradient
       id="linearGradient4260">
      <stop
         id="stop4262"
         offset="0"
         style="stop-color:#ffffff;stop-opacity:1;" />
      <stop
         style="stop-color:#fff5e4;stop-opacity:0.39473686;"
         offset="0.5"
         id="stop4264" />
      <stop
         id="stop4266"
         offset="1"
         style="stop-color:#ffd2b7;stop-opacity:0;" />
    </linearGradient>
    <linearGradient
       id="linearGradient3852">
      <stop
         id="stop3854"
         offset="0"
         style="stop-color:#daddf7;stop-opacity:1;" />
      <stop
         style="stop-color:#fbdfd2;stop-opacity:0.51754385;"
         offset="0.37508923"
         id="stop3856" />
      <stop
         id="stop3858"
         offset="1"
         style="stop-color:#ffff5e;stop-opacity:0.12280702;" />
    </linearGradient>
    <linearGradient
       id="linearGradient3794">
      <stop
         style="stop-color:#daddf7;stop-opacity:1;"
         offset="0"
         id="stop3796" />
      <stop
         id="stop3802"
         offset="0.5"
         style="stop-color:#f8cbb6;stop-opacity:0.78039217;" />
      <stop
         style="stop-color:#ffff0d;stop-opacity:0.12280702;"
         offset="1"
         id="stop3798" />
    </linearGradient>
    <linearGradient
       id="linearGradient3764">
      <stop
         style="stop-color:#ffffff;stop-opacity:1;"
         offset="0"
         id="stop3766" />
      <stop
         style="stop-color:#ffffff;stop-opacity:0.89473683;"
         offset="1"
         id="stop3768" />
    </linearGradient>
    <linearGradient
       id="linearGradient3725">
      <stop
         style="stop-color:#ffffff;stop-opacity:0"
         offset="0"
         id="stop3727" />
      <stop
         style="stop-color:#dadaff;stop-opacity:1;"
         offset="1"
         id="stop3729" />
    </linearGradient>
    <linearGradient
       id="linearGradient3698">
      <stop
         style="stop-color:#909800;stop-opacity:1;"
         offset="0"
         id="stop3700" />
      <stop
         style="stop-color:#ffff51;stop-opacity:1;"
         offset="1"
         id="stop3702" />
    </linearGradient>
    <inkscape:perspective
       sodipodi:type="inkscape:persp3d"
       inkscape:vp_x="0 : 526.18109 : 1"
       inkscape:vp_y="0 : 1000 : 0"
       inkscape:vp_z="744.09448 : 526.18109 : 1"
       inkscape:persp3d-origin="372.04724 : 350.78739 : 1"
       id="perspective10" />
    <inkscape:perspective
       id="perspective2827"
       inkscape:persp3d-origin="0.5 : 0.33333333 : 1"
       inkscape:vp_z="1 : 0.5 : 1"
       inkscape:vp_y="0 : 1000 : 0"
       inkscape:vp_x="0 : 0.5 : 1"
       sodipodi:type="inkscape:persp3d" />
    <linearGradient
       inkscape:collect="always"
       xlink:href="#linearGradient4268"
       id="linearGradient3706"
       x1="255.72769"
       y1="285.92188"
       x2="353.56696"
       y2="-69.078125"
       gradientUnits="userSpaceOnUse"
       gradientTransform="matrix(1.0751141,-0.16438518,0.40531729,1.2408126,-176.00629,297.97422)" />
    <linearGradient
       inkscape:collect="always"
       xlink:href="#linearGradient3725"
       id="linearGradient3731"
       x1="321.6424"
       y1="49.381351"
       x2="276.0625"
       y2="29"
       gradientUnits="userSpaceOnUse"
       gradientTransform="matrix(1.0751141,-0.16438516,0.42681238,1.3066162,-177.97661,294.41074)" />
    <inkscape:perspective
       id="perspective3745"
       inkscape:persp3d-origin="0.5 : 0.33333333 : 1"
       inkscape:vp_z="1 : 0.5 : 1"
       inkscape:vp_y="0 : 1000 : 0"
       inkscape:vp_x="0 : 0.5 : 1"
       sodipodi:type="inkscape:persp3d" />
    <radialGradient
       inkscape:collect="always"
       xlink:href="#linearGradient3764"
       id="radialGradient3770"
       cx="336.40488"
       cy="230.03316"
       fx="336.40488"
       fy="230.03316"
       r="32.285713"
       gradientTransform="matrix(1,0,0,1.6637168,0,-142.13356)"
       gradientUnits="userSpaceOnUse" />
    <filter
       inkscape:collect="always"
       id="filter3840"
       color-interpolation-filters="sRGB">
      <feGaussianBlur
         inkscape:collect="always"
         stdDeviation="4.5360841"
         id="feGaussianBlur3842" />
    </filter>
    <filter
       inkscape:collect="always"
       id="filter3844"
       color-interpolation-filters="sRGB">
      <feGaussianBlur
         inkscape:collect="always"
         stdDeviation="4.432826"
         id="feGaussianBlur3846" />
    </filter>
    <filter
       inkscape:collect="always"
       id="filter3848"
       color-interpolation-filters="sRGB">
      <feGaussianBlur
         inkscape:collect="always"
         stdDeviation="4.2325392"
         id="feGaussianBlur3850" />
    </filter>
    <inkscape:perspective
       id="perspective3879"
       inkscape:persp3d-origin="0.5 : 0.33333333 : 1"
       inkscape:vp_z="1 : 0.5 : 1"
       inkscape:vp_y="0 : 1000 : 0"
       inkscape:vp_x="0 : 0.5 : 1"
       sodipodi:type="inkscape:persp3d" />
    <linearGradient
       inkscape:collect="always"
       xlink:href="#linearGradient3698-0"
       id="linearGradient3704-4"
       x1="498.31738"
       y1="125.20982"
       x2="459.53976"
       y2="313.78125"
       gradientUnits="userSpaceOnUse" />
    <linearGradient
       id="linearGradient3698-0">
      <stop
         style="stop-color:#ffffff;stop-opacity:1;"
         offset="0"
         id="stop3700-9" />
      <stop
         style="stop-color:#ffffff;stop-opacity:0;"
         offset="1"
         id="stop3702-4" />
    </linearGradient>
    <radialGradient
       inkscape:collect="always"
       xlink:href="#linearGradient3698-0"
       id="radialGradient3950"
       cx="587.04132"
       cy="114.38779"
       fx="587.04132"
       fy="114.38779"
       r="210.44698"
       gradientTransform="matrix(0.85021292,-0.11824924,-0.09760234,0.2841227,85.063382,405.52918)"
       gradientUnits="userSpaceOnUse" />
    <inkscape:perspective
       id="perspective4078"
       inkscape:persp3d-origin="0.5 : 0.33333333 : 1"
       inkscape:vp_z="1 : 0.5 : 1"
       inkscape:vp_y="0 : 1000 : 0"
       inkscape:vp_x="0 : 0.5 : 1"
       sodipodi:type="inkscape:persp3d" />
    <linearGradient
       id="linearGradient3852-2">
      <stop
         id="stop3854-4"
         offset="0"
         style="stop-color:#daddf7;stop-opacity:1;" />
      <stop
         style="stop-color:#f8cbb6;stop-opacity:0.78039217;"
         offset="0.37508923"
         id="stop3856-5" />
      <stop
         id="stop3858-5"
         offset="1"
         style="stop-color:#ffff0d;stop-opacity:0.40350878;" />
    </linearGradient>
    <linearGradient
       id="linearGradient3794-1">
      <stop
         style="stop-color:#daddf7;stop-opacity:1;"
         offset="0"
         id="stop3796-5" />
      <stop
         id="stop3802-2"
         offset="0.5"
         style="stop-color:#f8cbb6;stop-opacity:0.78039217;" />
      <stop
         style="stop-color:#ffff0d;stop-opacity:0.21138211"
         offset="1"
         id="stop3798-7" />
    </linearGradient>
    <linearGradient
       id="linearGradient4097">
      <stop
         id="stop4099"
         offset="0"
         style="stop-color:#daddf7;stop-opacity:1;" />
      <stop
         style="stop-color:#f8cbb6;stop-opacity:0.78039217;"
         offset="0.37508923"
         id="stop4101" />
      <stop
         id="stop4103"
         offset="1"
         style="stop-color:#ffff0d;stop-opacity:0.40350878;" />
    </linearGradient>
    <radialGradient
       inkscape:collect="always"
       xlink:href="#linearGradient3794-1"
       id="radialGradient3800-2"
       cx="134.35028"
       cy="-322.22815"
       fx="134.35028"
       fy="-322.22815"
       r="180.81731"
       gradientTransform="matrix(0.46243802,0.1320238,-0.38901956,1.3626137,298.40164,481.72747)"
       gradientUnits="userSpaceOnUse" />
    <linearGradient
       id="linearGradient4110">
      <stop
         style="stop-color:#daddf7;stop-opacity:1;"
         offset="0"
         id="stop4112" />
      <stop
         id="stop4114"
         offset="0.5"
         style="stop-color:#f8cbb6;stop-opacity:0.78039217;" />
      <stop
         style="stop-color:#ffff0d;stop-opacity:0.21138211"
         offset="1"
         id="stop4116" />
    </linearGradient>
    <radialGradient
       inkscape:collect="always"
       xlink:href="#linearGradient3794"
       id="radialGradient4293"
       gradientUnits="userSpaceOnUse"
       gradientTransform="matrix(0.46243802,0.1320238,-0.38901956,1.3626137,284.2595,481.72747)"
       cx="134.35028"
       cy="-322.22815"
       fx="134.35028"
       fy="-322.22815"
       r="180.81731" />
    <radialGradient
       inkscape:collect="always"
       xlink:href="#linearGradient4306"
       id="radialGradient4331"
       gradientUnits="userSpaceOnUse"
       gradientTransform="matrix(1.9531301,0.07577318,-0.2295538,1.6595823,-380.17224,-89.54359)"
       cx="418.55783"
       cy="92.109787"
       fx="418.55783"
       fy="92.109787"
       r="153.14731" />
    <radialGradient
       inkscape:collect="always"
       xlink:href="#linearGradient4419"
       id="radialGradient4411"
       cx="298.94974"
       cy="675.46466"
       fx="298.94974"
       fy="675.46466"
       r="231.02071"
       gradientTransform="matrix(1.0472234,0.06596438,-0.29276633,1.5532262,156.20315,-554.97639)"
       gradientUnits="userSpaceOnUse" />
    <radialGradient
       inkscape:collect="always"
       xlink:href="#linearGradient4306"
       id="radialGradient4479"
       gradientUnits="userSpaceOnUse"
       gradientTransform="matrix(-1.0373689,0.43138769,1.4686796,1.4793256,537.11886,-98.79491)"
       cx="466.60516"
       cy="165.45937"
       fx="466.60516"
       fy="165.45937"
       r="153.14731" />
    <radialGradient
       inkscape:collect="always"
       xlink:href="#linearGradient4564"
       id="radialGradient4574"
       gradientUnits="userSpaceOnUse"
       gradientTransform="matrix(1,0,0,0.85786802,0,35.51909)"
       cx="-984.89874"
       cy="249.90216"
       fx="-984.89874"
       fy="249.90216"
       r="199.00005" />
    <filter
       inkscape:collect="always"
       id="filter4576"
       color-interpolation-filters="sRGB">
      <feGaussianBlur
         inkscape:collect="always"
         stdDeviation="1.3854205"
         id="feGaussianBlur4578" />
    </filter>
    <filter
       inkscape:collect="always"
       id="filter4588"
       color-interpolation-filters="sRGB">
      <feGaussianBlur
         inkscape:collect="always"
         stdDeviation="8.3553205"
         id="feGaussianBlur4590" />
    </filter>
    <radialGradient
       inkscape:collect="always"
       xlink:href="#linearGradient4610"
       id="radialGradient4616"
       cx="-187.88837"
       cy="522.20807"
       fx="-187.88837"
       fy="522.20807"
       r="111.11678"
       gradientTransform="matrix(1,0,0,0.73636362,0,137.67304)"
       gradientUnits="userSpaceOnUse" />
    <radialGradient
       inkscape:collect="always"
       xlink:href="#linearGradient3698"
       id="radialGradient3710"
       cx="432.84073"
       cy="450.0069"
       fx="432.84073"
       fy="450.0069"
       r="278.33255"
       gradientTransform="matrix(1.6594188,-1.0314731,0.2860954,0.46026614,-455.41252,718.41013)"
       gradientUnits="userSpaceOnUse" />
    <inkscape:perspective
       sodipodi:type="inkscape:persp3d"
       inkscape:vp_x="0 : 495 : 1"
       inkscape:vp_y="0 : 1000 : 0"
       inkscape:vp_z="765 : 495 : 1"
       inkscape:persp3d-origin="382.5 : 330 : 1"
       id="perspective3324" />
    <inkscape:perspective
       sodipodi:type="inkscape:persp3d"
       inkscape:vp_x="0 : 526.18109 : 1"
       inkscape:vp_y="0 : 1000 : 0"
       inkscape:vp_z="744.09448 : 526.18109 : 1"
       inkscape:persp3d-origin="372.04724 : 350.78739 : 1"
       id="perspective3188" />
    <inkscape:perspective
       sodipodi:type="inkscape:persp3d"
       inkscape:vp_x="0 : 526.18109 : 1"
       inkscape:vp_y="0 : 1000 : 0"
       inkscape:vp_z="744.09448 : 526.18109 : 1"
       inkscape:persp3d-origin="372.04724 : 350.78739 : 1"
       id="perspective2390" />
    <inkscape:perspective
       id="perspective10-4"
       inkscape:persp3d-origin="372.04724 : 350.78739 : 1"
       inkscape:vp_z="744.09448 : 526.18109 : 1"
       inkscape:vp_y="0 : 1000 : 0"
       inkscape:vp_x="0 : 526.18109 : 1"
       sodipodi:type="inkscape:persp3d" />
    <linearGradient
       id="linearGradient3164">
      <stop
         id="stop3166"
         offset="0"
         style="stop-color:#ffffff;stop-opacity:1;" />
      <stop
         style="stop-color:#0af27e;stop-opacity:1;"
         offset="0.7562812"
         id="stop3172" />
      <stop
         id="stop3168"
         offset="1"
         style="stop-color:#0af27e;stop-opacity:1;" />
    </linearGradient>
    <linearGradient
       id="linearGradient3174">
      <stop
         id="stop3176"
         offset="0"
         style="stop-color:#ffe2c0;stop-opacity:1;" />
      <stop
         style="stop-color:#000000;stop-opacity:1;"
         offset="0.84038174"
         id="stop3182" />
      <stop
         id="stop3178"
         offset="1"
         style="stop-color:#000000;stop-opacity:1;" />
    </linearGradient>
    <filter
       inkscape:collect="always"
       id="filter4224">
      <feGaussianBlur
         inkscape:collect="always"
         stdDeviation="1.999632"
         id="feGaussianBlur4226" />
    </filter>
    <radialGradient
       inkscape:collect="always"
       xlink:href="#linearGradient4610"
       id="radialGradient4233"
       gradientUnits="userSpaceOnUse"
       gradientTransform="matrix(2.1025538,-0.10455245,0.15488183,0.87570451,143.51465,42.324917)"
       cx="-204.21214"
       cy="537.54218"
       fx="-204.21214"
       fy="537.54218"
       r="111.11678" />
    <filter
       inkscape:collect="always"
       id="filter4255">
      <feGaussianBlur
         inkscape:collect="always"
         stdDeviation="3.4135238"
         id="feGaussianBlur4257" />
    </filter>
    <radialGradient
       inkscape:collect="always"
       xlink:href="#linearGradient4261"
       id="radialGradient4267"
       cx="-448.50772"
       cy="1464.6804"
       fx="-448.50772"
       fy="1464.6804"
       r="77.271591"
       gradientTransform="matrix(1,0,0,0.81698149,0,268.06363)"
       gradientUnits="userSpaceOnUse" />
    <radialGradient
       inkscape:collect="always"
       xlink:href="#linearGradient4261"
       id="radialGradient3746"
       gradientUnits="userSpaceOnUse"
       gradientTransform="matrix(1,0,0,0.81698149,0,268.06363)"
       cx="-438.5365"
       cy="1445.8127"
       fx="-438.5365"
       fy="1445.8127"
       r="77.271591" />
    <radialGradient
       inkscape:collect="always"
       xlink:href="#linearGradient4260"
       id="radialGradient3748"
       gradientUnits="userSpaceOnUse"
       gradientTransform="matrix(0.74435181,0.53298149,-0.86592308,2.5632681,92.712563,814.74332)"
       cx="134.35028"
       cy="-322.22815"
       fx="134.35028"
       fy="-322.22815"
       r="180.81731" />
    <radialGradient
       inkscape:collect="always"
       xlink:href="#linearGradient3852"
       id="radialGradient3750"
       gradientUnits="userSpaceOnUse"
       gradientTransform="matrix(0.35583165,0.30323654,-0.80635121,0.43836237,108.6921,154.77778)"
       cx="150.53398"
       cy="-343.84311"
       fx="150.53398"
       fy="-343.84311"
       r="180.81731" />
    <radialGradient
       inkscape:collect="always"
       xlink:href="#linearGradient3794"
       id="radialGradient3752"
       gradientUnits="userSpaceOnUse"
       gradientTransform="matrix(0.62795561,-0.10032672,0.12005438,1.9632728,302.04515,716.64137)"
       cx="177.65125"
       cy="-324.86987"
       fx="177.65125"
       fy="-324.86987"
       r="180.81731" />
  </defs>
  <sodipodi:namedview
     id="base"
     pagecolor="#ffffff"
     bordercolor="#666666"
     borderopacity="1.0"
     inkscape:pageopacity="0"
     inkscape:pageshadow="2"
     inkscape:zoom="0.7"
     inkscape:cx="692.84923"
     inkscape:cy="449.87699"
     inkscape:document-units="px"
     inkscape:current-layer="layer3"
     showgrid="false"
     inkscape:window-width="1920"
     inkscape:window-height="1134"
     inkscape:window-x="-4"
     inkscape:window-y="-4"
     inkscape:window-maximized="1"
     inkscape:snap-nodes="false" />
  <metadata
     id="metadata7">
    <rdf:RDF>
      <cc:Work
         rdf:about="">
        <dc:format>image/svg+xml</dc:format>
        <dc:type
           rdf:resource="http://purl.org/dc/dcmitype/StillImage" />
        <dc:title />
      </cc:Work>
    </rdf:RDF>
  </metadata>
  <g
     inkscape:groupmode="layer"
     id="layer4"
     inkscape:label="Background"
     style="display:inline"
     transform="translate(80.552545,95.883605)">
    <path
       style="opacity:0.2;fill:#000000;fill-opacity:1;stroke:none;display:inline;filter:url(#filter4588)"
       d="m 288.62788,245.03281 c -52.60845,1.79629 -105.48724,-2.58647 -157.92019,2.55782 -23.70856,7.76345 -36.265633,35.11963 -31.667123,58.84841 0.58823,78.41116 -1.50357,156.87961 1.337313,235.25002 5.98093,27.33426 36.51276,44.39129 63.34375,39.3125 124.39362,-0.71916 248.81301,1.56598 373.1875,-1.28125 28.58739,-5.66032 49.89171,-30.75162 56.51897,-58.3694 21.93922,-56.45371 47.82802,-111.44022 66.76228,-168.97435 2.23223,-24.42494 -22.90571,-45.50952 -46.5625,-41.34375 -14.50748,-0.51864 -29.02407,0.46476 -43.53125,-0.0625 -11.20527,-21.73533 -37.99999,-30.8068 -61.31247,-27.36783 -57.69669,0.5032 -115.3971,0.40409 -173.09378,-0.0384 -4.30409,-21.55893 -24.64894,-39.51797 -47.0625,-38.53125 z"
       id="path4333"
       transform="matrix(0.97978265,-0.12749373,0.6935346,0.64222818,-352.78909,303.62397)" />
    <path
       sodipodi:type="arc"
       style="opacity:0.3;fill:url(#radialGradient4574);fill-opacity:1;stroke:none;display:inline"
       id="path4562"
       sodipodi:cx="-984.89874"
       sodipodi:cy="249.90216"
       sodipodi:rx="199.00005"
       sodipodi:ry="170.71577"
       d="m -785.8987,249.90216 c 0,94.28372 -89.09535,170.71578 -199.00004,170.71578 -109.90466,0 -199.00006,-76.43206 -199.00006,-170.71578 0,-94.28372 89.0954,-170.715774 199.00006,-170.715774 109.90469,0 199.00004,76.432054 199.00004,170.715774 z"
       transform="matrix(2.0100498,0,0,2.3430758,2299.143,-281.42331)" />
  </g>
  <g
     inkscape:label="BackPages"
     inkscape:groupmode="layer"
     id="layer1"
     style="display:inline"
     transform="translate(80.552545,95.883605)">
    <path
       style="fill:url(#linearGradient3706);fill-opacity:1;stroke:#0c0c0c;stroke-width:10;stroke-miterlimit:4;stroke-opacity:1;stroke-dasharray:none"
       d="m 50.436445,286.88266 c -15.877961,2.42774 -23.840243,19.1322 -17.854265,37.45729 l 17.567978,53.78148 15.832696,48.46924 62.912846,192.59738 c 7.05716,21.6043 27.7882,36.70749 46.50745,33.84532 l 402.39506,-61.5263 c 18.7193,-2.86218 28.11387,-22.57158 21.05675,-44.17589 L 520.10938,306.26456 c -7.05713,-21.60433 -27.80909,-36.6636 -46.52837,-33.80141 l -224.22849,34.28458 -4.83846,-14.81219 c -5.98598,-18.32511 -23.58479,-31.12128 -39.46277,-28.69353 L 50.436445,286.88266 z"
       id="rect2916" />
    <rect
       style="opacity:0.7;fill:#ffffff;fill-opacity:1;stroke:#797979;stroke-width:5.38874006;stroke-miterlimit:4;stroke-opacity:0.46354167;stroke-dasharray:none"
       id="rect3708"
       width="430.35046"
       height="300.26001"
       x="-36.673828"
       y="362.55835"
       ry="4.9012685"
       transform="matrix(0.99207003,-0.12568631,0.29164869,0.9565255,0,0)" />
    <rect
       ry="4.6872859"
       y="376.73288"
       x="-47.777588"
       height="287.15103"
       width="402.92633"
       id="rect3710"
       style="opacity:0.5;fill:#ffffff;fill-opacity:1;stroke:#797979;stroke-width:2.78882551;stroke-miterlimit:4;stroke-opacity:0.46354167;stroke-dasharray:none"
       transform="matrix(0.98123052,-0.19283846,0.33762177,0.94128186,0,0)" />
    <text
       xml:space="preserve"
       style="font-size:16.56690788px;font-style:normal;font-weight:normal;opacity:0.22767855;fill:#000000;fill-opacity:1;stroke:none;font-family:Bitstream Vera Sans"
       x="390.26172"
       y="-4.7771816"
       id="text3712"
       transform="matrix(0.34234805,0.96722687,-0.97844219,0.15663717,0,0)"><tspan
         sodipodi:role="line"
         id="tspan3714"
         x="390.26172"
         y="-4.7771816">ACF - code ones</tspan><tspan
         sodipodi:role="line"
         x="390.26172"
         y="15.931453"
         id="tspan3716">and save your time!</tspan></text>
    <path
       style="opacity:0.5;fill:url(#linearGradient3731);fill-opacity:1;stroke:none"
       d="m 56.412019,298.35706 c -9.717427,1.48579 -14.43318,12.18588 -10.575449,23.99571 l 4.534892,13.88283 184.650858,-28.23315 -4.5349,-13.88282 c -3.85773,-11.80986 -14.78275,-20.11845 -24.50016,-18.63265 L 56.412019,298.35706 z"
       id="rect3718" />
    <path
       style="opacity:0.5;fill:#000000;stroke:#000000;stroke-width:4.73843431;stroke-linecap:butt;stroke-linejoin:miter;stroke-miterlimit:4;stroke-opacity:1;stroke-dasharray:none;display:inline"
       d="M 54.090513,345.36578 478.46389,282.19685"
       id="path4604"
       sodipodi:nodetypes="cc" />
    <path
       transform="matrix(1.3205312,-0.44927149,0.53837011,1.215207,189.16642,-161.08843)"
       style="opacity:0.5;fill:url(#radialGradient4233);fill-opacity:1;stroke:none;display:inline"
       d="m -76.771584,522.20807 c 0,45.18924 -51.556706,85.47858 -110.605156,72.60688 -64.30756,-14.0181 -84.29957,-11.34337 -81.33048,-56.70319 5.59273,-85.44239 34.86113,-135.52512 96.22923,-135.52512 61.36811,0 95.706406,74.43219 95.706406,119.62143 z"
       id="path4608"
       sodipodi:nodetypes="csssc" />
    <path
       sodipodi:type="arc"
       style="fill:url(#radialGradient3746);fill-opacity:1;stroke:none;display:inline"
       id="path4259"
       sodipodi:cx="-448.50772"
       sodipodi:cy="1464.6804"
       sodipodi:rx="76.771591"
       sodipodi:ry="62.629459"
       d="m -371.73613,1464.6804 a 76.771591,62.629459 0 1 1 -153.54318,0 76.771591,62.629459 0 1 1 153.54318,0 z"
       transform="matrix(0.78518548,0,0,1.1834286,540.99072,-1390.2293)" />
  </g>
  <g
     inkscape:groupmode="layer"
     id="layer3"
     inkscape:label="Fire"
     style="display:inline"
     transform="translate(80.552545,95.883605)">
    <path
       transform="matrix(0.86833652,-0.43609162,0.27458579,1.281031,112.9229,291.71791)"
       style="fill:url(#radialGradient3750);fill-opacity:1;stroke:none;display:inline;filter:url(#filter3840)"
       d="M 163.64472,222.01679 C 258.59906,127.06245 301.19481,184.42031 327.45878,65.222318 360.67184,-85.513819 529.95062,-4.1415286 605.18145,-48.167739 578.48759,41.402594 556.46092,31.408108 546.53964,57.192942 522.38106,119.97965 418.20316,153.32642 525.27933,224.03709"
       id="path3836"
       sodipodi:nodetypes="cscss" />
    <path
       style="fill:url(#radialGradient4331);fill-opacity:1;stroke:none;display:inline"
       d="M 257.66555,393.90757 C 200.99153,197.37332 156.66634,180.3642 155.82555,119.10669 154.98986,58.221126 148.81884,3.7793703 169.66336,-52.850129 185.9887,38.044437 243.61009,170.83088 271.05866,163.74952 309.6137,153.80286 299.17915,-36.423702 332.37879,-85.362085 352.6159,60.814843 426.91877,145.06311 434.62658,150.27613 511.82932,205.58738 396.54353,36.549567 469.16081,-81.48555 475.51654,-31.465841 478.02777,72.037684 504.67997,68.76471 546.14769,63.672343 613.35402,-25.490384 629.6183,-55.13634 629.5346,19.308029 597.20629,103.86288 607.44611,157.4477 629.03943,156.12022 667.69789,83.052137 698.05018,27.917274 678.89666,141.30282 683.1637,169.16711 678.3117,283.6159"
       id="path4297"
       sodipodi:nodetypes="cscscccscccc" />
    <path
       style="fill:url(#radialGradient4293);fill-opacity:1;stroke:none;display:inline;filter:url(#filter3848)"
       d="M 264.65997,234.13862 C 359.61431,139.18428 385.87827,112.92031 412.14224,-6.2776824 445.3553,-157.01382 492.95445,-107.29294 547.50268,-248.7143 c 24.24366,163.644718 0,169.705628 20.20305,240.4163076 C 587.90878,62.412688 519.21841,165.44825 626.29458,236.15892"
       id="path3784"
       sodipodi:nodetypes="cscss"
       transform="matrix(0.76484171,-0.11489688,0.08860908,1.0922273,86.765392,312.89298)" />
    <path
       sodipodi:nodetypes="cccccscccc"
       id="path4477"
       d="M 440.08767,242.58567 C 402.83734,224.18952 284.29052,57.264236 239.17765,-23.092811 291.96258,222.46684 251.44807,134.18719 187.84101,91.297148 c 79.81436,91.870242 58.453,145.667122 57.99736,150.748392 -3.03739,52.93089 -62.16188,-84.41559 -105.1624,-173.910742 5.08198,72.827372 22.81122,123.787032 13.98976,130.573232 -12.52249,9.63338 -79.646114,-61.6407 -99.883386,-77.06363 36.729857,48.92874 72.673446,82.4992 95.068596,119.9279 C 134.77366,256.42301 166.56121,225.95305 5.5568162,255.05153 79.291731,277.33985 184.16325,371.38509 242.4847,445.59345"
       style="fill:url(#radialGradient4479);fill-opacity:1;stroke:none;display:inline" />
    <path
       sodipodi:nodetypes="cscss"
       id="path4256"
       d="M 264.65997,234.13862 C 359.61431,139.18428 385.87827,112.92031 412.14224,-6.2776824 445.3553,-157.01382 492.95445,-107.29294 547.50268,-248.7143 c 24.24366,163.644718 0,169.705628 20.20305,240.4163076 C 587.90878,62.412688 519.21841,165.44825 626.29458,236.15892"
       style="opacity:0.5;fill:url(#radialGradient3748);fill-opacity:1;stroke:none;display:inline;filter:url(#filter3848)"
       transform="matrix(0.53922064,-0.04739719,-0.03786287,0.87902108,292.22643,244.58934)" />
    <path
       transform="matrix(-1.0485721,0.3753656,0.31757754,1.414215,792.26565,-138.69921)"
       sodipodi:nodetypes="cccccccccc"
       id="path4425"
       d="m 322.24015,187.05803 c 18.64324,-23.72564 -3.83582,-174.216106 -1.7869,-234.803892 52.00218,105.40727 95.3122,111.707325 126.94486,144.003121 10.78029,-33.539922 -28.29794,-117.686984 0.36896,-183.667119 17.27836,69.453513 43.23082,88.8224276 53.40671,61.668429 5.20135,40.645148 -1.47567,64.142991 7.51374,93.181087 19.47195,-41.384968 23.5891,-62.0616458 24.24535,-93.880405 12.88173,34.9726749 -3.77237,91.792283 2.50494,114.558386 19.40593,3.23231 41.09256,-35.496946 41.42928,-35.833664 -1.76716,62.309257 -60.33088,74.210737 -54.73986,136.797567"
       style="opacity:0.82916667;fill:#e43500;fill-opacity:0.54807691;stroke:none;display:inline;filter:url(#filter4576)" />
    <path
       sodipodi:nodetypes="cscss"
       id="path3832"
       d="m 163.64472,222.01679 c 94.95434,-94.95434 88.32012,-156.201619 114.58409,-275.399612 33.21306,-150.736138 19.81049,-100.075058 51.46161,-249.715848 36.22573,100.27853 104.08789,145.6433 124.29094,216.353979 20.20305,70.710679 -35.7782,240.071111 71.29797,310.781781"
       style="fill:url(#radialGradient3752);fill-opacity:1;stroke:none;display:inline;filter:url(#filter3844);opacity:0.5"
       transform="matrix(0.41608176,-0.44325967,0.33414503,0.63376722,175.24863,391.03437)" />
  </g>
  <g
     inkscape:groupmode="layer"
     id="layer2"
     inkscape:label="TitlePage"
     style="display:inline"
     transform="translate(80.552545,95.883605)">
    <path
       style="fill:url(#radialGradient3710);fill-opacity:1;stroke:#000000;stroke-width:10;stroke-linejoin:round;stroke-miterlimit:4;stroke-opacity:0.92990656999999999;stroke-dasharray:none"
       d="m 657.81659,238.92513 -362.31645,56.80083 c -18.30817,2.87083 -39.11317,24.7398 -46.62769,49.01615 L 165.02067,615.6023 c -7.51454,24.27633 1.18239,41.52044 19.49058,38.64961 l 393.55342,-61.69072 c 18.30818,-2.87082 39.11317,-24.73982 46.62771,-49.01615 l 82.87561,-267.76977 -8.23224,6.49374 -14.31696,-27.5789 -57.33287,-1.44741 30.13067,-14.31757 z"
       id="path2923" />
    <path
       style="opacity:0.5;fill:url(#radialGradient3950);fill-opacity:1;stroke:none;display:inline"
       d="m 664.45502,299.84556 c -129.21583,19.2659 -257.52528,31.39612 -387.01732,53.02405 -17.44201,7.43894 -32.92298,47.02929 -41.80218,82.29078 -4.20141,14.29328 -8.78137,28.242 -13.22432,42.31951 148.39753,-106.85903 294.27206,-131.86965 422.70439,-84.9216 4.73466,-19.75023 12.63501,-37.51175 18.11997,-56.90123 2.96699,-10.60776 7.42836,-24.02351 7.73731,-34.34058 -1.63619,-2.49178 -4.22907,-1.83244 -6.51785,-1.47093 z"
       id="path2923-8" />
    <path
       style="opacity:0.67886179;fill:url(#radialGradient4411);fill-opacity:1;stroke:none"
       d="m 678.6006,265.19797 c -128.19511,20.54872 -256.47803,38.54661 -384.64476,61.46415 -17.89241,9.85888 -25.69174,34.10177 -30.34362,54.28935 -25.06169,81.6573 -51.75534,162.98161 -74.65231,245.0189 1.25803,6.91681 8.72139,4.45885 13.35403,3.12626 125.02337,-19.71891 250.04326,-38.14303 375.0998,-59.53851 17.09473,-7.05902 26.20548,-29.18769 30.63288,-47.98589 24.7799,-83.3858 52.60836,-166.10414 76.03121,-249.74913 0.72349,-4.25457 -1.14661,-8.74813 -5.47723,-6.62513 z"
       id="path4375" />
    <g
       id="g4592"
       transform="matrix(1.3526618,-0.07949985,0.06416709,1.578032,-135.93796,-343.91515)">
      <rect
         transform="matrix(0.99299646,-0.11814415,-0.34821138,0.93741604,0,0)"
         ry="5.0756483"
         y="568.55859"
         x="497.68896"
         height="142.11803"
         width="71.56926"
         id="rect3733"
         style="opacity:0.71951222;fill:#e8e8e8;fill-opacity:1;stroke:#797979;stroke-width:1.22610521;stroke-opacity:0.46354167" />
      <path
         sodipodi:nodetypes="cc"
         id="path3735"
         d="m 314.59357,488.63435 c 0,0 -21.99101,65.73465 -33.00268,97.39672"
         style="fill:#ffffff;fill-opacity:1;stroke:#797979;stroke-width:2;stroke-linecap:butt;stroke-linejoin:miter;stroke-miterlimit:4;stroke-opacity:0.46354167;stroke-dasharray:none" />
      <path
         sodipodi:nodetypes="cc"
         id="path3735-7"
         d="m 330.81837,487.36447 c 0,0 -21.99101,65.73465 -33.00268,97.39672"
         style="fill:#ffffff;fill-opacity:1;stroke:#797979;stroke-width:2;stroke-linecap:butt;stroke-linejoin:miter;stroke-miterlimit:4;stroke-opacity:0.46354167;stroke-dasharray:none" />
    </g>
    <path
       style="fill:#000000;fill-opacity:1;stroke:none;display:inline;filter:url(#filter4255)"
       d="m 640.71875,344.28125 c -12.32543,1.93673 -25.65926,3.95136 -38.03125,3.9375 -42.11354,5.37038 -157.78314,22.56484 -202.0625,29.875 13.97557,6.92422 80.61237,-0.52691 74.15625,20 17.45822,-16.75441 54.57238,-16.35331 61.8125,-22.34375 -5.60257,17.10475 2.68343,20.48394 -2.18571,34.72999 29.94457,-9.58329 31.01234,-36.22425 38.96696,-38.91749 0.78878,6.7916 20.97087,14.77774 10.09375,30.59375 26.18409,-11.30226 32.5067,4.06755 58.375,-14.3125 -8.43132,7.48277 2.4249,39.26121 18.16185,38.64516 l 16.0569,-47.11391 -5.1875,3.375 -13.75,-22.03125 -55.0625,-1.15625 38.65625,-15.28125 z"
       id="path4435"
       sodipodi:nodetypes="ccccccccccccccc"
       transform="matrix(1.0412327,0,0,1.251809,0.79874644,-196.8609)" />
    <text
       xml:space="preserve"
       style="font-size:88.93131256px;font-style:normal;font-variant:normal;font-weight:bold;font-stretch:normal;text-align:start;line-height:125%;writing-mode:lr-tb;text-anchor:start;fill:#efa551;fill-opacity:1;stroke:none;font-family:Arial;-inkscape-font-specification:Arial Bold"
       x="473.46716"
       y="-367.94144"
       id="text4597"
       transform="matrix(-0.24123342,0.90202531,-1.1284404,0.07412659,0,0)"
       sodipodi:linespacing="125%"><tspan
         sodipodi:role="line"
         id="tspan4599"
         x="473.46716"
         y="-367.94144">HOT</tspan></text>
    <g
       id="g4207"
       transform="matrix(0.48986223,0.01651448,-0.0871308,0.72075292,294.68732,125.03648)"
       style="opacity:0.3;filter:url(#filter4224)">
      <g
         id="g4202">
        <g
           inkscape:label="Ebene 1"
           id="g4196"
           transform="matrix(-0.17554014,0.66426367,-0.87320565,0.11306795,1022.1796,158.13898)"
           style="fill:none;stroke:#ffffff;stroke-opacity:1;display:inline">
          <g
             id="g4198"
             clip-path="url(#clp1)"
             transform="translate(87.4955,149.55288)"
             style="fill:none;stroke:#ffffff;stroke-opacity:1">
            <path
               id="path4200"
               d="m 168.99984,274.74264 c 0,0 -5.08361,-0.16132 -10.46875,2.53125 -5.38514,2.69257 -11.53125,10.13542 -11.53125,19.46875 l 0,184.9375 c 0,0 -0.13007,5.08361 2.5625,10.46875 2.69257,5.38514 10.10417,11.53125 19.4375,11.53125 l 177.53125,0 c 0,0 5.08361,0.13007 10.46875,-2.5625 5.38514,-2.69257 11.53125,-10.10417 11.53125,-19.4375 l 0,-184.9375 c 0,0 0.13007,-5.08361 -2.5625,-10.46875 -2.69257,-5.38514 -10.10417,-11.53125 -19.4375,-11.53125 l -177.53125,0 z m 0,20 177.53125,0 c 2.66667,0 1.25507,-0.14611 1.5625,0.46875 0.30743,0.61486 0.4375,1.53125 0.4375,1.53125 l 0,82.8125 -19,0 c -4.61622,-36.52407 -34.89255,-65.1875 -71.75,-65.1875 -20.03275,0 -38.26434,8.49066 -51.3125,22.0625 l 14.40625,13.875 c 9.52584,-9.90816 22.495,-15.9375 36.90625,-15.9375 28.82328,0 52.375,24.24179 52.375,54.875 0,30.63321 -23.55172,54.875 -52.375,54.875 -14.41242,0 -27.38045,-6.02854 -36.90625,-15.9375 l -14.40625,13.875 c 13.0482,13.57304 31.27892,22.0625 51.3125,22.0625 36.65783,0 66.82022,-28.32175 71.6875,-64.5625 l 19.0625,0 0,82.125 c 0,2.66667 0.14611,1.25507 -0.46875,1.5625 -0.61486,0.30743 -1.53125,0.4375 -1.53125,0.4375 l -177.53125,0 c -2.66667,0 -1.25507,0.14611 -1.5625,-0.46875 -0.30743,-0.61486 -0.4375,-1.53125 -0.4375,-1.53125 l 0,-79.28125 58.3125,0 c 5.10355,13.25814 17.61783,22.875 32.4375,22.875 19.41902,0 34.90625,-16.52555 34.90625,-36.09375 0,-19.5682 -15.48723,-36.0625 -34.90625,-36.0625 -17.12141,0 -31.16142,12.83519 -34.25,29.28125 l -56.5,0 0,-85.65625 c 0,-2.66667 -0.14611,-1.25507 0.46875,-1.5625 0.61486,-0.30743 1.53125,-0.4375 1.53125,-0.4375 z m 88.75,78.375 c 8.10298,0 14.90625,6.8187 14.90625,16.0625 0,9.2438 -6.80327,16.09375 -14.90625,16.09375 -8.10254,0 -14.90625,-6.84859 -14.90625,-16.09375 0,-9.24562 6.80327,-16.0625 14.90625,-16.0625 z"
               style="font-size:medium;font-style:normal;font-variant:normal;font-weight:normal;font-stretch:normal;text-indent:0;text-align:start;text-decoration:none;line-height:normal;letter-spacing:normal;word-spacing:normal;text-transform:none;direction:ltr;block-progression:tb;writing-mode:lr-tb;text-anchor:start;color:#000000;fill:none;stroke:#ffffff;stroke-width:1.33607864;stroke-miterlimit:4;stroke-opacity:1;stroke-dasharray:none;marker:none;visibility:visible;display:inline;overflow:visible;enable-background:accumulate;font-family:Bitstream Vera Sans;-inkscape-font-specification:Bitstream Vera Sans" />
          </g>
        </g>
      </g>
      <g
         inkscape:label="Ebene 1"
         id="layer1-4"
         transform="matrix(-0.17554014,0.66426367,-0.87320565,0.11306795,1020.0367,155.99612)"
         style="display:inline">
        <g
           id="g3293"
           clip-path="url(#clp1)"
           transform="translate(87.4955,149.55288)"
           style="fill:none">
          <path
             id="path3301"
             d="m 168.99984,274.74264 c 0,0 -5.08361,-0.16132 -10.46875,2.53125 -5.38514,2.69257 -11.53125,10.13542 -11.53125,19.46875 l 0,184.9375 c 0,0 -0.13007,5.08361 2.5625,10.46875 2.69257,5.38514 10.10417,11.53125 19.4375,11.53125 l 177.53125,0 c 0,0 5.08361,0.13007 10.46875,-2.5625 5.38514,-2.69257 11.53125,-10.10417 11.53125,-19.4375 l 0,-184.9375 c 0,0 0.13007,-5.08361 -2.5625,-10.46875 -2.69257,-5.38514 -10.10417,-11.53125 -19.4375,-11.53125 l -177.53125,0 z m 0,20 177.53125,0 c 2.66667,0 1.25507,-0.14611 1.5625,0.46875 0.30743,0.61486 0.4375,1.53125 0.4375,1.53125 l 0,82.8125 -19,0 c -4.61622,-36.52407 -34.89255,-65.1875 -71.75,-65.1875 -20.03275,0 -38.26434,8.49066 -51.3125,22.0625 l 14.40625,13.875 c 9.52584,-9.90816 22.495,-15.9375 36.90625,-15.9375 28.82328,0 52.375,24.24179 52.375,54.875 0,30.63321 -23.55172,54.875 -52.375,54.875 -14.41242,0 -27.38045,-6.02854 -36.90625,-15.9375 l -14.40625,13.875 c 13.0482,13.57304 31.27892,22.0625 51.3125,22.0625 36.65783,0 66.82022,-28.32175 71.6875,-64.5625 l 19.0625,0 0,82.125 c 0,2.66667 0.14611,1.25507 -0.46875,1.5625 -0.61486,0.30743 -1.53125,0.4375 -1.53125,0.4375 l -177.53125,0 c -2.66667,0 -1.25507,0.14611 -1.5625,-0.46875 -0.30743,-0.61486 -0.4375,-1.53125 -0.4375,-1.53125 l 0,-79.28125 58.3125,0 c 5.10355,13.25814 17.61783,22.875 32.4375,22.875 19.41902,0 34.90625,-16.52555 34.90625,-36.09375 0,-19.5682 -15.48723,-36.0625 -34.90625,-36.0625 -17.12141,0 -31.16142,12.83519 -34.25,29.28125 l -56.5,0 0,-85.65625 c 0,-2.66667 -0.14611,-1.25507 0.46875,-1.5625 0.61486,-0.30743 1.53125,-0.4375 1.53125,-0.4375 z m 88.75,78.375 c 8.10298,0 14.90625,6.8187 14.90625,16.0625 0,9.2438 -6.80327,16.09375 -14.90625,16.09375 -8.10254,0 -14.90625,-6.84859 -14.90625,-16.09375 0,-9.24562 6.80327,-16.0625 14.90625,-16.0625 z"
             style="font-size:medium;font-style:normal;font-variant:normal;font-weight:normal;font-stretch:normal;text-indent:0;text-align:start;text-decoration:none;line-height:normal;letter-spacing:normal;word-spacing:normal;text-transform:none;direction:ltr;block-progression:tb;writing-mode:lr-tb;text-anchor:start;color:#000000;fill:none;stroke:#000000;stroke-width:1.33607864;stroke-miterlimit:4;stroke-opacity:1;stroke-dasharray:none;marker:none;visibility:visible;display:inline;overflow:visible;enable-background:accumulate;font-family:Bitstream Vera Sans;-inkscape-font-specification:Bitstream Vera Sans" />
        </g>
      </g>
    </g>
  </g>
</svg>
