<?xml version="1.0" encoding="UTF-8" standalone="no"?>
<!-- Created with Inkscape (http://www.inkscape.org/) -->

<svg
   xmlns:dc="http://purl.org/dc/elements/1.1/"
   xmlns:cc="http://creativecommons.org/ns#"
   xmlns:rdf="http://www.w3.org/1999/02/22-rdf-syntax-ns#"
   xmlns:svg="http://www.w3.org/2000/svg"
   xmlns="http://www.w3.org/2000/svg"
   xmlns:xlink="http://www.w3.org/1999/xlink"
   xmlns:sodipodi="http://sodipodi.sourceforge.net/DTD/sodipodi-0.dtd"
   xmlns:inkscape="http://www.inkscape.org/namespaces/inkscape"
   inkscape:export-ydpi="7.1999998"
   inkscape:export-xdpi="7.1999998"
   inkscape:export-filename="C:\Dokumente und Einstellungen\wga\Desktop\Hotfolder.png"
   sodipodi:docname="Hotfolder.svg"
   width="256"
   height="256"
   id="svg2"
   version="1.1"
   inkscape:version="0.47 r22583">
  <defs
     id="defs4">
    <linearGradient
       id="linearGradient4261">
      <stop
         style="stop-color:#ffffff;stop-opacity:1;"
         offset="0"
         id="stop4263" />
      <stop
         style="stop-color:#ffffff;stop-opacity:0;"
         offset="1"
         id="stop4265" />
    </linearGradient>
    <linearGradient
       inkscape:collect="always"
       id="linearGradient4610">
      <stop
         style="stop-color:#ff0000;stop-opacity:1;"
         offset="0"
         id="stop4612" />
      <stop
         style="stop-color:#ff0000;stop-opacity:0;"
         offset="1"
         id="stop4614" />
    </linearGradient>
    <linearGradient
       id="linearGradient4564">
      <stop
         style="stop-color:#000000;stop-opacity:1;"
         offset="0"
         id="stop4566" />
      <stop
         style="stop-color:#000000;stop-opacity:0;"
         offset="1"
         id="stop4568" />
    </linearGradient>
    <linearGradient
       id="linearGradient4483">
      <stop
         id="stop4485"
         offset="0"
         style="stop-color:#ffffff;stop-opacity:1;" />
      <stop
         id="stop4487"
         offset="1"
         style="stop-color:#ffffff;stop-opacity:1" />
    </linearGradient>
    <linearGradient
       id="linearGradient4419">
      <stop
         id="stop4421"
         offset="0"
         style="stop-color:#f3ff1f;stop-opacity:1;" />
      <stop
         id="stop4423"
         offset="1"
         style="stop-color:#94a151;stop-opacity:0" />
    </linearGradient>
    <linearGradient
       id="linearGradient4306">
      <stop
         style="stop-color:#ff4b1b;stop-opacity:1;"
         offset="0"
         id="stop4308" />
      <stop
         id="stop3737"
         offset="0.84285712"
         style="stop-color:#ff250d;stop-opacity:0.54117647;" />
      <stop
         style="stop-color:#ff0000;stop-opacity:0.0877193;"
         offset="1"
         id="stop4310" />
    </linearGradient>
    <linearGradient
       id="linearGradient4268">
      <stop
         id="stop4270"
         offset="0"
         style="stop-color:#f3ff1f;stop-opacity:1;" />
      <stop
         id="stop4272"
         offset="1"
         style="stop-color:#dc3e2b;stop-opacity:1;" />
    </linearGradient>
    <linearGradient
       id="linearGradient4260">
      <stop
         id="stop4262"
         offset="0"
         style="stop-color:#ffffff;stop-opacity:1;" />
      <stop
         style="stop-color:#fff5e4;stop-opacity:0.39473686;"
         offset="0.5"
         id="stop4264" />
      <stop
         id="stop4266"
         offset="1"
         style="stop-color:#ffd2b7;stop-opacity:0;" />
    </linearGradient>
    <linearGradient
       id="linearGradient3852">
      <stop
         id="stop3854"
         offset="0"
         style="stop-color:#daddf7;stop-opacity:1;" />
      <stop
         style="stop-color:#fbdfd2;stop-opacity:0.51754385;"
         offset="0.37508923"
         id="stop3856" />
      <stop
         id="stop3858"
         offset="1"
         style="stop-color:#ffff5e;stop-opacity:0.12280702;" />
    </linearGradient>
    <linearGradient
       id="linearGradient3794">
      <stop
         style="stop-color:#daddf7;stop-opacity:1;"
         offset="0"
         id="stop3796" />
      <stop
         id="stop3802"
         offset="0.5"
         style="stop-color:#f8cbb6;stop-opacity:0.78039217;" />
      <stop
         style="stop-color:#ffff0d;stop-opacity:0.12280702;"
         offset="1"
         id="stop3798" />
    </linearGradient>
    <linearGradient
       id="linearGradient3764">
      <stop
         style="stop-color:#ffffff;stop-opacity:1;"
         offset="0"
         id="stop3766" />
      <stop
         style="stop-color:#ffffff;stop-opacity:0.89473683;"
         offset="1"
         id="stop3768" />
    </linearGradient>
    <linearGradient
       id="linearGradient3725">
      <stop
         style="stop-color:#ffffff;stop-opacity:0"
         offset="0"
         id="stop3727" />
      <stop
         style="stop-color:#dadaff;stop-opacity:1;"
         offset="1"
         id="stop3729" />
    </linearGradient>
    <linearGradient
       id="linearGradient3698">
      <stop
         style="stop-color:#909800;stop-opacity:1;"
         offset="0"
         id="stop3700" />
      <stop
         style="stop-color:#ffff51;stop-opacity:1;"
         offset="1"
         id="stop3702" />
    </linearGradient>
    <inkscape:perspective
       sodipodi:type="inkscape:persp3d"
       inkscape:vp_x="0 : 526.18109 : 1"
       inkscape:vp_y="0 : 1000 : 0"
       inkscape:vp_z="744.09448 : 526.18109 : 1"
       inkscape:persp3d-origin="372.04724 : 350.78739 : 1"
       id="perspective10" />
    <inkscape:perspective
       id="perspective2827"
       inkscape:persp3d-origin="0.5 : 0.33333333 : 1"
       inkscape:vp_z="1 : 0.5 : 1"
       inkscape:vp_y="0 : 1000 : 0"
       inkscape:vp_x="0 : 0.5 : 1"
       sodipodi:type="inkscape:persp3d" />
    <linearGradient
       inkscape:collect="always"
       xlink:href="#linearGradient4268"
       id="linearGradient3706"
       x1="255.72769"
       y1="285.92188"
       x2="353.56696"
       y2="-69.078125"
       gradientUnits="userSpaceOnUse"
       gradientTransform="matrix(0.34080726,-0.0521095,0.12848411,0.39333308,-109.35459,575.01366)" />
    <linearGradient
       inkscape:collect="always"
       xlink:href="#linearGradient3725"
       id="linearGradient3731"
       x1="321.6424"
       y1="49.381351"
       x2="276.0625"
       y2="29"
       gradientUnits="userSpaceOnUse"
       gradientTransform="matrix(0.34080725,-0.0521095,0.13529797,0.41419258,-109.97918,573.88405)" />
    <inkscape:perspective
       id="perspective3745"
       inkscape:persp3d-origin="0.5 : 0.33333333 : 1"
       inkscape:vp_z="1 : 0.5 : 1"
       inkscape:vp_y="0 : 1000 : 0"
       inkscape:vp_x="0 : 0.5 : 1"
       sodipodi:type="inkscape:persp3d" />
    <radialGradient
       inkscape:collect="always"
       xlink:href="#linearGradient3764"
       id="radialGradient3770"
       cx="336.40488"
       cy="230.03316"
       fx="336.40488"
       fy="230.03316"
       r="32.285713"
       gradientTransform="matrix(1,0,0,1.6637168,0,-142.13356)"
       gradientUnits="userSpaceOnUse" />
    <filter
       inkscape:collect="always"
       id="filter3840"
       color-interpolation-filters="sRGB">
      <feGaussianBlur
         inkscape:collect="always"
         stdDeviation="4.5360841"
         id="feGaussianBlur3842" />
    </filter>
    <filter
       inkscape:collect="always"
       id="filter3844"
       color-interpolation-filters="sRGB">
      <feGaussianBlur
         inkscape:collect="always"
         stdDeviation="4.432826"
         id="feGaussianBlur3846" />
    </filter>
    <filter
       inkscape:collect="always"
       id="filter3848"
       color-interpolation-filters="sRGB">
      <feGaussianBlur
         inkscape:collect="always"
         stdDeviation="4.2325392"
         id="feGaussianBlur3850" />
    </filter>
    <inkscape:perspective
       id="perspective3879"
       inkscape:persp3d-origin="0.5 : 0.33333333 : 1"
       inkscape:vp_z="1 : 0.5 : 1"
       inkscape:vp_y="0 : 1000 : 0"
       inkscape:vp_x="0 : 0.5 : 1"
       sodipodi:type="inkscape:persp3d" />
    <linearGradient
       inkscape:collect="always"
       xlink:href="#linearGradient3698-0"
       id="linearGradient3704-4"
       x1="498.31738"
       y1="125.20982"
       x2="459.53976"
       y2="313.78125"
       gradientUnits="userSpaceOnUse" />
    <linearGradient
       id="linearGradient3698-0">
      <stop
         style="stop-color:#ffffff;stop-opacity:1;"
         offset="0"
         id="stop3700-9" />
      <stop
         style="stop-color:#ffffff;stop-opacity:0;"
         offset="1"
         id="stop3702-4" />
    </linearGradient>
    <radialGradient
       inkscape:collect="always"
       xlink:href="#linearGradient3698-0"
       id="radialGradient3950"
       cx="587.04132"
       cy="114.38779"
       fx="587.04132"
       fy="114.38779"
       r="210.44698"
       gradientTransform="matrix(0.2695144,-0.03748458,-0.03093959,0.09006586,-26.596463,609.1082)"
       gradientUnits="userSpaceOnUse" />
    <inkscape:perspective
       id="perspective4078"
       inkscape:persp3d-origin="0.5 : 0.33333333 : 1"
       inkscape:vp_z="1 : 0.5 : 1"
       inkscape:vp_y="0 : 1000 : 0"
       inkscape:vp_x="0 : 0.5 : 1"
       sodipodi:type="inkscape:persp3d" />
    <linearGradient
       id="linearGradient3852-2">
      <stop
         id="stop3854-4"
         offset="0"
         style="stop-color:#daddf7;stop-opacity:1;" />
      <stop
         style="stop-color:#f8cbb6;stop-opacity:0.78039217;"
         offset="0.37508923"
         id="stop3856-5" />
      <stop
         id="stop3858-5"
         offset="1"
         style="stop-color:#ffff0d;stop-opacity:0.40350878;" />
    </linearGradient>
    <linearGradient
       id="linearGradient3794-1">
      <stop
         style="stop-color:#daddf7;stop-opacity:1;"
         offset="0"
         id="stop3796-5" />
      <stop
         id="stop3802-2"
         offset="0.5"
         style="stop-color:#f8cbb6;stop-opacity:0.78039217;" />
      <stop
         style="stop-color:#ffff0d;stop-opacity:0.21138211"
         offset="1"
         id="stop3798-7" />
    </linearGradient>
    <linearGradient
       id="linearGradient4097">
      <stop
         id="stop4099"
         offset="0"
         style="stop-color:#daddf7;stop-opacity:1;" />
      <stop
         style="stop-color:#f8cbb6;stop-opacity:0.78039217;"
         offset="0.37508923"
         id="stop4101" />
      <stop
         id="stop4103"
         offset="1"
         style="stop-color:#ffff0d;stop-opacity:0.40350878;" />
    </linearGradient>
    <radialGradient
       inkscape:collect="always"
       xlink:href="#linearGradient3794-1"
       id="radialGradient3800-2"
       cx="134.35028"
       cy="-322.22815"
       fx="134.35028"
       fy="-322.22815"
       r="180.81731"
       gradientTransform="matrix(0.46243802,0.1320238,-0.38901956,1.3626137,298.40164,481.72747)"
       gradientUnits="userSpaceOnUse" />
    <linearGradient
       id="linearGradient4110">
      <stop
         style="stop-color:#daddf7;stop-opacity:1;"
         offset="0"
         id="stop4112" />
      <stop
         id="stop4114"
         offset="0.5"
         style="stop-color:#f8cbb6;stop-opacity:0.78039217;" />
      <stop
         style="stop-color:#ffff0d;stop-opacity:0.21138211"
         offset="1"
         id="stop4116" />
    </linearGradient>
    <radialGradient
       inkscape:collect="always"
       xlink:href="#linearGradient3794"
       id="radialGradient4293"
       gradientUnits="userSpaceOnUse"
       gradientTransform="matrix(0.46243802,0.1320238,-0.38901956,1.3626137,284.2595,481.72747)"
       cx="134.35028"
       cy="-322.22815"
       fx="134.35028"
       fy="-322.22815"
       r="180.81731" />
    <radialGradient
       inkscape:collect="always"
       xlink:href="#linearGradient4306"
       id="radialGradient4331"
       gradientUnits="userSpaceOnUse"
       gradientTransform="matrix(0.61913513,0.02401982,-0.07276772,0.52608154,-174.07446,452.17193)"
       cx="418.55783"
       cy="92.109787"
       fx="418.55783"
       fy="92.109787"
       r="153.14731" />
    <radialGradient
       inkscape:collect="always"
       xlink:href="#linearGradient4419"
       id="radialGradient4411"
       cx="298.94974"
       cy="675.46466"
       fx="298.94974"
       fy="675.46466"
       r="231.02071"
       gradientTransform="matrix(0.331966,0.02091047,-0.09280586,0.49236705,-4.0454158,304.63143)"
       gradientUnits="userSpaceOnUse" />
    <radialGradient
       inkscape:collect="always"
       xlink:href="#linearGradient4306"
       id="radialGradient4479"
       gradientUnits="userSpaceOnUse"
       gradientTransform="matrix(-0.32884216,0.13674833,0.46556608,0.46894083,116.70348,449.2393)"
       cx="466.60516"
       cy="165.45937"
       fx="466.60516"
       fy="165.45937"
       r="153.14731" />
    <radialGradient
       inkscape:collect="always"
       xlink:href="#linearGradient4564"
       id="radialGradient4574"
       gradientUnits="userSpaceOnUse"
       gradientTransform="matrix(1,0,0,0.85786802,0,35.51909)"
       cx="-984.89874"
       cy="249.90216"
       fx="-984.89874"
       fy="249.90216"
       r="199.00005" />
    <filter
       inkscape:collect="always"
       id="filter4576"
       color-interpolation-filters="sRGB">
      <feGaussianBlur
         inkscape:collect="always"
         stdDeviation="1.3854205"
         id="feGaussianBlur4578" />
    </filter>
    <filter
       inkscape:collect="always"
       id="filter4588"
       color-interpolation-filters="sRGB">
      <feGaussianBlur
         inkscape:collect="always"
         stdDeviation="8.3553205"
         id="feGaussianBlur4590" />
    </filter>
    <radialGradient
       inkscape:collect="always"
       xlink:href="#linearGradient4610"
       id="radialGradient4616"
       cx="-187.88837"
       cy="522.20807"
       fx="-187.88837"
       fy="522.20807"
       r="111.11678"
       gradientTransform="matrix(1,0,0,0.73636362,0,137.67304)"
       gradientUnits="userSpaceOnUse" />
    <radialGradient
       inkscape:collect="always"
       xlink:href="#linearGradient3698"
       id="radialGradient3710"
       cx="432.84073"
       cy="450.0069"
       fx="432.84073"
       fy="450.0069"
       r="278.33255"
       gradientTransform="matrix(0.52602972,-0.32697322,0.0906912,0.14590269,-197.92535,708.29032)"
       gradientUnits="userSpaceOnUse" />
    <inkscape:perspective
       sodipodi:type="inkscape:persp3d"
       inkscape:vp_x="0 : 495 : 1"
       inkscape:vp_y="0 : 1000 : 0"
       inkscape:vp_z="765 : 495 : 1"
       inkscape:persp3d-origin="382.5 : 330 : 1"
       id="perspective3324" />
    <inkscape:perspective
       sodipodi:type="inkscape:persp3d"
       inkscape:vp_x="0 : 526.18109 : 1"
       inkscape:vp_y="0 : 1000 : 0"
       inkscape:vp_z="744.09448 : 526.18109 : 1"
       inkscape:persp3d-origin="372.04724 : 350.78739 : 1"
       id="perspective3188" />
    <inkscape:perspective
       sodipodi:type="inkscape:persp3d"
       inkscape:vp_x="0 : 526.18109 : 1"
       inkscape:vp_y="0 : 1000 : 0"
       inkscape:vp_z="744.09448 : 526.18109 : 1"
       inkscape:persp3d-origin="372.04724 : 350.78739 : 1"
       id="perspective2390" />
    <inkscape:perspective
       id="perspective10-4"
       inkscape:persp3d-origin="372.04724 : 350.78739 : 1"
       inkscape:vp_z="744.09448 : 526.18109 : 1"
       inkscape:vp_y="0 : 1000 : 0"
       inkscape:vp_x="0 : 526.18109 : 1"
       sodipodi:type="inkscape:persp3d" />
    <linearGradient
       id="linearGradient3164">
      <stop
         id="stop3166"
         offset="0"
         style="stop-color:#ffffff;stop-opacity:1;" />
      <stop
         style="stop-color:#0af27e;stop-opacity:1;"
         offset="0.7562812"
         id="stop3172" />
      <stop
         id="stop3168"
         offset="1"
         style="stop-color:#0af27e;stop-opacity:1;" />
    </linearGradient>
    <linearGradient
       id="linearGradient3174">
      <stop
         id="stop3176"
         offset="0"
         style="stop-color:#ffe2c0;stop-opacity:1;" />
      <stop
         style="stop-color:#000000;stop-opacity:1;"
         offset="0.84038174"
         id="stop3182" />
      <stop
         id="stop3178"
         offset="1"
         style="stop-color:#000000;stop-opacity:1;" />
    </linearGradient>
    <filter
       inkscape:collect="always"
       id="filter4224"
       color-interpolation-filters="sRGB">
      <feGaussianBlur
         inkscape:collect="always"
         stdDeviation="1.999632"
         id="feGaussianBlur4226" />
    </filter>
    <radialGradient
       inkscape:collect="always"
       xlink:href="#linearGradient4610"
       id="radialGradient4233"
       gradientUnits="userSpaceOnUse"
       gradientTransform="matrix(0.86229348,-0.3397156,0.21428301,0.31527769,73.702795,425.35773)"
       cx="-204.21214"
       cy="537.54218"
       fx="-204.21214"
       fy="537.54218"
       r="111.11678" />
    <filter
       inkscape:collect="always"
       id="filter4255"
       color-interpolation-filters="sRGB">
      <feGaussianBlur
         inkscape:collect="always"
         stdDeviation="3.4135238"
         id="feGaussianBlur4257" />
    </filter>
    <radialGradient
       inkscape:collect="always"
       xlink:href="#linearGradient4261"
       id="radialGradient4267"
       cx="-448.50772"
       cy="1464.6804"
       fx="-448.50772"
       fy="1464.6804"
       r="77.271591"
       gradientTransform="matrix(1,0,0,0.81698149,0,268.06363)"
       gradientUnits="userSpaceOnUse" />
    <radialGradient
       inkscape:collect="always"
       xlink:href="#linearGradient4261"
       id="radialGradient3746"
       gradientUnits="userSpaceOnUse"
       gradientTransform="matrix(1,0,0,0.81698149,0,268.06363)"
       cx="-438.5365"
       cy="1445.8127"
       fx="-438.5365"
       fy="1445.8127"
       r="77.271591" />
    <radialGradient
       inkscape:collect="always"
       xlink:href="#linearGradient4260"
       id="radialGradient3748"
       gradientUnits="userSpaceOnUse"
       gradientTransform="matrix(0.74435181,0.53298149,-0.86592308,2.5632681,92.712563,814.74332)"
       cx="134.35028"
       cy="-322.22815"
       fx="134.35028"
       fy="-322.22815"
       r="180.81731" />
    <radialGradient
       inkscape:collect="always"
       xlink:href="#linearGradient3852"
       id="radialGradient3750"
       gradientUnits="userSpaceOnUse"
       gradientTransform="matrix(0.35583165,0.30323654,-0.80635121,0.43836237,108.6921,154.77778)"
       cx="150.53398"
       cy="-343.84311"
       fx="150.53398"
       fy="-343.84311"
       r="180.81731" />
    <radialGradient
       inkscape:collect="always"
       xlink:href="#linearGradient3794"
       id="radialGradient3752"
       gradientUnits="userSpaceOnUse"
       gradientTransform="matrix(0.62795561,-0.10032672,0.12005438,1.9632728,302.04515,716.64137)"
       cx="177.65125"
       cy="-324.86987"
       fx="177.65125"
       fy="-324.86987"
       r="180.81731" />
  </defs>
  <sodipodi:namedview
     id="base"
     pagecolor="#ffffff"
     bordercolor="#666666"
     borderopacity="1.0"
     inkscape:pageopacity="0"
     inkscape:pageshadow="2"
     inkscape:zoom="2.8"
     inkscape:cx="201.76346"
     inkscape:cy="98.547181"
     inkscape:document-units="px"
     inkscape:current-layer="layer1"
     showgrid="false"
     inkscape:window-width="1920"
     inkscape:window-height="1134"
     inkscape:window-x="-4"
     inkscape:window-y="-4"
     inkscape:window-maximized="1"
     inkscape:snap-nodes="false" />
  <metadata
     id="metadata7">
    <rdf:RDF>
      <cc:Work
         rdf:about="">
        <dc:format>image/svg+xml</dc:format>
        <dc:type
           rdf:resource="http://purl.org/dc/dcmitype/StillImage" />
        <dc:title />
      </cc:Work>
    </rdf:RDF>
  </metadata>
  <g
     inkscape:groupmode="layer"
     id="layer4"
     inkscape:label="Background"
     style="display:inline"
     transform="translate(80.552545,-448.11639)">
    <path
       style="opacity:0.2;fill:#000000;fill-opacity:1;stroke:none;display:inline;filter:url(#filter4588)"
       d="m 288.62788,245.03281 c -52.60845,1.79629 -105.48724,-2.58647 -157.92019,2.55782 -23.70856,7.76345 -36.265633,35.11963 -31.667123,58.84841 0.58823,78.41116 -1.50357,156.87961 1.337313,235.25002 5.98093,27.33426 36.51276,44.39129 63.34375,39.3125 124.39362,-0.71916 248.81301,1.56598 373.1875,-1.28125 28.58739,-5.66032 49.89171,-30.75162 56.51897,-58.3694 21.93922,-56.45371 47.82802,-111.44022 66.76228,-168.97435 2.23223,-24.42494 -22.90571,-45.50952 -46.5625,-41.34375 -14.50748,-0.51864 -29.02407,0.46476 -43.53125,-0.0625 -11.20527,-21.73533 -37.99999,-30.8068 -61.31247,-27.36783 -57.69669,0.5032 -115.3971,0.40409 -173.09378,-0.0384 -4.30409,-21.55893 -24.64894,-39.51797 -47.0625,-38.53125 z"
       id="path4333"
       transform="matrix(0.31058753,-0.04041505,0.21984794,0.20358399,-165.3941,576.80462)" />
    <path
       sodipodi:type="arc"
       style="opacity:0.3;fill:url(#radialGradient4574);fill-opacity:1;stroke:none;display:inline"
       id="path4562"
       sodipodi:cx="-984.89874"
       sodipodi:cy="249.90216"
       sodipodi:rx="199.00005"
       sodipodi:ry="170.71577"
       d="m -785.8987,249.90216 a 199.00005,170.71577 0 1 1 -398.0001,0 199.00005,170.71577 0 1 1 398.0001,0 z"
       transform="matrix(0.63717846,0,0,0.74274649,675.25871,391.34676)" />
  </g>
  <g
     inkscape:label="BackPages"
     inkscape:groupmode="layer"
     id="layer1"
     style="display:inline"
     transform="translate(80.552545,-448.11639)">
    <path
       style="fill:url(#linearGradient3706);fill-opacity:1;stroke:#0c0c0c;stroke-width:3.1699636;stroke-miterlimit:4;stroke-opacity:1;stroke-dasharray:none"
       d="m -37.573076,571.49768 c -5.033255,0.76959 -7.55727,6.06484 -5.659737,11.87383 l 5.568985,17.04853 5.018907,15.36457 19.943143,61.05267 c 2.237094,6.84848 8.8087582,11.63614 14.7426923,10.72884 L 129.59869,668.06251 c 5.93395,-0.9073 8.91199,-7.15511 6.67491,-14.0036 l -24.96206,-76.41724 c -2.23709,-6.84849 -8.81539,-11.62222 -14.74933,-10.71492 l -71.079615,10.86809 -1.533774,-4.69541 c -1.897534,-5.809 -7.476292,-9.86534 -12.509554,-9.09575 l -49.012343,7.494 z"
       id="rect2916" />
    <rect
       style="opacity:0.7;fill:#ffffff;fill-opacity:1;stroke:#797979;stroke-width:1.70821095;stroke-miterlimit:4;stroke-opacity:0.46354167;stroke-dasharray:none"
       id="rect3708"
       width="136.41953"
       height="95.181328"
       x="-205.80888"
       y="591.81268"
       ry="1.5536842"
       transform="matrix(0.99207003,-0.12568631,0.29164869,0.9565255,0,0)" />
    <rect
       ry="1.4858526"
       y="585.8927"
       x="-230.23402"
       height="91.025833"
       width="127.72618"
       id="rect3710"
       style="opacity:0.5;fill:#ffffff;fill-opacity:1;stroke:#797979;stroke-width:0.88404751;stroke-miterlimit:4;stroke-opacity:0.46354167;stroke-dasharray:none"
       transform="matrix(0.98123052,-0.19283846,0.33762177,0.94128186,0,0)" />
    <text
       xml:space="preserve"
       style="font-size:5.25164938px;font-style:normal;font-weight:normal;opacity:0.22767855;fill:#000000;fill-opacity:1;stroke:none;font-family:Bitstream Vera Sans"
       x="585.51904"
       y="214.80925"
       id="text3712"
       transform="matrix(0.34234805,0.96722687,-0.97844219,0.15663717,0,0)"><tspan
         sodipodi:role="line"
         id="tspan3714"
         x="585.51904"
         y="214.80925">ACF - code ones </tspan><tspan
         sodipodi:role="line"
         x="585.51904"
         y="221.37381"
         id="tspan3716">and save your time!</tspan></text>
    <path
       style="opacity:0.5;fill:url(#linearGradient3731);fill-opacity:1;stroke:none"
       d="m -35.67884,575.13502 c -3.080389,0.47099 -4.575266,3.86288 -3.352379,7.60656 l 1.437544,4.4008 58.533649,-8.9498 -1.437547,-4.40081 c -1.222886,-3.74368 -4.686077,-6.37747 -7.766461,-5.90648 l -47.414806,7.24973 z"
       id="rect3718" />
    <path
       style="opacity:0.5;fill:#000000;stroke:#000000;stroke-width:1.50206637;stroke-linecap:butt;stroke-linejoin:miter;stroke-miterlimit:4;stroke-opacity:1;stroke-dasharray:none;display:inline"
       d="M -36.414749,590.03662 98.110065,570.0123"
       id="path4604"
       sodipodi:nodetypes="cc" />
    <path
       style="opacity:0.5;fill:url(#radialGradient4233);fill-opacity:1;stroke:none;display:inline"
       d="m 63.387702,641.58909 c 7.712058,17.40763 -6.99393,40.27031 -33.908525,43.72145 -29.31172278,3.75852 -37.2239763,7.63608 -43.722273,-10.26011 -12.240578,-33.71029 -8.535908,-57.1713 17.1529976,-65.91119 25.6889104,-8.73989 52.7657434,15.04223 60.4778004,32.44985 z"
       id="path4608"
       sodipodi:nodetypes="csssc" />
    <path
       sodipodi:type="arc"
       style="fill:url(#radialGradient3746);fill-opacity:1;stroke:none;display:inline"
       id="path4259"
       sodipodi:cx="-448.50772"
       sodipodi:cy="1464.6804"
       sodipodi:rx="76.771591"
       sodipodi:ry="62.629459"
       d="m -371.73613,1464.6804 a 76.771591,62.629459 0 1 1 -153.54318,0 76.771591,62.629459 0 1 1 153.54318,0 z"
       transform="matrix(0.24890094,0,0,0.37514255,117.93085,39.859296)" />
  </g>
  <g
     inkscape:groupmode="layer"
     id="layer3"
     inkscape:label="Fire"
     style="display:inline"
     transform="translate(80.552545,-448.11639)">
    <path
       transform="matrix(0.27525951,-0.13823945,0.0870427,0.40608216,-17.765097,573.03044)"
       style="fill:url(#radialGradient3750);fill-opacity:1;stroke:none;display:inline;filter:url(#filter3840)"
       d="M 163.64472,222.01679 C 258.59906,127.06245 301.19481,184.42031 327.45878,65.222318 360.67184,-85.513819 529.95062,-4.1415286 605.18145,-48.167739 578.48759,41.402594 556.46092,31.408108 546.53964,57.192942 522.38106,119.97965 418.20316,153.32642 525.27933,224.03709"
       id="path3836"
       sodipodi:nodetypes="cscss" />
    <path
       style="fill:url(#radialGradient4331);fill-opacity:1;stroke:none;display:inline"
       d="M 28.117796,605.42419 C 10.152338,543.12355 -3.8985863,537.73172 -4.1651136,518.31331 -4.4300243,499.01281 -6.3862152,481.75497 0.22142172,463.80362 5.396495,492.61687 23.662266,534.70969 32.363363,532.46492 c 12.221807,-3.15305 8.914093,-63.45418 19.438258,-78.96747 6.41509,46.33756 29.968829,73.04395 32.412177,74.69646 24.472992,17.53346 -12.072189,-36.05091 10.947225,-73.46761 2.014743,15.85607 2.810794,48.66631 11.259447,47.62879 13.14512,-1.61427 34.44928,-29.87853 39.605,-39.27619 -0.0265,23.5986 -10.27449,50.40218 -7.02851,67.38837 6.84501,-0.42081 19.0996,-23.58312 28.72116,-41.06067 -6.07159,35.9428 -4.71896,44.77568 -6.25702,81.05553"
       id="path4297"
       sodipodi:nodetypes="cscscccscccc" />
    <path
       style="fill:url(#radialGradient4293);fill-opacity:1;stroke:none;display:inline;filter:url(#filter3848)"
       d="M 264.65997,234.13862 C 359.61431,139.18428 385.87827,112.92031 412.14224,-6.2776824 445.3553,-157.01382 492.95445,-107.29294 547.50268,-248.7143 c 24.24366,163.644718 0,169.705628 20.20305,240.4163076 C 587.90878,62.412688 519.21841,165.44825 626.29458,236.15892"
       id="path3784"
       sodipodi:nodetypes="cscss"
       transform="matrix(0.24245204,-0.03642189,0.02808876,0.34623208,-26.056932,579.74286)" />
    <path
       sodipodi:nodetypes="cccccscccc"
       id="path4477"
       d="m 85.944943,557.4557 c -11.808219,-5.83152 -49.387129,-58.74622 -63.687744,-84.21911 16.73263,77.84151 3.889678,49.85718 -16.2735284,36.2612 25.3008614,29.12253 18.5293884,46.17594 18.3849524,47.78669 -0.962842,16.7789 -19.7050901,-26.75944 -33.3360983,-55.12907 1.610969,23.08601 7.2310736,39.24003 4.434703,41.39123 -3.969584,3.05375 -25.2475277,-19.53987 -31.6626697,-24.42889 11.643231,15.51024 23.037218,26.15195 30.1363988,38.01671 -4.7794428,4.70762 5.29709472,-4.95124 -45.7407108,4.27287 23.373699,7.06531 56.617588,36.87731 75.105276,60.40109"
       style="fill:url(#radialGradient4479);fill-opacity:1;stroke:none;display:inline" />
    <path
       sodipodi:nodetypes="cscss"
       id="path4256"
       d="M 264.65997,234.13862 C 359.61431,139.18428 385.87827,112.92031 412.14224,-6.2776824 445.3553,-157.01382 492.95445,-107.29294 547.50268,-248.7143 c 24.24366,163.644718 0,169.705628 20.20305,240.4163076 C 587.90878,62.412688 519.21841,165.44825 626.29458,236.15892"
       style="opacity:0.5;fill:url(#radialGradient3748);fill-opacity:1;stroke:none;display:inline;filter:url(#filter3848)"
       transform="matrix(0.17093098,-0.01502474,-0.01200239,0.27864648,39.073469,558.09085)" />
    <path
       transform="matrix(-0.33239354,0.11898953,0.10067092,0.448301,197.58408,436.58978)"
       sodipodi:nodetypes="cccccccccc"
       id="path4425"
       d="m 322.24015,187.05803 c 18.64324,-23.72564 -3.83582,-174.216106 -1.7869,-234.803892 52.00218,105.40727 95.3122,111.707325 126.94486,144.003121 10.78029,-33.539922 -28.29794,-117.686984 0.36896,-183.667119 17.27836,69.453513 43.23082,88.8224276 53.40671,61.668429 5.20135,40.645148 -1.47567,64.142991 7.51374,93.181087 19.47195,-41.384968 23.5891,-62.0616458 24.24535,-93.880405 12.88173,34.9726749 -3.77237,91.792283 2.50494,114.558386 19.40593,3.23231 41.09256,-35.496946 41.42928,-35.833664 -1.76716,62.309257 -60.33088,74.210737 -54.73986,136.797567"
       style="opacity:0.82916667;fill:#e43500;fill-opacity:0.54807691;stroke:none;display:inline;filter:url(#filter4576)" />
    <path
       sodipodi:nodetypes="cscss"
       id="path3832"
       d="m 163.64472,222.01679 c 94.95434,-94.95434 88.32012,-156.201619 114.58409,-275.399612 33.21306,-150.736138 19.81049,-100.075058 51.46161,-249.715848 36.22573,100.27853 104.08789,145.6433 124.29094,216.353979 20.20305,70.710679 -35.7782,240.071111 71.29797,310.781781"
       style="opacity:0.5;fill:url(#radialGradient3752);fill-opacity:1;stroke:none;display:inline;filter:url(#filter3844)"
       transform="matrix(0.1318964,-0.1405117,0.10592276,0.2009019,1.991932,604.51339)" />
  </g>
  <g
     inkscape:groupmode="layer"
     id="layer2"
     inkscape:label="TitlePage"
     style="display:inline"
     transform="translate(80.552545,-448.11639)">
    <path
       style="fill:url(#radialGradient3710);fill-opacity:1;stroke:#000000;stroke-width:3.1699636;stroke-linejoin:round;stroke-miterlimit:4;stroke-opacity:0.92990657;stroke-dasharray:none"
       d="M 154.96422,556.29532 40.111223,574.30097 C 34.3076,575.21102 27.71249,582.1434 25.330415,589.83892 l -26.5807091,85.86169 c -2.3820818,7.69551 0.37481332,13.16183 6.1784429,12.25178 L 129.68315,668.39666 c 5.80363,-0.91004 12.39874,-7.84243 14.78082,-15.53794 l 26.27126,-84.88204 -2.60959,2.05849 -4.53842,-8.74241 -18.17431,-0.45882 9.55131,-4.53862 z"
       id="path2923" />
    <path
       style="opacity:0.5;fill:url(#radialGradient3950);fill-opacity:1;stroke:none;display:inline"
       d="m 157.06858,575.60687 c -40.96095,6.10722 -81.63458,9.95246 -122.683085,16.80843 -5.529053,2.35812 -10.436465,14.90812 -13.251139,26.08588 -1.331831,4.53092 -2.783662,8.95261 -4.192061,13.41513 47.041477,-33.87392 93.283175,-41.8022 133.995755,-26.91984 1.50087,-6.26075 4.00525,-11.89108 5.74397,-18.03748 0.94052,-3.36262 2.35476,-7.61536 2.45269,-10.88584 -0.51866,-0.78988 -1.3406,-0.58087 -2.06613,-0.46628 z"
       id="path2923-8" />
    <path
       style="opacity:0.67886179;fill:url(#radialGradient4411);fill-opacity:1;stroke:none"
       d="m 161.55268,564.62371 c -40.63739,6.51387 -81.302608,12.21914 -121.930995,19.48391 -5.671828,3.12523 -8.144188,10.81014 -9.618817,17.20953 -7.944464,25.88507 -16.406254,51.66458 -23.6645102,77.6701 0.3987909,2.1926 2.7646488,1.41344 4.2331792,0.99101 39.631953,-6.25082 79.262802,-12.0912 118.905273,-18.87349 5.41897,-2.23768 8.30704,-9.25239 9.71051,-15.21135 7.85514,-26.433 16.67666,-52.65441 24.10162,-79.16956 0.22934,-1.34869 -0.36347,-2.77313 -1.73626,-2.10015 z"
       id="path4375" />
    <g
       id="g4592"
       transform="matrix(0.42878886,-0.02520116,0.02034073,0.5002304,-96.653083,371.53707)">
      <rect
         transform="matrix(0.99299646,-0.11814415,-0.34821138,0.93741604,0,0)"
         ry="5.0756483"
         y="568.55859"
         x="497.68896"
         height="142.11803"
         width="71.56926"
         id="rect3733"
         style="opacity:0.71951222;fill:#e8e8e8;fill-opacity:1;stroke:#797979;stroke-width:1.22610521;stroke-opacity:0.46354167" />
      <path
         sodipodi:nodetypes="cc"
         id="path3735"
         d="m 314.59357,488.63435 c 0,0 -21.99101,65.73465 -33.00268,97.39672"
         style="fill:#ffffff;fill-opacity:1;stroke:#797979;stroke-width:2;stroke-linecap:butt;stroke-linejoin:miter;stroke-miterlimit:4;stroke-opacity:0.46354167;stroke-dasharray:none" />
      <path
         sodipodi:nodetypes="cc"
         id="path3735-7"
         d="m 330.81837,487.36447 c 0,0 -21.99101,65.73465 -33.00268,97.39672"
         style="fill:#ffffff;fill-opacity:1;stroke:#797979;stroke-width:2;stroke-linecap:butt;stroke-linejoin:miter;stroke-miterlimit:4;stroke-opacity:0.46354167;stroke-dasharray:none" />
    </g>
    <path
       style="fill:#000000;fill-opacity:1;stroke:none;display:inline;filter:url(#filter4255)"
       d="m 640.71875,344.28125 c -12.32543,1.93673 -25.65926,3.95136 -38.03125,3.9375 -42.11354,5.37038 -157.78314,22.56484 -202.0625,29.875 13.97557,6.92422 80.61237,-0.52691 74.15625,20 17.45822,-16.75441 54.57238,-16.35331 61.8125,-22.34375 -5.60257,17.10475 2.68343,20.48394 -2.18571,34.72999 29.94457,-9.58329 31.01234,-36.22425 38.96696,-38.91749 0.78878,6.7916 20.97087,14.77774 10.09375,30.59375 26.18409,-11.30226 32.5067,4.06755 58.375,-14.3125 -8.43132,7.48277 2.4249,39.26121 18.16185,38.64516 l 16.0569,-47.11391 -5.1875,3.375 -13.75,-22.03125 -55.0625,-1.15625 38.65625,-15.28125 z"
       id="path4435"
       sodipodi:nodetypes="ccccccccccccccc"
       transform="matrix(0.33006697,0,0,0.39681889,-53.308045,418.15273)" />
    <text
       xml:space="preserve"
       style="font-size:28.19090271px;font-style:normal;font-variant:normal;font-weight:bold;font-stretch:normal;text-align:start;line-height:125%;writing-mode:lr-tb;text-anchor:start;fill:#efa551;fill-opacity:1;stroke:none;font-family:Arial;-inkscape-font-specification:Arial Bold"
       x="688.39691"
       y="-184.24889"
       id="text4597"
       transform="matrix(-0.24123342,0.90202531,-1.1284404,0.07412659,0,0)"
       sodipodi:linespacing="125%"><tspan
         sodipodi:role="line"
         id="tspan4599"
         x="688.39691"
         y="-184.24889">HOT</tspan></text>
    <g
       id="g4207"
       transform="matrix(0.15528454,0.00523503,-0.02762015,0.22847605,39.853562,520.19303)"
       style="opacity:0.3;filter:url(#filter4224)">
      <g
         id="g4202">
        <g
           inkscape:label="Ebene 1"
           id="g4196"
           transform="matrix(-0.17554014,0.66426367,-0.87320565,0.11306795,1022.1796,158.13898)"
           style="fill:none;stroke:#ffffff;stroke-opacity:1;display:inline">
          <g
             id="g4198"
             clip-path="url(#clp1)"
             transform="translate(87.4955,149.55288)"
             style="fill:none;stroke:#ffffff;stroke-opacity:1">
            <path
               id="path4200"
               d="m 168.99984,274.74264 c 0,0 -5.08361,-0.16132 -10.46875,2.53125 -5.38514,2.69257 -11.53125,10.13542 -11.53125,19.46875 l 0,184.9375 c 0,0 -0.13007,5.08361 2.5625,10.46875 2.69257,5.38514 10.10417,11.53125 19.4375,11.53125 l 177.53125,0 c 0,0 5.08361,0.13007 10.46875,-2.5625 5.38514,-2.69257 11.53125,-10.10417 11.53125,-19.4375 l 0,-184.9375 c 0,0 0.13007,-5.08361 -2.5625,-10.46875 -2.69257,-5.38514 -10.10417,-11.53125 -19.4375,-11.53125 l -177.53125,0 z m 0,20 177.53125,0 c 2.66667,0 1.25507,-0.14611 1.5625,0.46875 0.30743,0.61486 0.4375,1.53125 0.4375,1.53125 l 0,82.8125 -19,0 c -4.61622,-36.52407 -34.89255,-65.1875 -71.75,-65.1875 -20.03275,0 -38.26434,8.49066 -51.3125,22.0625 l 14.40625,13.875 c 9.52584,-9.90816 22.495,-15.9375 36.90625,-15.9375 28.82328,0 52.375,24.24179 52.375,54.875 0,30.63321 -23.55172,54.875 -52.375,54.875 -14.41242,0 -27.38045,-6.02854 -36.90625,-15.9375 l -14.40625,13.875 c 13.0482,13.57304 31.27892,22.0625 51.3125,22.0625 36.65783,0 66.82022,-28.32175 71.6875,-64.5625 l 19.0625,0 0,82.125 c 0,2.66667 0.14611,1.25507 -0.46875,1.5625 -0.61486,0.30743 -1.53125,0.4375 -1.53125,0.4375 l -177.53125,0 c -2.66667,0 -1.25507,0.14611 -1.5625,-0.46875 -0.30743,-0.61486 -0.4375,-1.53125 -0.4375,-1.53125 l 0,-79.28125 58.3125,0 c 5.10355,13.25814 17.61783,22.875 32.4375,22.875 19.41902,0 34.90625,-16.52555 34.90625,-36.09375 0,-19.5682 -15.48723,-36.0625 -34.90625,-36.0625 -17.12141,0 -31.16142,12.83519 -34.25,29.28125 l -56.5,0 0,-85.65625 c 0,-2.66667 -0.14611,-1.25507 0.46875,-1.5625 0.61486,-0.30743 1.53125,-0.4375 1.53125,-0.4375 z m 88.75,78.375 c 8.10298,0 14.90625,6.8187 14.90625,16.0625 0,9.2438 -6.80327,16.09375 -14.90625,16.09375 -8.10254,0 -14.90625,-6.84859 -14.90625,-16.09375 0,-9.24562 6.80327,-16.0625 14.90625,-16.0625 z"
               style="font-size:medium;font-style:normal;font-variant:normal;font-weight:normal;font-stretch:normal;text-indent:0;text-align:start;text-decoration:none;line-height:normal;letter-spacing:normal;word-spacing:normal;text-transform:none;direction:ltr;block-progression:tb;writing-mode:lr-tb;text-anchor:start;color:#000000;fill:none;stroke:#ffffff;stroke-width:1.33607864;stroke-miterlimit:4;stroke-opacity:1;stroke-dasharray:none;marker:none;visibility:visible;display:inline;overflow:visible;enable-background:accumulate;font-family:Bitstream Vera Sans;-inkscape-font-specification:Bitstream Vera Sans" />
          </g>
        </g>
      </g>
      <g
         inkscape:label="Ebene 1"
         id="layer1-4"
         transform="matrix(-0.17554014,0.66426367,-0.87320565,0.11306795,1020.0367,155.99612)"
         style="display:inline">
        <g
           id="g3293"
           clip-path="url(#clp1)"
           transform="translate(87.4955,149.55288)"
           style="fill:none">
          <path
             id="path3301"
             d="m 168.99984,274.74264 c 0,0 -5.08361,-0.16132 -10.46875,2.53125 -5.38514,2.69257 -11.53125,10.13542 -11.53125,19.46875 l 0,184.9375 c 0,0 -0.13007,5.08361 2.5625,10.46875 2.69257,5.38514 10.10417,11.53125 19.4375,11.53125 l 177.53125,0 c 0,0 5.08361,0.13007 10.46875,-2.5625 5.38514,-2.69257 11.53125,-10.10417 11.53125,-19.4375 l 0,-184.9375 c 0,0 0.13007,-5.08361 -2.5625,-10.46875 -2.69257,-5.38514 -10.10417,-11.53125 -19.4375,-11.53125 l -177.53125,0 z m 0,20 177.53125,0 c 2.66667,0 1.25507,-0.14611 1.5625,0.46875 0.30743,0.61486 0.4375,1.53125 0.4375,1.53125 l 0,82.8125 -19,0 c -4.61622,-36.52407 -34.89255,-65.1875 -71.75,-65.1875 -20.03275,0 -38.26434,8.49066 -51.3125,22.0625 l 14.40625,13.875 c 9.52584,-9.90816 22.495,-15.9375 36.90625,-15.9375 28.82328,0 52.375,24.24179 52.375,54.875 0,30.63321 -23.55172,54.875 -52.375,54.875 -14.41242,0 -27.38045,-6.02854 -36.90625,-15.9375 l -14.40625,13.875 c 13.0482,13.57304 31.27892,22.0625 51.3125,22.0625 36.65783,0 66.82022,-28.32175 71.6875,-64.5625 l 19.0625,0 0,82.125 c 0,2.66667 0.14611,1.25507 -0.46875,1.5625 -0.61486,0.30743 -1.53125,0.4375 -1.53125,0.4375 l -177.53125,0 c -2.66667,0 -1.25507,0.14611 -1.5625,-0.46875 -0.30743,-0.61486 -0.4375,-1.53125 -0.4375,-1.53125 l 0,-79.28125 58.3125,0 c 5.10355,13.25814 17.61783,22.875 32.4375,22.875 19.41902,0 34.90625,-16.52555 34.90625,-36.09375 0,-19.5682 -15.48723,-36.0625 -34.90625,-36.0625 -17.12141,0 -31.16142,12.83519 -34.25,29.28125 l -56.5,0 0,-85.65625 c 0,-2.66667 -0.14611,-1.25507 0.46875,-1.5625 0.61486,-0.30743 1.53125,-0.4375 1.53125,-0.4375 z m 88.75,78.375 c 8.10298,0 14.90625,6.8187 14.90625,16.0625 0,9.2438 -6.80327,16.09375 -14.90625,16.09375 -8.10254,0 -14.90625,-6.84859 -14.90625,-16.09375 0,-9.24562 6.80327,-16.0625 14.90625,-16.0625 z"
             style="font-size:medium;font-style:normal;font-variant:normal;font-weight:normal;font-stretch:normal;text-indent:0;text-align:start;text-decoration:none;line-height:normal;letter-spacing:normal;word-spacing:normal;text-transform:none;direction:ltr;block-progression:tb;writing-mode:lr-tb;text-anchor:start;color:#000000;fill:none;stroke:#000000;stroke-width:1.33607864;stroke-miterlimit:4;stroke-opacity:1;stroke-dasharray:none;marker:none;visibility:visible;display:inline;overflow:visible;enable-background:accumulate;font-family:Bitstream Vera Sans;-inkscape-font-specification:Bitstream Vera Sans" />
        </g>
      </g>
    </g>
  </g>
</svg>
