<?xml version="1.0" encoding="UTF-8" standalone="no"?>
<!-- Created with Inkscape (http://www.inkscape.org/) -->

<svg
   xmlns:dc="http://purl.org/dc/elements/1.1/"
   xmlns:cc="http://creativecommons.org/ns#"
   xmlns:rdf="http://www.w3.org/1999/02/22-rdf-syntax-ns#"
   xmlns:svg="http://www.w3.org/2000/svg"
   xmlns="http://www.w3.org/2000/svg"
   xmlns:xlink="http://www.w3.org/1999/xlink"
   xmlns:sodipodi="http://sodipodi.sourceforge.net/DTD/sodipodi-0.dtd"
   xmlns:inkscape="http://www.inkscape.org/namespaces/inkscape"
   width="256"
   height="256"
   id="svg2"
   version="1.1"
   inkscape:version="0.48.2 r9819"
   sodipodi:docname="NoteAttached.svg">
  <defs
     id="defs4">
    <linearGradient
       id="linearGradient3858">
      <stop
         style="stop-color:#ffffff;stop-opacity:0;"
         offset="0"
         id="stop3860" />
      <stop
         id="stop3866"
         offset="0.5"
         style="stop-color:#ffffff;stop-opacity:0;" />
      <stop
         style="stop-color:#ffffff;stop-opacity:1;"
         offset="1"
         id="stop3862" />
    </linearGradient>
    <linearGradient
       id="linearGradient3839">
      <stop
         style="stop-color:#464646;stop-opacity:1;"
         offset="0"
         id="stop3841" />
      <stop
         id="stop3847"
         offset="0.14863034"
         style="stop-color:#2b2b2b;stop-opacity:1;" />
      <stop
         style="stop-color:#000000;stop-opacity:1;"
         offset="0.38652259"
         id="stop3849" />
      <stop
         style="stop-color:#3a3a3a;stop-opacity:1;"
         offset="1"
         id="stop3843" />
    </linearGradient>
    <linearGradient
       id="linearGradient4566">
      <stop
         style="stop-color:#ffffff;stop-opacity:1;"
         offset="0"
         id="stop4568" />
      <stop
         id="stop4574"
         offset="0.5"
         style="stop-color:#ffffff;stop-opacity:1;" />
      <stop
         style="stop-color:#ffffff;stop-opacity:0;"
         offset="1"
         id="stop4570" />
    </linearGradient>
    <linearGradient
       inkscape:collect="always"
       id="linearGradient4546">
      <stop
         style="stop-color:#ffffff;stop-opacity:1;"
         offset="0"
         id="stop4548" />
      <stop
         style="stop-color:#ffffff;stop-opacity:0;"
         offset="1"
         id="stop4550" />
    </linearGradient>
    <linearGradient
       inkscape:collect="always"
       id="linearGradient4529">
      <stop
         style="stop-color:#ffffff;stop-opacity:1;"
         offset="0"
         id="stop4531" />
      <stop
         style="stop-color:#ffffff;stop-opacity:0;"
         offset="1"
         id="stop4533" />
    </linearGradient>
    <linearGradient
       id="linearGradient3801">
      <stop
         style="stop-color:#f5df9b;stop-opacity:1;"
         offset="0"
         id="stop3803" />
      <stop
         id="stop3813"
         offset="0.33684009"
         style="stop-color:#d7c555;stop-opacity:1;" />
      <stop
         id="stop3809"
         offset="0.69454825"
         style="stop-color:#9c9c00;stop-opacity:1;" />
      <stop
         style="stop-color:#adad00;stop-opacity:1;"
         offset="0.86675179"
         id="stop3811" />
      <stop
         style="stop-color:#c1de00;stop-opacity:1;"
         offset="1"
         id="stop3805" />
    </linearGradient>
    <linearGradient
       id="linearGradient3661">
      <stop
         style="stop-color:#000000;stop-opacity:1;"
         offset="0"
         id="stop3663" />
      <stop
         id="stop3699"
         offset="0.5"
         style="stop-color:#71b67c;stop-opacity:1;" />
      <stop
         style="stop-color:#ffffff;stop-opacity:1;"
         offset="1"
         id="stop3665" />
    </linearGradient>
    <inkscape:perspective
       sodipodi:type="inkscape:persp3d"
       inkscape:vp_x="0 : 526.18109 : 1"
       inkscape:vp_y="0 : 1000 : 0"
       inkscape:vp_z="744.09448 : 526.18109 : 1"
       inkscape:persp3d-origin="372.04724 : 350.78739 : 1"
       id="perspective10" />
    <linearGradient
       inkscape:collect="always"
       xlink:href="#linearGradient3661"
       id="linearGradient3689"
       x1="194.65901"
       y1="819.83185"
       x2="291.2243"
       y2="952.97577"
       gradientUnits="userSpaceOnUse"
       gradientTransform="matrix(0.80117707,0,0,0.50736034,-43.692033,511.73016)" />
    <linearGradient
       inkscape:collect="always"
       xlink:href="#linearGradient3661"
       id="linearGradient3697"
       x1="311.42737"
       y1="748.22217"
       x2="174.45598"
       y2="619.71649"
       gradientUnits="userSpaceOnUse"
       gradientTransform="matrix(0.85436898,0,0,0.56214685,-57.42726,468.07655)" />
    <linearGradient
       inkscape:collect="always"
       xlink:href="#linearGradient3661"
       id="linearGradient3748"
       gradientUnits="userSpaceOnUse"
       gradientTransform="matrix(0.85436898,0,0,0.56214685,-57.42726,468.07655)"
       x1="311.42737"
       y1="748.22217"
       x2="174.45598"
       y2="619.71649" />
    <linearGradient
       inkscape:collect="always"
       xlink:href="#linearGradient3661"
       id="linearGradient3750"
       gradientUnits="userSpaceOnUse"
       gradientTransform="matrix(0.80117707,0,0,0.50736034,-43.692033,511.73016)"
       x1="194.65901"
       y1="819.83185"
       x2="291.2243"
       y2="952.97577" />
    <linearGradient
       inkscape:collect="always"
       xlink:href="#linearGradient3661"
       id="linearGradient3762"
       gradientUnits="userSpaceOnUse"
       gradientTransform="matrix(0.85436898,0,0,0.56214685,-57.42726,468.07655)"
       x1="311.42737"
       y1="748.22217"
       x2="174.45598"
       y2="619.71649" />
    <linearGradient
       inkscape:collect="always"
       xlink:href="#linearGradient3661"
       id="linearGradient3764"
       gradientUnits="userSpaceOnUse"
       gradientTransform="matrix(0.80117707,0,0,0.50736034,-43.692033,511.73016)"
       x1="194.65901"
       y1="819.83185"
       x2="291.2243"
       y2="952.97577" />
    <linearGradient
       inkscape:collect="always"
       xlink:href="#linearGradient3661"
       id="linearGradient2841"
       gradientUnits="userSpaceOnUse"
       gradientTransform="matrix(0.69611693,0,0,0.45802218,-36.849772,552.05261)"
       x1="311.42737"
       y1="748.22217"
       x2="174.45598"
       y2="619.71649" />
    <linearGradient
       inkscape:collect="always"
       xlink:href="#linearGradient3661"
       id="linearGradient2843"
       gradientUnits="userSpaceOnUse"
       gradientTransform="matrix(0.67186291,0,0,0.42546974,-30.295297,577.99025)"
       x1="194.65901"
       y1="819.83185"
       x2="291.2243"
       y2="952.97577" />
    <linearGradient
       inkscape:collect="always"
       xlink:href="#linearGradient3661"
       id="linearGradient2879"
       gradientUnits="userSpaceOnUse"
       gradientTransform="matrix(1.022621,0,0,0.27906342,-129.62416,691.9663)"
       x1="194.65901"
       y1="819.83185"
       x2="291.2243"
       y2="952.97577" />
    <linearGradient
       inkscape:collect="always"
       xlink:href="#linearGradient3661"
       id="linearGradient2882"
       gradientUnits="userSpaceOnUse"
       gradientTransform="matrix(0.87847454,0,0,0.30496621,-94.009188,671.86385)"
       x1="311.42737"
       y1="748.22217"
       x2="174.45598"
       y2="619.71649" />
    <linearGradient
       inkscape:collect="always"
       xlink:href="#linearGradient3661"
       id="linearGradient2885"
       gradientUnits="userSpaceOnUse"
       gradientTransform="matrix(0.36458174,0,0,0.09949085,30.633679,835.40234)"
       x1="194.65901"
       y1="819.83185"
       x2="291.2243"
       y2="952.97577" />
    <linearGradient
       inkscape:collect="always"
       xlink:href="#linearGradient3661"
       id="linearGradient2888"
       gradientUnits="userSpaceOnUse"
       gradientTransform="matrix(0.29948496,0,0,0.10396749,46.651512,832.01835)"
       x1="311.42737"
       y1="748.22217"
       x2="174.45598"
       y2="619.71649" />
    <inkscape:perspective
       id="perspective3015"
       inkscape:persp3d-origin="0.5 : 0.33333333 : 1"
       inkscape:vp_z="1 : 0.5 : 1"
       inkscape:vp_y="0 : 1000 : 0"
       inkscape:vp_x="0 : 0.5 : 1"
       sodipodi:type="inkscape:persp3d" />
    <linearGradient
       id="linearGradient3272">
      <stop
         id="stop3274"
         offset="0"
         style="stop-color:#ffffff;stop-opacity:1;" />
      <stop
         style="stop-color:#bbd5c1;stop-opacity:1;"
         offset="0.5884158"
         id="stop3276" />
      <stop
         id="stop3278"
         offset="1"
         style="stop-color:#71c351;stop-opacity:1;" />
    </linearGradient>
    <radialGradient
       inkscape:collect="always"
       xlink:href="#linearGradient3166"
       id="radialGradient4127"
       gradientUnits="userSpaceOnUse"
       gradientTransform="matrix(0.27530059,0.61658755,-1.4886958,1.057079,622.15641,-200.51661)"
       cx="218.02811"
       cy="281.93231"
       fx="218.02811"
       fy="281.93231"
       r="144.23438" />
    <linearGradient
       id="linearGradient3166">
      <stop
         style="stop-color:#d5e9ff;stop-opacity:1;"
         offset="0"
         id="stop3168" />
      <stop
         id="stop3174"
         offset="0.24137931"
         style="stop-color:#879cb4;stop-opacity:1;" />
      <stop
         style="stop-color:#25256a;stop-opacity:1;"
         offset="1"
         id="stop3170" />
    </linearGradient>
    <linearGradient
       inkscape:collect="always"
       xlink:href="#linearGradient3801"
       id="linearGradient3807"
       x1="137.35715"
       y1="27.071426"
       x2="104.78571"
       y2="234.21426"
       gradientUnits="userSpaceOnUse"
       gradientTransform="matrix(1.2288389,0,0,0.95080183,-26.3847,781.27427)" />
    <radialGradient
       inkscape:collect="always"
       xlink:href="#linearGradient4529"
       id="radialGradient4535"
       cx="110.57787"
       cy="55.870052"
       fx="110.57787"
       fy="55.870052"
       r="20.133097"
       gradientTransform="matrix(2.1665392,0.21323835,-0.02347107,0.23847023,-127.68209,2.1386701)"
       gradientUnits="userSpaceOnUse" />
    <radialGradient
       inkscape:collect="always"
       xlink:href="#linearGradient4546"
       id="radialGradient4552"
       cx="131.02431"
       cy="836.12347"
       fx="131.02431"
       fy="836.12347"
       r="29.135155"
       gradientTransform="matrix(3.2520846,0.52487005,-0.05416048,0.33557722,-253.84313,488.21503)"
       gradientUnits="userSpaceOnUse" />
    <radialGradient
       inkscape:collect="always"
       xlink:href="#linearGradient4566"
       id="radialGradient4572"
       cx="123.16196"
       cy="884.64935"
       fx="123.16196"
       fy="884.64935"
       r="27.392666"
       gradientTransform="matrix(5.1483657,0.6278289,-0.0552339,0.45293281,-461.07846,385.0447)"
       gradientUnits="userSpaceOnUse" />
    <radialGradient
       inkscape:collect="always"
       xlink:href="#linearGradient4566"
       id="radialGradient4580"
       gradientUnits="userSpaceOnUse"
       gradientTransform="matrix(5.1483657,0.6278289,-0.0552339,0.45293281,-461.07846,385.0447)"
       cx="123.16196"
       cy="884.64935"
       fx="123.16196"
       fy="884.64935"
       r="27.392666" />
    <filter
       inkscape:collect="always"
       id="filter4590">
      <feGaussianBlur
         inkscape:collect="always"
         stdDeviation="3.2480798"
         id="feGaussianBlur4592" />
    </filter>
    <radialGradient
       inkscape:collect="always"
       xlink:href="#linearGradient4566"
       id="radialGradient4595"
       gradientUnits="userSpaceOnUse"
       gradientTransform="matrix(5.4477168,3.5825427,-0.38942226,0.38789476,-147.86147,60.851831)"
       cx="123.16196"
       cy="884.64935"
       fx="123.16196"
       fy="884.64935"
       r="27.392666" />
    <filter
       inkscape:collect="always"
       id="filter3832">
      <feGaussianBlur
         inkscape:collect="always"
         stdDeviation="0.93894212"
         id="feGaussianBlur3834" />
    </filter>
    <linearGradient
       inkscape:collect="always"
       xlink:href="#linearGradient3839"
       id="linearGradient3845"
       x1="125.20643"
       y1="174.11975"
       x2="141.53156"
       y2="28.657791"
       gradientUnits="userSpaceOnUse" />
    <linearGradient
       inkscape:collect="always"
       xlink:href="#linearGradient3801"
       id="linearGradient3855"
       gradientUnits="userSpaceOnUse"
       gradientTransform="matrix(1.2288389,0,0,0.95080183,-26.3847,-15.08791)"
       x1="137.35715"
       y1="27.071426"
       x2="104.78571"
       y2="234.21426" />
    <radialGradient
       inkscape:collect="always"
       xlink:href="#linearGradient3858"
       id="radialGradient3864"
       cx="149.75314"
       cy="957.19922"
       fx="149.75314"
       fy="957.19922"
       r="56.125"
       gradientTransform="matrix(-1.8170683,0.83045681,-0.41398841,-0.90582073,849.73418,1707.1278)"
       gradientUnits="userSpaceOnUse" />
  </defs>
  <sodipodi:namedview
     id="base"
     pagecolor="#ffffff"
     bordercolor="#666666"
     borderopacity="1.0"
     inkscape:pageopacity="0.0"
     inkscape:pageshadow="2"
     inkscape:zoom="0.98994949"
     inkscape:cx="335.24449"
     inkscape:cy="36.240289"
     inkscape:document-units="px"
     inkscape:current-layer="layer1"
     showgrid="false"
     inkscape:window-width="1920"
     inkscape:window-height="1009"
     inkscape:window-x="-9"
     inkscape:window-y="-9"
     inkscape:window-maximized="1"
     showguides="true"
     inkscape:guide-bbox="true" />
  <metadata
     id="metadata7">
    <rdf:RDF>
      <cc:Work
         rdf:about="">
        <dc:format>image/svg+xml</dc:format>
        <dc:type
           rdf:resource="http://purl.org/dc/dcmitype/StillImage" />
        <dc:title />
      </cc:Work>
    </rdf:RDF>
  </metadata>
  <g
     inkscape:groupmode="layer"
     id="layer2"
     inkscape:label="Bkg"
     style="display:inline"
     transform="translate(0,-256)" />
  <g
     inkscape:label="Layer 1"
     inkscape:groupmode="layer"
     id="layer1"
     transform="translate(0,-796.36218)"
     style="display:inline">
    <path
       sodipodi:nodetypes="ccccc"
       inkscape:connector-curvature="0"
       id="path4582"
       d="m 24.924979,801.92252 168.323151,7.58833 c -7.89652,75.06034 3.19754,226.14695 -1.08426,237.20945 C 137.87333,1028.1872 78.21304,1011.608 4.968601,997.56854 31.207299,941.14869 25.780365,878.94857 24.924979,801.92252 z"
       style="opacity:0.5;fill:#000000;fill-opacity:1;stroke:none;filter:url(#filter4590)"
       transform="matrix(1.2723685,0,0,0.98448238,2.5347144,14.343266)" />
    <path
       style="fill:url(#linearGradient3807);fill-opacity:1;stroke:#000000;stroke-width:10;stroke-miterlimit:4;stroke-dasharray:none"
       d="m 31.790795,801.92025 214.169065,7.47059 c -13.4587,67.23526 23.36364,147.33957 -38.62064,211.89296 L 8.9694993,997.51372 C 42.354793,941.9694 32.879161,877.75104 31.790795,801.92025 z"
       id="rect3030"
       inkscape:connector-curvature="0"
       sodipodi:nodetypes="ccccc" />
    <path
       style="font-size:40px;font-style:normal;font-weight:normal;line-height:125%;letter-spacing:0px;word-spacing:0px;opacity:0.6;fill:url(#linearGradient3845);fill-opacity:1;stroke:none;font-family:Sans"
       d="M 64.125 27.34375 C 63.4702 27.41625 62.941046 27.76753 63.0625 28.40625 C 62.69156 29.75979 60.548237 29.88131 59.21875 29.15625 C 56.591767 28.64332 53.468107 30.18424 53.96875 32.40625 C 53.13952 34.18792 54.658744 37.27452 57.6875 36.75 C 60.198017 36.43275 62.982816 37.5435 65.34375 36.84375 C 66.540249 35.64189 68.604137 37.28554 68.59375 38.5 C 68.56952 41.013 73.307084 40.25487 73.40625 38.28125 C 74.697159 37.19915 76.544247 38.74284 78 38.0625 C 79.579959 37.9793 81.265648 38.80429 82.6875 38.09375 C 84.999577 38.03515 87.273398 39.65319 89.53125 38.8125 C 91.535392 37.90771 90.036009 35.52422 90.46875 34.03125 C 90.38472 32.47108 90.690943 30.61797 90.34375 29.1875 C 89.17684 28.85389 87.187234 29.04941 87.65625 30.375 C 86.557366 31.61006 84.278481 31.28801 82.625 31.71875 C 80.426011 31.63475 78.392619 29.79605 76.25 30.6875 C 75.333579 31.35252 73.159284 31.22645 73.53125 29.90625 C 73.654594 29.17815 73.650903 27.5909 72.1875 27.6875 C 70.315678 27.81194 71.001783 30.39589 68.875 29.9375 C 67.210633 30.40885 65.762904 29.3031 65.90625 28.03125 C 65.567146 27.50372 64.7798 27.2712 64.125 27.34375 z M 97.125 29.65625 C 94.686346 29.70755 95.314717 32.28792 95.375 33.59375 C 95.489335 35.53176 94.670666 37.86577 95.75 39.59375 C 97.132441 39.75287 98.280853 39.00894 99.21875 38.375 C 99.84184 39.65073 102.76382 40.61366 103.65625 39.34375 C 102.75487 37.90233 100.11637 36.41043 100.9375 34.78125 C 101.83091 34.05089 103.84495 33.35893 104.09375 32.53125 C 102.13643 32.19031 100.25184 32.57845 98.28125 32.40625 C 98.531538 31.6472 98.818687 29.65017 97.125 29.65625 z M 108.71875 30.46875 C 106.47026 30.96647 107.38187 33.39341 107.28125 34.78125 C 107.37165 36.62582 106.77576 38.72586 107.5625 40.4375 C 109.08976 40.80025 110.38445 39.33504 111.40625 39.53125 C 112.63005 41.26109 115.35594 40.47324 117.1875 40.78125 C 118.95766 41.33872 122.29062 42.02941 122.84375 40.1875 C 123.03112 37.54273 122.83475 34.86685 122.90625 32.21875 C 123.1655 31.14165 120.95427 31.26592 120.25 31.6875 C 120.64385 33.40978 118.02369 33.94887 116.28125 33.4375 C 114.02627 33.03385 111.80479 33.25303 109.78125 33.96875 C 110.40628 32.96903 111.22385 30.47806 108.71875 30.46875 z M 137.75 32.59375 C 135.85631 32.5958 136.54443 35.740753 134 34.875 C 131.22655 33.45096 126.78144 35.03102 127.375 37.6875 C 126.54461 39.47141 128.07014 42.54951 131.09375 42.03125 C 133.60424 41.71399 136.38906 42.82475 138.75 42.125 C 139.90067 40.93963 141.98541 42.54546 142 43.75 C 141.76633 45.5848 145.04296 45.92213 146.09375 44.6875 C 146.61606 43.57869 148.01566 43.39173 149.4375 43.15625 C 150.54097 42.16509 152.75843 42.62977 153.15625 44 C 153.37091 44.82657 152.84253 45.88222 154.4375 46.125 C 156.20115 46.59648 157.2386 45.46164 158.0625 44.5625 C 159.10846 44.05386 160.53649 44.21069 161.40625 43.5 C 163.29246 42.98109 164.90325 44.79409 164.28125 46.0625 C 165.27114 47.71297 168.59905 47.04762 168.71875 45.375 C 169.52183 42.7339 168.41589 39.90472 169.21875 37.25 C 169.41468 36.35739 168.91182 34.09677 167.1875 34.75 C 165.78873 35.2712 166.45203 37.309 164.5 36.90625 C 162.97765 37.09005 161.36819 36.18933 161.53125 34.9375 C 160.78236 34.05234 159.16539 34.01627 158.125 34.4375 C 156.81377 32.93047 154.37694 34.57791 155.1875 35.96875 C 153.301 36.4345 150.1606 36.1392 150.375 34.09375 C 149.76244 33.32295 148.37014 33.16362 147.5 33.65625 C 146.99328 33.36822 146.45442 32.98955 145.8125 33 C 143.86875 32.88426 144.27785 35.35656 142.21875 35.25 C 140.73707 35.26 140.02922 36.37258 138.9375 36.9375 C 139.50612 35.6509 140.45353 33.43066 138.15625 32.625 C 138.00525 32.594961 137.87625 32.593613 137.75 32.59375 z M 175.125 35.34375 C 174.42616 35.41845 173.83687 35.82372 173.96875 36.5 C 173.75906 39.15165 173.92755 41.81577 173.8125 44.46875 C 173.7534 45.84892 175.85354 45.12914 176.625 44.75 C 178.46478 43.90691 180.12065 45.76804 179.65625 47.09375 C 179.90977 48.35328 182.49059 48.3839 183.375 47.59375 C 184.60214 47.27373 184.04829 45.179 185.5625 46.09375 C 187.06691 46.11665 188.78132 44.59216 190.1875 45.9375 C 191.39138 46.77185 189.86867 48.52564 191.84375 48.84375 C 193.7977 49.38365 195.23694 47.99198 195.59375 46.75 C 197.22122 45.65653 199.19709 47.31466 201.03125 47.1875 C 202.71156 47.48607 204.48794 46.64664 204.03125 45.1875 C 203.71701 42.59803 204.29016 39.98649 203.875 37.4375 C 203.03515 37.05607 200.62058 37.12532 201.25 38.375 C 200.48154 39.70065 198.06775 39.43653 196.65625 39.4375 C 195.04232 38.89964 196.01261 37.28223 194.96875 36.59375 C 193.08622 36.04659 192.90782 37.97984 191.78125 38.5 C 190.62528 38.91071 189.26025 38.80263 188.0625 39.15625 C 189.05943 37.96743 187.68719 35.63966 185.6875 36.15625 C 184.05395 37.47745 184.5064 35.55815 183.125 35.65625 C 181.29715 35.79577 181.97342 38.22515 180.0625 37.96875 C 178.57737 38.30457 176.63567 37.47852 176.90625 36.125 C 176.62599 35.50631 175.82384 35.26904 175.125 35.34375 z M 64.09375 42.1875 C 63.924073 42.175228 63.753905 42.191532 63.59375 42.21875 C 62.953132 42.32762 62.441791 42.73188 62.5625 43.375 C 62.124953 44.66939 60.072675 44.72207 58.78125 44.03125 C 56.154268 43.51828 53.030607 45.0592 53.53125 47.28125 C 52.700856 49.06517 54.195174 52.14324 57.21875 51.625 C 59.729268 51.30773 62.54532 52.41851 64.90625 51.71875 C 66.102749 50.51696 68.166635 52.16057 68.15625 53.375 C 67.923187 55.05075 70.881626 55.49763 72 54.40625 C 73.680691 52.99356 72.599653 50.61746 72.9375 48.8125 C 72.552608 46.81312 73.733872 44.66606 72.65625 42.75 C 72.488791 42.61757 72.257463 42.59043 72.03125 42.59375 C 70.093663 42.39344 70.508242 44.96395 68.4375 44.8125 C 66.876282 45.41111 65.236397 44.051 65.40625 42.84375 C 65.115623 42.448057 64.602782 42.224317 64.09375 42.1875 z M 79.125 43.3125 C 78.260688 43.434955 77.579251 44.171253 77.84375 45 C 77.87524 47.50358 77.74823 50.0683 77.75 52.53125 C 77.80022 53.88096 79.744476 53.01346 80.59375 52.75 C 82.303877 52.06619 84.222692 53.5919 83.59375 54.96875 C 83.720465 56.50492 86.918961 56.38328 87.65625 55.25 C 88.219138 54.47428 88.516469 53.34971 90.0625 53.59375 C 92.028188 54.08981 94.54635 55.00831 96.34375 53.96875 C 97.777354 52.65256 96.41156 50.54282 96.8125 48.9375 C 96.656213 47.51536 97.365619 45.8402 96.5625 44.53125 C 95.523964 44.34805 93.610816 44.36193 94.03125 45.5625 C 93.665183 46.78261 91.790136 46.40361 90.78125 46.75 C 90.304414 48.39251 88.637755 46.40201 88.53125 45.46875 C 88.341389 44.59084 88.430128 43.49038 86.8125 43.71875 C 85.46891 44.08678 85.659432 46.00856 83.8125 45.90625 C 81.975792 46.60139 80.771341 44.85994 80.53125 43.6875 C 80.207164 43.44064 79.84382 43.33494 79.5 43.3125 C 79.371068 43.304087 79.248473 43.295006 79.125 43.3125 z M 116.15625 45.96875 C 115.97461 45.960679 115.79688 45.96444 115.625 46 C 114.9375 46.14224 114.39646 46.61735 114.59375 47.3125 C 114.43126 49.86415 114.58875 52.51176 114.4375 55.03125 C 114.31256 55.99334 115.57472 56.13575 116.375 55.65625 C 117.68826 54.92256 120.19533 55.16094 120.3125 56.75 C 119.31501 59.50263 124.87313 59.12052 125.0625 56.9375 C 126.4068 55.93126 128.28679 57.31328 129.78125 56.6875 C 131.28456 56.6113 132.86508 57.46312 134.1875 56.71875 C 136.12879 56.56302 137.79308 57.96476 139.78125 57.53125 C 141.2331 57.26454 142.70024 57.92606 144.0625 57.90625 C 145.19154 57.33025 146.96224 56.80592 148.0625 57.90625 C 150.76264 58.77273 153.72208 58.14698 156.4375 58.625 C 157.98678 59.23443 156.26489 60.94457 158.1875 61.3125 C 160.27838 61.89605 161.64501 60.39607 162.09375 59.09375 C 163.171 57.8782 164.72843 59.60642 166.125 59.46875 C 168.16525 59.56245 170.29603 59.80416 172.28125 59.9375 C 173.45603 59.31255 175.12982 58.88155 176.28125 59.9375 C 178.96647 60.81478 181.95361 60.17037 184.65625 60.65625 C 186.20549 61.26567 184.4524 62.97582 186.375 63.34375 C 188.47567 63.93008 189.81321 62.41534 190.3125 61.125 C 191.51492 59.93431 193.29984 61.71034 194.8125 61.59375 C 196.57831 62.05596 198.76368 61.42352 198.5625 59.8125 C 198.5151 57.55393 198.38619 55.30669 198.53125 53.0625 C 198.64284 52.35541 198.4006 51.57154 197.25 51.78125 C 196.24983 51.61478 195.41808 52.1369 195.65625 52.96875 C 194.95434 54.17348 192.78541 53.82807 191.53125 54.09375 C 189.69792 53.80476 190.32748 52.1183 189.78125 51.25 C 188.14872 50.50803 186.91983 51.95764 186.75 53 C 185.35766 54.30117 183.33993 52.50872 181.59375 53.03125 C 179.5836 52.90058 177.58436 52.74495 175.625 52.78125 C 174.2026 52.59317 173.90708 51.38524 173.78125 50.53125 C 173.18494 49.75068 171.70185 49.77402 171.15625 50.5 C 170.30124 49.68296 167.68632 49.21495 167.53125 50.5 C 168.03218 52.01479 165.6381 51.80022 164.5 51.9375 C 163.82946 52.69559 161.64457 53.09854 161.65625 51.6875 C 162.04163 50.76973 162.39545 48.92653 160.4375 49 C 158.76116 49.3934 158.68423 51.02716 158.34375 52.15625 C 155.6029 50.42628 152.02233 51.13213 148.90625 50.71875 C 147.3485 51.18491 145.32031 50.0572 145.71875 48.71875 C 145.29999 47.82342 143.64072 47.59741 143 48.40625 C 142.07552 47.71908 139.5747 47.17592 139.34375 48.4375 C 139.41255 50.0153 136.94817 49.74062 135.65625 50.125 C 133.00222 51.14018 130.37371 48.18683 127.75 49.34375 C 126.84855 49.96698 124.73736 49.85134 125.0625 48.5625 C 125.28574 47.82851 125.23886 46.15325 123.71875 46.3125 C 121.90201 46.56648 122.59849 49.00043 120.40625 48.625 C 118.88899 48.91755 117.34031 47.92463 117.53125 46.6875 C 117.25 46.210238 116.70117 45.992962 116.15625 45.96875 z M 105.0625 47.4375 C 100.23586 47.4518 99.206627 54.01257 104.125 55.0625 C 105.53462 55.62506 106.91659 54.20573 107.90625 55.1875 C 108.95655 55.787 110.79495 55.06487 109.84375 54.03125 C 109.10907 52.04522 110.80436 49.4394 108.15625 48 C 107.21079 47.5725 106.10815 47.45705 105.0625 47.4375 z M 55.15625 56.40625 C 52.661664 56.70631 53.509197 59.29812 53.5625 60.71875 C 53.702171 62.56347 52.568906 64.78996 54 66.4375 C 55.644054 66.4091 57.277124 64.84813 58.71875 66.34375 C 61.573927 67.19682 64.683795 66.64621 67.625 67.21875 C 69.237677 67.34803 70.710714 66.65303 72.28125 67.375 C 74.060244 68.00891 76.075634 68.25838 77.59375 67.34375 C 79.595496 66.96263 81.275407 68.76124 83.375 68.53125 C 85.373035 68.90277 86.662969 67.5051 86.3125 66.0625 C 85.689837 63.59059 86.669597 61.14259 86.03125 58.71875 C 84.977987 58.56103 83.058226 58.36291 83.375 59.625 C 82.858349 60.98504 80.498042 60.74675 79.09375 60.9375 C 77.330792 60.59906 77.900144 58.86847 77.25 58.03125 C 75.9905 57.56868 73.993981 58.31642 75.09375 59.5 C 75.2354 60.81797 73.231876 60.15029 72.34375 60.09375 C 70.533405 60.99454 68.122408 60.57482 66.4375 59.53125 C 64.459982 59.30453 62.417614 59.72764 60.46875 59.125 C 58.992785 59.1402 57.570626 59.56566 56.09375 59.71875 C 56.557859 58.85203 57.125162 56.51483 55.15625 56.40625 z M 92.46875 59.09375 C 91.398112 59.15895 90.547416 59.98967 91.0625 60.9375 C 91.3614 63.60898 90.305247 66.55354 91.34375 69.03125 C 92.649912 69.45159 93.832665 68.28939 94.71875 68.46875 C 96.617669 70.14301 99.628355 69.09683 102 69.71875 C 103.02932 69.28477 104.39103 69.09714 105.4375 69.8125 C 107.51637 70.58035 109.87815 70.25741 111.6875 69.71875 C 113.46225 70.37516 115.3031 71.01059 117.25 70.75 C 118.70381 70.50443 120.23998 71.03475 121.59375 71.1875 C 124.13198 70.30747 122.63636 67.71236 123 66.03125 C 122.995 64.47838 123.30571 62.73235 122.8125 61.28125 C 121.46714 61.05999 119.53159 61.46809 120.125 62.8125 C 119.75277 64.1845 117.6049 62.67804 116.84375 63.71875 C 116.099 64.65077 114.2653 64.48155 113.90625 63.34375 C 112.96303 62.66551 111.61563 62.96899 110.53125 63 C 111.06985 62.21248 111.66534 60.16284 109.625 60.3125 C 108.39142 60.16468 107.73436 61.09543 108.40625 61.90625 C 108.49175 63.20777 106.53155 62.53462 105.625 62.5 C 103.81275 63.38712 101.41931 62.99855 99.6875 62 C 97.645147 61.49235 95.606831 62.13599 93.90625 62.875 C 93.482712 61.77746 94.59674 60.19799 93.5625 59.3125 C 93.201427 59.14641 92.825629 59.07201 92.46875 59.09375 z M 133.0625 62.125 C 131.57713 62.28654 132.14406 64.2281 132.125 65.09375 C 132.1414 67.35133 131.54056 69.8192 132.28125 71.96875 C 133.68214 72.40063 134.93096 71.1798 135.9375 71.3125 C 137.81319 72.70951 141.00341 72.83355 143.03125 72.09375 C 143.95616 70.39386 142.88611 68.31983 143.71875 66.59375 C 143.62475 65.26516 141.43999 64.47894 140.46875 65.59375 C 139.42992 66.03565 138.46096 65.18821 137.75 64.84375 C 136.06703 65.00103 134.44539 63.74625 134.9375 62.46875 C 134.77299 62.04116 133.7731 62.22688 133.375 62.125 C 133.25683 62.119175 133.16152 62.114231 133.0625 62.125 z M 150.21875 63.21875 C 149.11197 63.214396 147.87052 63.632246 148.34375 64.65625 C 148.54663 67.45264 147.67831 70.46381 148.53125 73.125 C 149.8579 73.28095 150.96142 74.34846 152.1875 73.5 C 153.52596 73.21604 154.85837 73.69558 156.25 73.5 C 157.77239 73.74553 159.13239 73.80474 160.5625 73.53125 C 162.85098 73.93693 165.29948 74.70957 167.5625 74.0625 C 168.8965 72.98391 170.38986 74.44138 171.75 74.71875 C 174.50497 75.2336 177.66515 74.64365 180.1875 75.9375 C 182.17855 75.3058 184.42331 75.60126 186.5625 75.6875 C 187.59966 76.05152 189.3469 76.10867 189.125 74.9375 C 187.97501 72.93477 189.98786 69.94874 187 68.46875 C 184.67651 67.55752 182.13272 68.37795 179.84375 68.65625 C 180.9732 67.60024 180.49987 65.0807 178.21875 65.28125 C 176.93165 65.60918 175.04907 64.61011 174.0625 65.46875 C 174.53129 66.76914 172.63757 67.38202 171.28125 67.28125 C 169.91855 68.0841 168.16444 67.57982 166.90625 66.84375 C 165.16644 66.74735 164.49489 68.32044 163.8125 69.25 C 163.8433 67.83398 162.41825 65.97124 160.34375 66.46875 C 159.44948 66.96636 158.80321 67.04611 157.9375 66.40625 C 155.8099 65.51008 153.24219 66.0085 151.40625 66.9375 C 151.06629 65.72234 151.58211 64.41127 150.90625 63.25 L 150.6875 63.21875 L 150.6875 63.25 C 150.54068 63.232885 150.37686 63.219372 150.21875 63.21875 z M 200.1875 66.9375 C 199.7451 66.929554 199.32092 66.975325 198.9375 67.09375 C 198.7195 68.11892 197.8903 69.40729 196.25 69 C 191.85317 69.7018 191.72985 75.63617 196.46875 76.5 C 198.60695 77.05804 200.933 76.5136 203.09375 77.09375 C 204.24935 77.12985 205.03255 76.37137 205.5 75.65625 C 206.71539 78.29483 210.8366 76.64294 212.78125 78.53125 C 214.70317 78.85192 216.47543 77.70396 218.46875 77.96875 C 219.75827 77.70643 221.904 79.05462 222.34375 77.625 C 222.34675 76.56252 221.7687 75.59804 222.09375 74.5 C 222.41132 72.7742 221.28859 70.55347 218.65625 70.5 C 217.8313 70.4185 217.09798 70.31818 218.03125 70.90625 C 218.27218 71.51924 218.14796 71.8765 219.03125 72.125 C 220.6006 73.48802 217.69488 75.20742 216.375 73.65625 C 215.96306 73.14402 216.17269 72.67174 215.34375 72.375 C 214.84305 71.9432 214.9244 71.224 215.15625 70.84375 C 214.03288 71.64273 213.69594 70.88695 213 70.3125 C 211.30816 69.65372 209.73258 70.8983 208.9375 71.875 C 208.9435 70.57485 207.5071 69.27254 205.8125 69.75 C 203.6478 70.52547 205.17711 68.91765 205.0625 68 C 205.0425 67.68277 205.0259 67.07895 204.375 67.25 C 203.50038 67.3179 202.50648 67.1734 201.5625 67.0625 C 201.09051 67.00706 200.6299 66.945446 200.1875 66.9375 z M 54.3125 71.28125 C 52.081229 71.65208 53.355946 74.02653 53.0625 75.3125 C 52.890231 77.19485 52.588953 79.14691 53 81.03125 C 54.3904 81.26688 55.544889 82.28806 56.90625 81.65625 C 59.305675 81.40907 61.815233 81.88898 64.21875 82 C 65.998402 81.26011 67.768033 82.90351 69.65625 82.625 C 71.71462 82.89207 73.586156 81.63987 75.5 82.8125 C 78.234377 84.11865 81.589775 82.85409 84.21875 84.5 C 86.187869 83.94012 88.423605 84.30481 90.5625 84.34375 C 91.654492 84.49728 93.467171 85.08457 93.625 83.84375 C 92.873864 81.98569 94.085778 79.84729 92.71875 77.96875 C 90.847877 76.07421 87.306156 76.64695 85.15625 77.59375 C 84.821032 76.48373 85.482348 74.85471 84.625 74 C 82.79211 74.24693 80.620484 73.27336 78.96875 73.8125 C 78.732508 75.00632 77.524942 75.91458 75.96875 75.78125 C 74.704983 76.38046 72.953997 76.12031 71.90625 75.25 C 70.448253 75.05278 69.373926 76.02475 68.4375 76.6875 C 68.296634 75.16254 65.556791 73.98658 64.59375 75.46875 C 63.936703 76.01567 63.146335 74.4865 62.09375 74.4375 C 59.930461 73.82721 57.664058 74.30678 55.59375 74.6875 C 56.345931 73.67525 56.471141 71.43378 54.3125 71.28125 z M 211.625 71.6875 C 211.74595 71.674891 211.87728 71.682337 212 71.6875 C 213.74942 71.6526 215.10754 73.74107 213.1875 74.28125 C 211.51211 75.07769 209.26165 73.19174 210.6875 72.0625 C 210.92852 71.855335 211.26215 71.725326 211.625 71.6875 z M 109.3125 76.25 C 108.84411 76.23137 108.36647 76.263328 107.9375 76.375 C 107.74563 77.67957 106.4304 78.54757 104.75 78.375 C 100.64806 79.24589 100.72338 84.89516 105.28125 85.78125 C 107.86881 86.35683 110.99218 85.65195 113.3125 87.125 C 114.50284 86.83642 115.71405 86.54466 117 86.875 C 118.60522 86.65725 120.33968 87.22227 121.84375 87.125 C 123.89416 86.48311 125.83453 88.048 127.96875 87.8125 C 129.34778 87.97386 130.93166 87.67193 130.75 86.375 C 130.749 84.82328 130.73273 83.21717 131.15625 81.75 C 130.90348 80.54704 128.75366 79.81938 127.90625 80.9375 C 126.08474 81.96994 125.01924 79.17839 123.1875 79.9375 C 121.36704 80.76565 119.77408 78.99552 117.875 79.3125 C 116.59132 79.06103 114.6801 80.36176 114.09375 79.84375 C 113.8264 78.82003 114.36639 77.42765 113.625 76.59375 C 112.2333 76.773735 110.71767 76.30589 109.3125 76.25 z M 142.1875 79.15625 C 141.80824 79.14395 141.46966 79.19754 141.15625 79.375 C 141.17035 80.7616 139.48556 81.43913 137.90625 81.3125 C 133.97675 82.37275 134.04858 87.8027 138.53125 88.75 C 141.2157 89.44574 144.40024 88.53186 146.8125 90.09375 C 147.96626 90.00955 149.0963 89.41259 150.3125 89.84375 C 152.28163 89.4856 154.29879 90.46669 156.15625 89.90625 C 158.02979 89.75184 159.59413 91.11767 161.53125 90.78125 C 163.1059 90.59883 164.69493 91.24728 166.1875 91.21875 C 168.44163 90.47861 167.47567 88.24295 167.53125 86.71875 C 167.58075 84.98699 167.96728 83.23362 167.5625 81.5 C 165.66901 81.5581 163.61876 80.88478 161.8125 81.125 C 160.69376 81.66549 161.84097 82.91643 162.28125 83.59375 C 159.9417 82.34214 157.79043 83.68189 155.4375 83.4375 C 153.89968 83.04022 152.60358 81.86056 150.84375 82.28125 C 149.53898 82.11991 146.40468 83.84539 147.34375 81.96875 C 147.5847 81.09221 147.23169 79.59376 145.78125 79.46875 C 144.68199 79.84449 143.32527 79.19311 142.1875 79.15625 z M 58.78125 97.875 C 57.810834 97.889745 56.955678 98.419835 57.625 99.3125 C 57.35301 100.92912 54.783082 99.43825 53.6875 100.34375 C 50.370215 101.75385 50.844992 106.8364 55.15625 107.5 C 56.906679 108.10517 58.741825 108.00436 60.34375 107.5 C 61.739984 107.6049 62.692353 108.8087 64.15625 108.40625 C 65.457584 108.00116 68.108522 108.44016 67.34375 109.9375 C 66.949053 111.33563 70.028726 111.76032 70.9375 110.90625 C 71.641932 110.08977 72.424235 108.79568 74.03125 109.3125 C 75.352025 108.96364 76.015455 107.884 77.09375 107.25 C 76.702635 108.32462 77.804422 110.3158 79.53125 109.65625 C 81.527616 108.37906 80.595973 105.86499 80.53125 104 C 79.853089 102.50869 77.749842 101.71681 75.90625 101.46875 C 76.467425 100.3339 75.419212 99.24514 73.875 99.25 C 72.489968 99.329 69.982625 98.48866 69.375 99.75 C 69.720012 101.27734 67.200734 101.91364 65.84375 100.90625 C 63.726999 100.35491 61.653157 101.21744 59.90625 101.90625 C 59.77518 100.75821 61.021887 98.98228 59.75 98.03125 C 59.456435 97.918178 59.104722 97.870085 58.78125 97.875 z M 100.15625 101.78125 C 99.386705 101.89395 99.039128 102.46436 98.875 103.15625 C 97.973274 104.29609 95.821847 103.66902 94.46875 104.28125 C 92.361698 104.61061 90.934203 102.52289 88.78125 103 C 85.799229 103.12898 84.004698 105.50116 84.84375 107.75 C 84.598061 109.78719 87.460653 111.15562 89.71875 110.65625 C 91.026075 110.21249 92.575844 111.65 93.6875 110.65625 C 94.3135 109.41838 94.74547 109.6453 95.375 110.8125 C 96.847046 111.75401 99.824767 111.05683 100.375 112.90625 C 100.19826 114.69264 104.19606 114.89172 104.59375 113.28125 C 105.27972 112.15885 107.00722 112.01202 108.40625 112.53125 C 110.1446 112.33494 111.97955 112.70244 113.65625 112.8125 C 114.95646 112.15625 116.2921 112.83206 117.59375 113.28125 C 119.37366 113.88139 122.44222 113.91348 122.34375 111.9375 C 122.41515 109.49615 122.37215 107.05768 122.5 104.625 C 122.80421 103.41421 120.1002 103.39508 119.65625 104.21875 C 119.92411 105.83586 117.52831 105.7309 116.1875 105.9375 C 113.77942 107.16451 111.43505 104.33164 108.90625 104.90625 C 107.85365 105.28237 105.57286 105.88831 105.4375 104.34375 C 105.29751 103.69771 105.71109 102.63403 105.25 102.28125 C 103.85929 102.37845 102.45178 101.94953 101.0625 101.84375 C 100.7105 101.76298 100.41276 101.74368 100.15625 101.78125 z M 128.6875 104.375 C 128.3786 104.3873 128.06494 104.47627 127.8125 104.71875 C 126.53934 106.30856 127.84452 108.50637 127.1875 110.3125 C 127.1955 111.56794 126.58016 113.26436 127.625 114.34375 C 129.40314 114.82097 130.09371 112.58929 131.75 113.28125 C 132.33179 113.8386 132.38354 114.55998 133.28125 114.875 C 134.283 115.65728 133.2746 117.20824 135.09375 117.40625 C 137.10203 117.8271 138.15926 116.32803 139 115.28125 C 140.20136 114.63996 141.28788 116.24695 142.5 115.5 C 145.05106 115.0855 148.10854 116.8158 150.375 115.65625 C 151.14886 115.19823 151.74652 112.53363 152 113.875 C 151.9317 114.97528 152.33206 116.76154 154.1875 116.65625 C 155.3261 116.50129 156.39053 115.69152 157.5625 116.53125 C 159.08484 117.61297 162.25989 116.75927 162.75 118.75 C 162.6962 120.55145 166.46567 120.37471 167.0625 119.03125 C 167.43621 117.62653 169.49667 117.95231 170.84375 118.34375 C 173.68455 117.64312 177.272 119.71046 179.6875 118.125 C 181.09312 117.63353 182.02648 119.05299 183.125 119.34375 C 185.14102 119.22709 184.79301 117.25938 184.75 116.125 C 184.95856 114.4808 184.51861 111.64568 181.6875 111.59375 C 180.21425 111.43894 179.95322 110.21482 179.65625 109.375 C 178.59793 108.45872 176.35065 109.00893 176.78125 110.3125 C 176.44821 111.76176 174.13295 111.33415 172.90625 110.71875 C 170.92747 110.36972 169.20615 111.09558 167.53125 111.6875 C 167.20521 110.48397 168.37425 109.00488 167.5 107.9375 C 165.72863 108.0181 163.89941 107.69323 162.1875 107.53125 C 160.32323 108.10438 162.31321 109.91068 162.84375 110.78125 C 161.37735 110.11518 159.72443 108.82196 158.15625 109.84375 C 156.87304 110.40501 154.93145 110.44086 154.15625 109.28125 C 152.79311 108.94599 150.5659 108.56154 150.875 107.0625 C 150.22499 105.77942 147.45972 106.07229 147.875 107.53125 C 147.49536 108.77005 145.49646 108.88479 144.28125 108.125 C 142.41049 107.65969 140.43184 108.26281 138.8125 108.875 C 138.7889 107.62353 138.84342 106.39719 138.5625 105.15625 L 138.1875 105.15625 L 137.96875 105.15625 C 136.66533 105.0363 135.49937 105.55071 135.71875 106.65625 C 134.84984 108.22248 131.57975 107.17682 130.6875 105.96875 C 130.6016 105.16906 129.61425 104.33901 128.6875 104.375 z M 199.4375 110.875 C 197.31289 110.98862 197.9073 113.44409 198.59375 114.53125 C 198.71054 115.33371 196.90658 113.43089 195.9375 113.15625 C 193.23156 111.81506 188.58374 112.94916 189.21875 115.6875 C 188.91786 117.0933 188.43708 118.89116 190.53125 119.78125 C 192.87962 120.99306 195.49351 119.95636 197.46875 119.0625 C 196.68674 120.03055 194.84849 122.11799 197.03125 123.03125 C 199.19739 123.85491 200.40572 121.99907 201.25 120.875 C 202.77265 120.17397 204.36975 121.64717 206 121.46875 C 207.43269 121.57929 207.99044 122.64925 208.09375 123.5625 C 209.37299 124.91274 212.24744 124.10938 212.5625 122.59375 C 213.80441 121.32669 215.8313 122.95556 217.375 122.3125 C 218.77515 122.44999 222.56157 123.53111 221.375 121.34375 C 221.202 119.32648 222.41387 116.22219 219.125 115.09375 C 216.99198 114.28135 214.71392 115.04516 212.96875 115.875 C 212.90575 114.66261 213.08076 113.22256 212.78125 112.125 C 210.90145 112.33306 208.80155 111.43834 207.0625 111.875 C 206.00345 112.38492 206.74779 113.52412 207.1875 114.21875 C 204.51626 112.83891 202.10609 114.50868 199.90625 115.3125 C 200.87152 114.24974 202.37042 111.14858 199.4375 110.875 z M 55.90625 113.1875 C 55.682016 113.21048 55.459614 113.24036 55.25 113.3125 C 55.16206 114.53841 53.884579 115.41119 52.3125 115.15625 C 48.069705 115.76297 47.74078 121.41105 52.21875 122.5625 C 54.793376 123.3737 58.206586 122.36759 60.25 124.3125 C 61.947141 124.42418 63.514735 123.69469 65.28125 124.03125 C 66.836285 123.99165 68.310886 124.37758 69.84375 124.375 C 71.026357 124.89371 71.996969 124.59176 73 124.21875 C 75.139036 123.97788 75.73705 126.14998 75.84375 127.34375 C 77.550344 128.81295 80.611975 127.37905 80.375 125.59375 C 82.207164 127.15481 84.304142 124.28914 85.9375 126.0625 C 87.681043 126.99394 89.889966 126.52714 91.75 127.09375 C 92.986604 126.9463 95.645247 126.94031 95.28125 128.5 C 94.550751 130.10009 98.24622 130.79216 99.09375 129.5625 C 99.651143 128.48454 101.17434 127.02307 102.84375 128.15625 C 104.59622 128.72719 108.17752 129.55066 108.46875 127.5 C 108.63679 124.73296 108.76704 121.9425 108.78125 119.1875 C 108.16009 118.67865 105.97243 118.74376 105.96875 119.625 C 106.63376 120.9379 104.65002 121.16777 103.4375 120.78125 C 102.56232 121.42926 99.953752 121.98762 100.0625 120.34375 C 100.21257 119.64307 101.3669 118.00199 99.59375 117.84375 C 97.581838 117.71544 97.032342 119.64616 96.6875 120.8125 C 94.124804 118.91763 90.578131 119.90301 87.625 119 C 86.577421 119.38482 83.925754 119.64293 84.25 118.0625 C 85.00299 117.08451 83.299552 115.37949 81.96875 116.28125 C 80.315898 115.05694 77.919944 115.64486 77.625 117.25 C 76.435257 118.11324 74.545209 117.51701 73.0625 117.65625 C 74.316459 116.66366 73.146978 114.68363 71.28125 114.90625 C 70.045664 115.48387 70.050208 118.12426 67.65625 116.9375 C 65.601557 115.89729 63.17977 116.62627 61.34375 117.3125 C 61.110946 116.09418 61.628093 114.80959 61.0625 113.625 C 60.124643 113.76914 59.070625 113.55858 58.0625 113.375 C 57.306406 113.23729 56.578953 113.11857 55.90625 113.1875 z M 124.125 120.78125 C 124.00993 120.77989 123.8819 120.79429 123.78125 120.8125 C 123.51285 120.8611 123.3188 120.99966 123.21875 121.25 C 123.14135 122.59162 121.35554 122.96753 119.90625 122.90625 C 115.94233 123.89395 116.06832 129.54615 120.65625 130.34375 C 122.88621 130.75632 125.24044 130.7618 127.40625 131.15625 C 128.58819 130.57707 130.46629 130.2485 131.53125 131.375 C 133.983 132.21874 136.71421 131.76062 139.15625 132.34375 C 140.37989 132.74826 140.29449 133.86672 140.53125 134.625 C 142.05913 135.88597 144.67584 134.9925 145.15625 133.5625 C 146.51386 132.33099 148.57299 134.21605 150.21875 133.65625 C 152.30662 133.49876 153.9949 131.73097 152.78125 130.125 C 152.89035 128.91788 153.56598 127.55827 151.78125 126.71875 C 149.80208 125.43923 147.14379 125.77102 145.21875 126.59375 C 145.68312 125.5531 146.17936 123.10668 143.9375 122.90625 C 142.25445 123.07014 142.49282 125.03337 141.34375 125.78125 C 138.92823 124.02967 135.61325 124.88714 132.8125 124.15625 C 131.61536 124.39814 129.08614 124.39559 129.34375 122.875 C 129.99301 121.66528 127.96123 120.80396 126.6875 121.1875 C 126.02954 121.23055 124.93051 120.79078 124.125 120.78125 z M 163.8125 125.375 C 163.61419 125.40438 163.40471 125.48413 163.21875 125.5625 C 163.09433 126.70134 162.00697 127.80686 160.375 127.34375 C 155.91502 127.97884 155.82344 134.11057 160.71875 134.90625 C 162.90044 135.32071 165.23376 135.21521 167.375 135.65625 C 168.60136 135.02738 170.42628 134.80164 171.53125 135.90625 C 175.08069 136.74905 178.80683 136.55407 182.40625 137.28125 C 184.23905 137.77587 186.13317 137.81044 188.03125 137.84375 C 190.35503 137.75365 188.52153 138.63855 188.75 139.625 C 189.5127 141.36162 192.52081 140.94222 193.21875 139.59375 C 193.87803 138.82924 194.21794 137.34492 195.46875 138.625 C 197.90352 139.98298 202.51592 138.70474 201.5 136.1875 C 200.57982 134.89722 202.3908 133.33817 200.46875 132.3125 C 198.5036 130.79 195.4708 131.18031 193.65625 132.3125 C 194.0432 131.21685 194.83499 128.65315 192.40625 128.4375 C 190.56911 128.58086 190.97532 130.63748 190.21875 131.59375 C 187.93917 129.60305 184.16132 129.77596 181.875 131.15625 C 179.99953 128.39982 175.63098 129.44727 172.5625 128.65625 C 171.18929 128.66225 169.94667 129.15196 168.65625 129.40625 C 169.33661 128.46714 170.2053 126.3231 168.28125 125.71875 C 167.46172 125.87968 166.56164 125.69005 165.6875 125.53125 C 165.03191 125.41216 164.40742 125.28686 163.8125 125.375 z M 65.25 131.65625 C 64.38689 131.70161 63.61802 132.31667 63.71875 133.09375 C 62.904057 134.46314 60.923604 133.46178 59.59375 133.0625 C 57.700983 132.68982 55.647128 134.55352 54.125 132.84375 C 51.417998 131.05594 46.40175 132.31888 46.9375 135.21875 C 46.321302 136.83566 47.068435 139.14169 49.53125 139.625 C 51.144399 139.79071 52.619297 139.36623 54.125 140.125 C 55.419501 140.78987 55.654166 138.62906 56.53125 139.90625 C 58.286784 141.30441 60.904638 140.88363 62.90625 140.5625 C 63.35993 142.195 65.857724 141.56953 66.71875 140.75 C 68.726484 141.0956 69.253593 142.85259 69.03125 144.125 C 70.963662 145.78595 74.430617 144.05083 74 142.0625 C 74.239928 141.39196 75.842193 142.87721 76.75 143 C 78.557609 143.66354 81.952292 144.34993 82.3125 142.3125 C 82.5636 140.13927 82.343022 137.9016 82.75 135.75 C 82.916171 134.80284 82.943724 133.42841 81.25 133.78125 C 80.148745 133.65432 79.603388 134.38677 80.125 135.15625 C 80.240665 136.36621 78.472436 135.86524 77.625 135.59375 C 76.065166 136.4344 73.711906 134.86536 74.34375 133.46875 C 74.30841 133.10105 74.0068 132.59484 73.46875 132.5625 C 71.419493 132.29832 71.401871 134.9713 69.15625 134.65625 C 67.344627 134.69895 66.885446 133.18067 66.5625 132.125 C 66.267688 131.86785 65.958505 131.73524 65.625 131.6875 C 65.499936 131.6696 65.373301 131.64977 65.25 131.65625 z M 208.6875 132.625 C 206.39353 132.6846 205.13226 134.94676 206.40625 136.53125 C 204.11011 137.61034 206.66231 140.33779 208.875 140.4375 C 211.40735 141.09917 214.78295 139.11353 213.15625 137 C 212.86233 135.93231 214.24609 134.77199 212.75 133.90625 C 211.69778 133.01745 210.11828 132.74631 208.6875 132.625 z M 106.25 137.03125 C 105.25486 136.96535 104.33325 137.84579 104.4375 138.6875 C 103.3626 139.95127 101.44671 138.77225 100.0625 138.46875 C 98.335713 138.28279 96.730013 138.85313 95.5 139.6875 C 93.904191 136.42424 86.940335 136.67761 86.75 140.0625 C 85.426263 142.11653 87.850373 145.56523 91.125 145.03125 C 92.264712 144.68093 93.442152 145.21568 94.40625 145.5625 C 95.343867 145.07455 96.580958 145.17258 97.34375 145.96875 C 99.103263 146.35705 100.97966 145.7431 102.65625 146.46875 C 104.10272 146.33325 105.50542 147.12661 106.8125 146.5 C 108.48011 146.16276 110.06551 147.55202 109.59375 148.8125 C 109.89637 150.68713 113.32662 150.64997 113.96875 149.15625 C 114.12529 147.89549 115.95812 147.44232 117.28125 148.28125 C 119.27797 149.23188 121.86909 149.155 123.84375 148.59375 C 125.26004 150.60111 128.28549 149.33992 130.375 150.28125 C 131.85634 150.01409 133.44572 150.00688 134.8125 150.78125 C 136.45554 150.8916 139.06272 151.46393 138.59375 153.125 C 139.81892 154.70866 142.93904 154.0861 143.375 152.5 C 143.76654 151.29506 144.26702 150.91587 145.28125 152.15625 C 146.963 153.24227 149.37561 151.70962 150.71875 153.03125 C 152.01423 153.30324 152.65741 152.21687 151.96875 151.34375 C 151.92115 149.39859 153.19205 146.72517 150.34375 145.4375 C 148.24634 144.37668 145.72841 144.90296 144 145.875 C 143.57614 144.67716 144.30629 143.10414 143.71875 142.125 C 141.84392 142.1646 139.59511 141.09925 137.96875 141.65625 C 137.66849 142.65977 136.71036 143.70549 135.15625 143.40625 C 133.16903 143.91328 130.82739 143.66676 129.15625 142.46875 C 126.92463 141.78632 124.76313 142.54818 122.90625 143.3125 C 123.07094 142.14123 124.42001 140.34107 123 139.3125 C 121.91585 138.8438 119.9719 139.39724 120.78125 140.5 C 122.38887 142.4401 121.52824 142.23018 119.53125 141.125 C 117.81321 140.73328 116.26322 141.68441 114.5 141.4375 C 115.18747 140.54467 115.92205 138.13159 113.71875 137.90625 C 112.14119 138.33737 111.77294 140.39803 109.59375 140 C 107.75708 140.007 107.85546 138.3295 107.21875 137.46875 C 106.90168 137.20751 106.58171 137.0532 106.25 137.03125 z M 163.71875 144.6875 C 162.8928 144.646 162.21363 144.89914 162.28125 145.71875 C 161.57379 147.30827 158.84505 146.06545 157.78125 147.3125 C 155.18389 149.03345 155.97142 153.53853 159.96875 154.15625 C 162.21768 154.56339 164.62046 154.84875 166.8125 155 C 167.95437 154.37312 169.7082 154.33639 170.65625 155.375 C 173.14602 156.31502 175.96555 155.8257 178.40625 156.65625 C 179.42183 157.15015 179.35933 158.09201 179.53125 158.78125 C 180.87758 160.12604 183.65243 159.35703 184.03125 157.90625 C 185.30387 156.79631 187.10948 158.45742 188.59375 157.84375 C 190.66294 157.78565 192.79864 158.64652 194.75 158.65625 C 196.02622 157.91307 197.673 158.27545 198.8125 159.25 C 200.09968 160.08714 201.97182 159.08735 200.8125 157.90625 C 199.53559 156.91967 197.7571 154.70307 199.875 153.90625 C 201.10199 153.90825 202.0026 151.99923 200.28125 151.90625 C 198.96481 152.05581 196.49268 151.76054 196.8125 150.25 C 197.16515 148.83587 193.64495 148.18594 193.8125 149.875 C 193.802 151.06261 192.09707 151.85867 190.875 150.84375 C 188.44055 149.62731 185.66898 150.72564 183.5 151.4375 C 183.90884 150.31673 185.7912 148.56631 184.46875 147.375 C 184.09613 147.3422 183.71821 147.15732 183.34375 147.21875 C 181.67231 147.44844 181.40642 149.12185 181.1875 150.25 C 178.70951 148.38356 175.17507 148.78299 172.25 148.28125 C 170.36875 148.81123 168.25824 147.34596 168.59375 145.8125 C 168.0958 145.07541 166.72432 144.83951 166.0625 145.46875 C 165.50987 145.09043 164.5447 144.72898 163.71875 144.6875 z M 49.5 146.6875 C 49.384226 146.69208 49.277425 146.69295 49.15625 146.71875 C 48.566221 147.64832 47.590706 148.97403 45.84375 148.5 C 41.224078 148.94 41.148361 155.18046 46.03125 156.15625 C 47.880842 156.6888 49.868843 156.70399 51.53125 156.125 C 53.39376 157.86388 56.443046 157.59892 58.6875 157.0625 C 60.375955 158.95262 63.505996 158.27674 65.8125 159 C 67.378664 158.52367 69.110136 159.02274 70.53125 159.6875 C 72.368577 160.22211 74.465958 160.34126 76 159.5 C 77.2087 161.77122 80.490204 160.55072 82.625 161.5 C 84.283169 161.2385 85.858831 161.71461 87.40625 162.25 C 89.020826 162.5405 90.666816 162.17041 91.8125 161.375 C 93.646304 163.64668 97.219639 163.75374 100.03125 163.90625 C 101.25187 164.78748 102.44223 164.14057 103.53125 163.84375 C 105.58362 163.84775 106.87217 165.48313 107.90625 166.59375 C 109.56638 167.21785 109.21619 165.11809 110.53125 164.9375 C 111.65542 162.91122 110.59339 160.39269 111.375 158.25 C 111.17047 157.23018 112.54543 155.40783 110.28125 155.40625 C 108.51345 155.53914 108.29207 157.91023 106.09375 157.5 C 104.23448 157.4108 104.29722 155.79308 103.65625 154.875 C 102.15724 153.91325 100.1828 154.63755 98.5625 153.84375 C 97.18109 153.88945 97.891046 155.76524 96.28125 155.75 C 95.100722 155.7744 94.011393 155.73817 93.09375 156.28125 C 91.022936 156.58439 89.855888 154.22732 87.71875 154.5 C 86.357966 154.4175 85.192628 154.94478 84.34375 155.6875 C 82.62803 152.97798 78.223459 152.89401 75.65625 154.21875 C 73.87863 154.9711 76.238647 152.5792 75.90625 151.71875 C 76.312735 150.68377 74.970115 150.04852 73.84375 150.3125 C 72.832408 150.3891 72.809561 151.30416 73.46875 151.875 C 72.193294 152.65742 70.302332 151.82026 68.96875 152.46875 C 66.45179 152.94084 64.613538 150.41347 62.09375 150.875 C 60.814558 150.8117 59.569889 151.922 58.6875 151.625 C 57.190153 149.47409 53.759125 149.405 51.3125 149.8125 C 52.335203 148.79713 51.236616 146.61886 49.5 146.6875 z M 123.8125 158.4375 C 122.9636 158.46798 122.58165 159.12287 122.78125 159.8125 C 122.07098 161.14358 119.76596 159.764 118.6875 160.78125 C 115.72258 162.23755 115.99757 166.79137 119.96875 167.78125 C 121.86002 168.58702 123.97889 168.11566 125.78125 168.21875 C 126.89448 168.80899 128.07545 169.49469 129.375 169.15625 C 131.87845 169.13285 134.459 170.47185 136.875 169.78125 C 137.85339 171.4448 140.30406 170.38434 141.3125 169.59375 C 141.80085 170.91665 144.75203 172.13983 145.65625 170.875 C 144.86059 169.37466 142.37812 167.77365 143.3125 166.21875 C 144.22819 165.56297 146.37372 164.92304 146.53125 164.15625 C 144.64181 163.70563 142.70995 163.81826 140.8125 163.75 C 141.23164 162.93137 141.53195 160.64197 139.5625 160.78125 C 138.31238 161.09559 137.07303 160.47065 135.9375 160.25 C 134.19397 160.53438 134.21587 162.29394 134.65625 163.46875 C 131.98151 161.57432 128.06738 160.94232 125.3125 162.4375 C 125.0286 161.25189 126.35058 159.70388 125.21875 158.65625 C 124.88315 158.57475 124.568 158.44738 124.21875 158.4375 C 124.07849 158.41369 123.93377 158.43315 123.8125 158.4375 z "
       transform="translate(0,796.36218)"
       id="path3085" />
    <path
       style="opacity:0.3;fill:#000000;fill-opacity:1;stroke:none;filter:url(#filter3832)"
       d="m 170.75,820.21875 c -4.83049,0.0872 -11.84206,4.85012 -8.15625,10.15625 8.5939,10.64187 25.23665,10.62831 34.24107,21.04464 9.01316,8.44353 17.90181,20.09272 30.82143,20.79911 4.25959,-0.879 9.96616,-7.09096 5.375,-10.875 -5.47866,-2.9473 -12.25236,-3.14932 -17.28125,-7.4375 -9.96113,-6.32441 -16.65841,-16.61803 -28.03125,-20.71875 -4.81127,-2.31661 -10.31505,-4.93952 -11.46875,-10.625 -1.15035,-1.80631 -3.45143,-2.51223 -5.5,-2.34375 z"
       id="path3056"
       inkscape:connector-curvature="0"
       sodipodi:nodetypes="ccccccccc" />
    <path
       style="fill:#b3b3b3;fill-opacity:1;stroke:#000000;stroke-width:3;stroke-linecap:butt;stroke-linejoin:round;stroke-miterlimit:4;stroke-opacity:1;stroke-dasharray:none;stroke-dashoffset:0"
       d="m 174.9518,822.35523 c 0.13162,0.75532 -1.36251,0.30986 -0.93873,0.99207 3.62154,5.82995 16.89803,9.24662 22.50993,14.63037 9.1618,8.78933 17.81422,16.4421 27.82064,19.07508 0.5302,0.13951 1.51064,-0.62792 2.04872,-0.51718 5.82321,1.19853 5.72283,4.70155 1.95099,7.87615 l -1.32278,1.11333 c -1.93496,1.62858 -5.50209,0.35489 -9.38282,-1.10397 -11.66258,-4.38421 -18.40319,-12.722 -28.07726,-20.95616 -6.4511,-5.4909 -17.07326,-8.96368 -24.70258,-15.27775 -2.99171,-2.47596 -4.33239,-5.35472 -2.39743,-6.98329 l 1.32279,-1.11333 c 1.96403,-1.65305 10.3268,-2.5657 11.16853,2.26468 z"
       id="rect4521"
       inkscape:connector-curvature="0"
       sodipodi:nodetypes="sssssssssssss" />
    <path
       style="fill:url(#radialGradient4595);fill-opacity:1;stroke:none"
       d="m 171.99522,820.53342 c -6.25579,-2.777 -6.6669,1.13475 -4.6169,4.03936 6.22872,8.82536 17.87394,11.02735 25.06455,16.43485 9.40055,7.06941 13.66782,12.57144 20.77649,17.52217 6.13542,4.27292 16.86395,1.45263 5.41595,-2.09694 -8.35589,-4.16027 -8.19216,-2.57519 -25.9806,-16.67886 -8.07459,-6.402 -21.28993,-11.18328 -20.65949,-19.22058 z"
       id="path4563"
       inkscape:connector-curvature="0"
       sodipodi:nodetypes="cssscsc" />
    <path
       style="fill:url(#radialGradient3864);fill-opacity:1;stroke:none"
       d="m 237.4375,958.01843 c -29.06871,23.75815 -68.10125,40.81997 -112.25,47.65627 l 80.15625,9.5937 c 17.36024,-18.0797 26.95928,-37.35487 32.09375,-57.24997 z"
       id="path3851"
       inkscape:connector-curvature="0" />
  </g>
</svg>
