<?xml version="1.0" encoding="UTF-8" standalone="no"?>
<!-- Created with Inkscape (http://www.inkscape.org/) -->

<svg
   xmlns:dc="http://purl.org/dc/elements/1.1/"
   xmlns:cc="http://creativecommons.org/ns#"
   xmlns:rdf="http://www.w3.org/1999/02/22-rdf-syntax-ns#"
   xmlns:svg="http://www.w3.org/2000/svg"
   xmlns="http://www.w3.org/2000/svg"
   xmlns:xlink="http://www.w3.org/1999/xlink"
   xmlns:sodipodi="http://sodipodi.sourceforge.net/DTD/sodipodi-0.dtd"
   xmlns:inkscape="http://www.inkscape.org/namespaces/inkscape"
   width="320"
   height="320"
   id="svg2"
   sodipodi:version="0.32"
   inkscape:version="0.47 r22583"
   sodipodi:docname="Image"
   inkscape:output_extension="org.inkscape.output.svg.inkscape"
   version="1.0">
  <defs
     id="defs4">
    <marker
       inkscape:stockid="Arrow2Lend"
       orient="auto"
       refY="0.0"
       refX="0.0"
       id="Arrow2Lend"
       style="overflow:visible;">
      <path
         id="path3771"
         style="font-size:12.0;fill-rule:evenodd;stroke-width:0.62500000;stroke-linejoin:round;"
         d="M 8.7185878,4.0337352 L -2.2072895,0.016013256 L 8.7185884,-4.0017078 C 6.9730900,-1.6296469 6.9831476,1.6157441 8.7185878,4.0337352 z "
         transform="scale(1.1) rotate(180) translate(1,0)" />
    </marker>
    <marker
       inkscape:stockid="Arrow1Lend"
       orient="auto"
       refY="0.0"
       refX="0.0"
       id="Arrow1Lend"
       style="overflow:visible;">
      <path
         id="path3753"
         d="M 0.0,0.0 L 5.0,-5.0 L -12.5,0.0 L 5.0,5.0 L 0.0,0.0 z "
         style="fill-rule:evenodd;stroke:#000000;stroke-width:1.0pt;marker-start:none;"
         transform="scale(0.8) rotate(180) translate(12.5,0)" />
    </marker>
    <linearGradient
       id="linearGradient3272">
      <stop
         id="stop3274"
         offset="0"
         style="stop-color:#ffffff;stop-opacity:1;" />
      <stop
         style="stop-color:#bbd5c1;stop-opacity:1;"
         offset="0.5884158"
         id="stop3276" />
      <stop
         id="stop3278"
         offset="1"
         style="stop-color:#71c351;stop-opacity:1;" />
    </linearGradient>
    <linearGradient
       id="linearGradient3166">
      <stop
         style="stop-color:#d5ffff;stop-opacity:1;"
         offset="0"
         id="stop3168" />
      <stop
         id="stop3174"
         offset="0.24137931"
         style="stop-color:#87b492;stop-opacity:1;" />
      <stop
         style="stop-color:#396a25;stop-opacity:1;"
         offset="1"
         id="stop3170" />
    </linearGradient>
    <inkscape:perspective
       sodipodi:type="inkscape:persp3d"
       inkscape:vp_x="0 : 526.18109 : 1"
       inkscape:vp_y="0 : 1000 : 0"
       inkscape:vp_z="744.09448 : 526.18109 : 1"
       inkscape:persp3d-origin="372.04724 : 350.78739 : 1"
       id="perspective10" />
    <radialGradient
       inkscape:collect="always"
       xlink:href="#linearGradient3166"
       id="radialGradient2432"
       gradientUnits="userSpaceOnUse"
       gradientTransform="matrix(0.2760087,0.4901916,-1.4925249,0.8403855,889.49607,-269.11477)"
       cx="-120.66913"
       cy="512.35571"
       fx="-120.66913"
       fy="512.35571"
       r="144.23438" />
    <radialGradient
       inkscape:collect="always"
       xlink:href="#linearGradient3272"
       id="radialGradient3231"
       gradientUnits="userSpaceOnUse"
       gradientTransform="matrix(1.1055172,-0.9264079,1.0117891,1.2074056,50.662198,263.5516)"
       cx="116.9056"
       cy="86.495285"
       fx="116.9056"
       fy="86.495285"
       r="138.84375" />
    <inkscape:perspective
       id="perspective3801"
       inkscape:persp3d-origin="0.5 : 0.33333333 : 1"
       inkscape:vp_z="1 : 0.5 : 1"
       inkscape:vp_y="0 : 1000 : 0"
       inkscape:vp_x="0 : 0.5 : 1"
       sodipodi:type="inkscape:persp3d" />
    <filter
       inkscape:collect="always"
       id="filter3741">
      <feGaussianBlur
         inkscape:collect="always"
         stdDeviation="3.9263405"
         id="feGaussianBlur3743" />
    </filter>
  </defs>
  <sodipodi:namedview
     id="base"
     pagecolor="#ffffff"
     bordercolor="#666666"
     borderopacity="1.0"
     inkscape:pageopacity="0.0"
     inkscape:pageshadow="2"
     inkscape:zoom="1.3671875"
     inkscape:cx="242.54374"
     inkscape:cy="85.345994"
     inkscape:document-units="px"
     inkscape:current-layer="layer1"
     showgrid="true"
     inkscape:window-width="1920"
     inkscape:window-height="1134"
     inkscape:window-x="-4"
     inkscape:window-y="-4"
     inkscape:window-maximized="1"
     inkscape:snap-grids="true">
    <inkscape:grid
       type="xygrid"
       id="grid2917" />
  </sodipodi:namedview>
  <metadata
     id="metadata7">
    <rdf:RDF>
      <cc:Work
         rdf:about="">
        <dc:format>image/svg+xml</dc:format>
        <dc:type
           rdf:resource="http://purl.org/dc/dcmitype/StillImage" />
        <dc:title></dc:title>
      </cc:Work>
    </rdf:RDF>
  </metadata>
  <g
     inkscape:label="Ebene 1"
     inkscape:groupmode="layer"
     id="layer1"
     transform="translate(-150.51273,-167.46855)">
    <g
       id="g4753"
       transform="translate(-0.83102,136.46855)">
      <path
         style="font-size:medium;font-style:normal;font-variant:normal;font-weight:normal;font-stretch:normal;text-indent:0;text-align:start;text-decoration:none;line-height:normal;letter-spacing:normal;word-spacing:normal;text-transform:none;direction:ltr;block-progression:tb;writing-mode:lr-tb;text-anchor:start;color:#000000;fill:#58de2b;fill-opacity:1;stroke:none;stroke-width:5;marker:none;visibility:visible;display:inline;overflow:visible;enable-background:accumulate;font-family:Bitstream Vera Sans;-inkscape-font-specification:Bitstream Vera Sans"
         d="m 621.5625,40.3125 c 4.25847,5.933337 6.62783,12.774861 7.09375,19.6875 L 625,60 l 0,5 3.65625,0 c -0.45259,6.903505 -2.8088,13.676924 -7.09375,19.5 L 681.65625,62.40625 621.5625,40.3125 z M 375,60 l 0,5 5,0 0,-5 -5,0 z m 10,0 0,5 5,0 0,-5 -5,0 z m 10,0 0,5 5,0 0,-5 -5,0 z m 10,0 0,5 5,0 0,-5 -5,0 z m 10,0 0,5 5,0 0,-5 -5,0 z m 10,0 0,5 5,0 0,-5 -5,0 z m 10,0 0,5 5,0 0,-5 -5,0 z m 10,0 0,5 5,0 0,-5 -5,0 z m 10,0 0,5 5,0 0,-5 -5,0 z m 10,0 0,5 5,0 0,-5 -5,0 z m 10,0 0,5 5,0 0,-5 -5,0 z m 10,0 0,5 5,0 0,-5 -5,0 z m 10,0 0,5 5,0 0,-5 -5,0 z m 10,0 0,5 5,0 0,-5 -5,0 z m 10,0 0,5 5,0 0,-5 -5,0 z m 10,0 0,5 5,0 0,-5 -5,0 z m 10,0 0,5 5,0 0,-5 -5,0 z m 10,0 0,5 5,0 0,-5 -5,0 z m 10,0 0,5 5,0 0,-5 -5,0 z m 10,0 0,5 5,0 0,-5 -5,0 z m 10,0 0,5 5,0 0,-5 -5,0 z m 10,0 0,5 5,0 0,-5 -5,0 z m 10,0 0,5 5,0 0,-5 -5,0 z m 10,0 0,5 5,0 0,-5 -5,0 z m 10,0 0,5 5,0 0,-5 -5,0 z"
         transform="translate(-216.65625,261)"
         id="path4751" />
    </g>
    <g
       transform="matrix(0,-1,1,0,-144.48727,640.8123)"
       id="g4763">
      <path
         id="path4765"
         transform="translate(-216.65625,261)"
         d="m 621.5625,40.3125 c 4.25847,5.933337 6.62783,12.774861 7.09375,19.6875 L 625,60 l 0,5 3.65625,0 c -0.45259,6.903505 -2.8088,13.676924 -7.09375,19.5 L 681.65625,62.40625 621.5625,40.3125 z M 375,60 l 0,5 5,0 0,-5 -5,0 z m 10,0 0,5 5,0 0,-5 -5,0 z m 10,0 0,5 5,0 0,-5 -5,0 z m 10,0 0,5 5,0 0,-5 -5,0 z m 10,0 0,5 5,0 0,-5 -5,0 z m 10,0 0,5 5,0 0,-5 -5,0 z m 10,0 0,5 5,0 0,-5 -5,0 z m 10,0 0,5 5,0 0,-5 -5,0 z m 10,0 0,5 5,0 0,-5 -5,0 z m 10,0 0,5 5,0 0,-5 -5,0 z m 10,0 0,5 5,0 0,-5 -5,0 z m 10,0 0,5 5,0 0,-5 -5,0 z m 10,0 0,5 5,0 0,-5 -5,0 z m 10,0 0,5 5,0 0,-5 -5,0 z m 10,0 0,5 5,0 0,-5 -5,0 z m 10,0 0,5 5,0 0,-5 -5,0 z m 10,0 0,5 5,0 0,-5 -5,0 z m 10,0 0,5 5,0 0,-5 -5,0 z m 10,0 0,5 5,0 0,-5 -5,0 z m 10,0 0,5 5,0 0,-5 -5,0 z m 10,0 0,5 5,0 0,-5 -5,0 z m 10,0 0,5 5,0 0,-5 -5,0 z m 10,0 0,5 5,0 0,-5 -5,0 z m 10,0 0,5 5,0 0,-5 -5,0 z m 10,0 0,5 5,0 0,-5 -5,0 z"
         style="font-size:medium;font-style:normal;font-variant:normal;font-weight:normal;font-stretch:normal;text-indent:0;text-align:start;text-decoration:none;line-height:normal;letter-spacing:normal;word-spacing:normal;text-transform:none;direction:ltr;block-progression:tb;writing-mode:lr-tb;text-anchor:start;color:#000000;fill:#58de2b;fill-opacity:1;stroke:none;stroke-width:5;marker:none;visibility:visible;display:inline;overflow:visible;enable-background:accumulate;font-family:Bitstream Vera Sans;-inkscape-font-specification:Bitstream Vera Sans" />
    </g>
    <path
       style="fill:none;stroke:#000000;stroke-width:10;stroke-linejoin:round;stroke-miterlimit:10;stroke-opacity:1;stroke-dasharray:none;stroke-dashoffset:0"
       d="m 172.06734,323.77879 25.84455,0 14.98803,28.08976 37.61281,-170.4 28.20962,265.06667 28.2096,-160.93334 18.80642,66.26667 28.20961,-37.86667 18.8064,9.46667 57.75835,0.31024"
       id="rect2910"
       sodipodi:nodetypes="cccccccccc" />
    <path
       sodipodi:nodetypes="cccccccccc"
       id="path3739"
       d="m 192.06734,343.77879 25.84455,0 14.98803,28.08976 37.61281,-170.4 28.20962,265.06667 28.2096,-160.93334 18.80642,66.26667 28.20961,-37.86667 18.8064,9.46667 57.75835,0.31024"
       style="opacity:0.28999999;fill:none;stroke:#000000;stroke-width:10;stroke-linejoin:round;stroke-miterlimit:10;stroke-opacity:1;stroke-dasharray:none;stroke-dashoffset:0;filter:url(#filter3741)" />
  </g>
</svg>
