<?xml version="1.0" encoding="UTF-8" standalone="no"?>
<!-- Created with Inkscape (http://www.inkscape.org/) -->

<svg
   xmlns:dc="http://purl.org/dc/elements/1.1/"
   xmlns:cc="http://creativecommons.org/ns#"
   xmlns:rdf="http://www.w3.org/1999/02/22-rdf-syntax-ns#"
   xmlns:svg="http://www.w3.org/2000/svg"
   xmlns="http://www.w3.org/2000/svg"
   xmlns:xlink="http://www.w3.org/1999/xlink"
   xmlns:sodipodi="http://sodipodi.sourceforge.net/DTD/sodipodi-0.dtd"
   xmlns:inkscape="http://www.inkscape.org/namespaces/inkscape"
   width="320"
   height="320"
   id="svg2"
   sodipodi:version="0.32"
   inkscape:version="0.48.1 "
   sodipodi:docname="Image.svg"
   inkscape:output_extension="org.inkscape.output.svg.inkscape"
   version="1.0">
  <defs
     id="defs4">
    <linearGradient
       id="linearGradient5736">
      <stop
         style="stop-color:#ffffff;stop-opacity:1;"
         offset="0"
         id="stop5738" />
      <stop
         style="stop-color:#ffffff;stop-opacity:0;"
         offset="1"
         id="stop5740" />
    </linearGradient>
    <linearGradient
       id="linearGradient5724">
      <stop
         style="stop-color:#000000;stop-opacity:1;"
         offset="0"
         id="stop5726" />
      <stop
         style="stop-color:#000000;stop-opacity:0;"
         offset="1"
         id="stop5728" />
    </linearGradient>
    <linearGradient
       id="linearGradient3272">
      <stop
         id="stop3274"
         offset="0"
         style="stop-color:#ffffff;stop-opacity:1;" />
      <stop
         style="stop-color:#bbd5c1;stop-opacity:1;"
         offset="0.5884158"
         id="stop3276" />
      <stop
         id="stop3278"
         offset="1"
         style="stop-color:#71c351;stop-opacity:1;" />
    </linearGradient>
    <linearGradient
       id="linearGradient3166">
      <stop
         style="stop-color:#d5ffff;stop-opacity:1;"
         offset="0"
         id="stop3168" />
      <stop
         id="stop3174"
         offset="0.24137931"
         style="stop-color:#87b492;stop-opacity:1;" />
      <stop
         style="stop-color:#396a25;stop-opacity:1;"
         offset="1"
         id="stop3170" />
    </linearGradient>
    <inkscape:perspective
       sodipodi:type="inkscape:persp3d"
       inkscape:vp_x="0 : 526.18109 : 1"
       inkscape:vp_y="0 : 1000 : 0"
       inkscape:vp_z="744.09448 : 526.18109 : 1"
       inkscape:persp3d-origin="372.04724 : 350.78739 : 1"
       id="perspective10" />
    <radialGradient
       inkscape:collect="always"
       xlink:href="#linearGradient3166"
       id="radialGradient2432"
       gradientUnits="userSpaceOnUse"
       gradientTransform="matrix(0.2760087,0.4901916,-1.4925249,0.8403855,889.49607,-269.11477)"
       cx="-120.66913"
       cy="512.35571"
       fx="-120.66913"
       fy="512.35571"
       r="144.23438" />
    <radialGradient
       inkscape:collect="always"
       xlink:href="#linearGradient3272"
       id="radialGradient3231"
       gradientUnits="userSpaceOnUse"
       gradientTransform="matrix(1.1055172,-0.9264079,1.0117891,1.2074056,50.662198,263.5516)"
       cx="116.9056"
       cy="86.495285"
       fx="116.9056"
       fy="86.495285"
       r="138.84375" />
    <inkscape:perspective
       id="perspective3801"
       inkscape:persp3d-origin="0.5 : 0.33333333 : 1"
       inkscape:vp_z="1 : 0.5 : 1"
       inkscape:vp_y="0 : 1000 : 0"
       inkscape:vp_x="0 : 0.5 : 1"
       sodipodi:type="inkscape:persp3d" />
    <radialGradient
       inkscape:collect="always"
       xlink:href="#linearGradient3166"
       id="radialGradient3815"
       gradientUnits="userSpaceOnUse"
       gradientTransform="matrix(0.2760087,0.4901916,-1.4925249,0.8403855,1042.0088,-67.64622)"
       cx="-120.66913"
       cy="512.35571"
       fx="-120.66913"
       fy="512.35571"
       r="144.23438" />
    <radialGradient
       inkscape:collect="always"
       xlink:href="#linearGradient3166-1"
       id="radialGradient3703"
       cx="290.51273"
       cy="296.62985"
       fx="290.51273"
       fy="296.62985"
       r="160"
       gradientTransform="matrix(0.24797302,0.50615532,-1.1500837,0.89961558,546.09747,-123.74657)"
       gradientUnits="userSpaceOnUse" />
    <linearGradient
       id="linearGradient3166-1">
      <stop
         style="stop-color:#d5ffff;stop-opacity:1;"
         offset="0"
         id="stop3168-7" />
      <stop
         id="stop3174-4"
         offset="0.24137931"
         style="stop-color:#87b492;stop-opacity:1;" />
      <stop
         style="stop-color:#396a25;stop-opacity:1;"
         offset="1"
         id="stop3170-0" />
    </linearGradient>
    <radialGradient
       r="160"
       fy="296.62985"
       fx="290.51273"
       cy="296.62985"
       cx="290.51273"
       gradientTransform="matrix(0.23798869,0.48577559,-1.103777,0.86339366,500.75562,29.689508)"
       gradientUnits="userSpaceOnUse"
       id="radialGradient3038"
       xlink:href="#linearGradient3166-1"
       inkscape:collect="always" />
    <radialGradient
       inkscape:collect="always"
       xlink:href="#linearGradient5736"
       id="radialGradient5742"
       cx="162.88434"
       cy="121.75128"
       fx="162.88434"
       fy="121.75128"
       r="27.779196"
       gradientTransform="matrix(1,0,0,0.96363635,0,4.4183657)"
       gradientUnits="userSpaceOnUse" />
    <radialGradient
       inkscape:collect="always"
       xlink:href="#linearGradient5736"
       id="radialGradient5753"
       gradientUnits="userSpaceOnUse"
       gradientTransform="matrix(1,0,0,0.96363635,0,4.4183657)"
       cx="162.88434"
       cy="121.75128"
       fx="162.88434"
       fy="121.75128"
       r="27.779196" />
    <radialGradient
       inkscape:collect="always"
       xlink:href="#linearGradient5736"
       id="radialGradient5760"
       gradientUnits="userSpaceOnUse"
       gradientTransform="matrix(1,0,0,0.96363635,0,4.4183657)"
       cx="162.88434"
       cy="121.75128"
       fx="162.88434"
       fy="121.75128"
       r="27.779196" />
  </defs>
  <sodipodi:namedview
     id="base"
     pagecolor="#ffffff"
     bordercolor="#666666"
     borderopacity="1.0"
     inkscape:pageopacity="0.0"
     inkscape:pageshadow="2"
     inkscape:zoom="1.979899"
     inkscape:cx="188.21019"
     inkscape:cy="150.98055"
     inkscape:document-units="px"
     inkscape:current-layer="layer1"
     showgrid="false"
     inkscape:window-width="1920"
     inkscape:window-height="1014"
     inkscape:window-x="-4"
     inkscape:window-y="-4"
     inkscape:window-maximized="1" />
  <metadata
     id="metadata7">
    <rdf:RDF>
      <cc:Work
         rdf:about="">
        <dc:format>image/svg+xml</dc:format>
        <dc:type
           rdf:resource="http://purl.org/dc/dcmitype/StillImage" />
        <dc:title />
      </cc:Work>
    </rdf:RDF>
  </metadata>
  <g
     inkscape:label="Ebene 1"
     inkscape:groupmode="layer"
     id="layer1"
     transform="translate(-150.51273,-167.46855)">
    <path
       style="fill:#919100;fill-opacity:1;stroke:none"
       d="m 284.28125,172.5625 c -1.74538,22.36958 14.39351,40.22552 19.46875,60.84375 1.35315,4.93232 0.39042,12.60676 -2.1875,15.59375 -1.64881,-14.99814 -16.29291,-23.45836 -27.5,-31.4375 -11.57589,-7.77305 -23.86173,-15.88896 -30.4044,-28.54092 -4.23678,-6.0431 -3.36402,3.82739 -1.25185,6.60342 8.60853,19.90929 30.36716,29.36078 41.32458,47.47056 2.11086,3.5448 3.20712,9.80142 2.20667,12.59194 -7.12921,-13.30961 -23.986,-15.43685 -37.28125,-18.53125 -13.71106,-2.69323 -28.05095,-5.4838 -39.09547,-14.56205 -6.4719,-3.80022 -1.36257,4.74337 1.50172,6.6558 15.64776,15.00715 39.2771,15.29091 56.34375,27.9375 3.24786,2.46606 6.52517,7.56718 6.75,10.65625 -11.6561,-9.58834 -28.11078,-5.09692 -41.5625,-2.8125 -13.63196,2.69576 -28.05901,5.63972 -41.62481,1.36335 -7.32662,-1.22423 0.38367,4.99957 3.81231,5.57415 20.17747,7.90092 42.27774,-0.83977 62.78125,4.25 3.96129,1.14736 9.01856,4.52024 10.25,7.25 -14.14434,-4.23915 -27.28633,5.66025 -38.64199,12.72057 -11.96869,7.91535 -24.48855,16.63391 -39.02102,17.84362 -7.29599,1.76187 2.32497,4.44426 5.75676,3.68581 21.37218,-0.46665 38.23528,-16.25313 58.65625,-19.9375 4.78963,-0.66955 9.8076,0.16942 13.96875,2.625 -14.40465,1.07308 -23.09422,14.94083 -30.6218,25.70396 -8.21673,12.10334 -16.33912,25.22484 -29.60347,32.17225 -6.12838,4.33744 3.83826,3.28481 6.63152,1.21754 19.43954,-8.54725 28.9525,-29.5177 46.3125,-40.75 3.82966,-2.4749 10.12462,-3.75152 13.53125,-2.78125 -13.35823,7.09947 -15.50981,24.02297 -18.625,37.375 -2.71738,13.69795 -5.44681,28.00485 -14.57773,38.99585 -3.8955,6.34743 4.79365,1.52537 6.64023,-1.4021 14.71125,-15.42784 15.4471,-38.42452 27.28125,-55.5625 2.52472,-3.60798 8.17696,-7.42213 11.34375,-7.5625 -9.50237,11.71163 -5.04886,28.07477 -2.75,41.53125 2.68419,13.5875 5.64431,28.01355 1.38816,41.53116 -1.27629,7.28677 5.0851,-0.37241 5.54934,-3.81241 7.92663,-20.11867 -0.86088,-42.25276 4.25,-62.65625 1.05055,-3.97845 4.53878,-9.04464 7.21875,-10.25 -4.24589,14.12025 5.64683,27.25373 12.7115,38.58539 7.91566,11.91785 16.60187,24.47733 17.85269,39.01512 1.77186,7.30414 4.4467,-2.355 3.68581,-5.78801 -0.47266,-21.74488 -16.91371,-38.80761 -20.0625,-59.65625 -0.40179,-4.49657 0.46164,-8.9845 2.75,-12.84375 1.21939,14.84984 15.54761,23.4638 26.5612,31.248 11.97534,8.02473 24.65326,16.30182 31.4246,29.27295 4.45889,5.96853 3.15343,-3.83717 1.2017,-6.6772 -8.57274,-19.58082 -29.52646,-29.05854 -40.8125,-46.53125 -2.45986,-3.8147 -3.76127,-10.16387 -2.78125,-13.5625 7.18594,13.31015 24.01774,15.4189 37.3125,18.5 13.60943,2.72162 27.98851,5.45437 38.93335,14.57773 6.31147,3.90866 1.58864,-4.78113 -1.4021,-6.60898 -15.5901,-15.02169 -39.25673,-15.36005 -56.28125,-27.9375 -3.43867,-2.82937 -5.92309,-6.57796 -7.03125,-10.84375 11.36086,9.58139 27.56548,5.52734 40.77665,3.27929 13.99298,-2.73286 28.85419,-5.98946 42.78566,-1.58014 7.32662,1.22423 -0.38367,-4.99957 -3.81231,-5.57415 -20.19182,-7.92269 -42.3658,0.79027 -62.84375,-4.3125 -3.84048,-0.97605 -9.32203,-4.83401 -10.28125,-7.25 13.64662,4.1491 26.76776,-5.22975 37.80537,-12.17279 12.27511,-8.03694 24.86369,-17.11773 39.85871,-18.389 7.33292,-1.7411 -2.27379,-4.44525 -5.72658,-3.68821 -21.73854,0.42988 -38.84615,16.92659 -59.71875,20.09375 -4.04171,0.5466 -10.3286,-0.76119 -12.4375,-2.78125 14.98363,-1.65337 23.42396,-16.24972 31.34375,-27.46875 7.73381,-11.52384 15.83043,-23.72243 28.36413,-30.42383 5.85846,-4.38309 -3.8273,-3.14596 -6.58288,-1.20117 -19.4949,8.54923 -29.02162,29.59882 -46.3125,40.75 -3.82246,2.40893 -10.05607,3.82682 -13.53125,2.71875 13.33658,-7.11892 15.43523,-23.98567 18.53125,-37.28125 2.70502,-13.62101 5.42401,-27.98027 14.51523,-38.9021 3.90227,-6.34502 -4.83935,-1.52535 -6.67148,1.43335 -14.62659,15.36195 -15.4446,38.40669 -27.15625,55.375 -2.5823,3.54809 -7.81708,7.33392 -11.375,7.625 9.55152,-11.70564 5.07471,-28.06131 2.8125,-41.5 -2.75007,-13.62548 -5.60152,-28.02193 -1.43849,-41.56198 1.14923,-7.42201 -4.94953,0.40473 -5.53026,3.87448 -7.89289,20.07194 0.82897,42.17065 -4.28125,62.59375 -1.11589,3.9527 -4.27137,8.67217 -7.1875,10.34375 4.17182,-14.08513 -5.6276,-27.29348 -12.72057,-38.61074 -7.88616,-11.81657 -16.50344,-24.20631 -17.89304,-38.63768 -1.82485,-5.49952 -1.89626,-2.21761 -3.57389,0.90467 z"
       id="path5773"
       inkscape:connector-curvature="0" />
    <path
       inkscape:connector-curvature="0"
       style="fill:url(#radialGradient3038);fill-opacity:1;stroke:#000000;stroke-width:5.99088478;stroke-linejoin:round;stroke-miterlimit:10;stroke-opacity:1;stroke-dasharray:none;stroke-dashoffset:0"
       d="m 153.78792,463.36605 105.51271,0 0,-102.36109 105.51271,0 0,102.04656 103.15709,0"
       id="rect2910"
       sodipodi:nodetypes="cccccc" />
    <path
       style="fill:#d6d600;fill-opacity:1;stroke:none"
       d="m 313.2277,254.42919 c 30.49057,-13.10409 5.55639,-52.32753 20.40987,-82.00531 -10.43475,27.67852 19.107,70.98035 -6.4686,85.843 33.22658,-0.33617 25.15315,-46.27526 50.29229,-67.99543 -20.11435,21.59075 -9.46386,72.88687 -38.76459,76.86233 30.79285,12.49387 40.96396,-33.10731 72.50419,-43.57096 -26.95581,12.24647 -36.71417,63.74057 -65.40453,56.27115 23.81942,23.33248 50.80401,-14.98317 84.05691,-12.53281 -29.71568,0.92134 -58.60392,44.90795 -82.28578,26.92811 13.13029,30.58074 52.53445,5.59166 82.28424,20.50939 -27.76498,-10.49541 -71.27939,19.10257 -86.14591,-6.58817 0.30201,33.23467 46.29621,25.17056 68.01703,50.31829 -21.52807,-20.17954 -73.02235,-9.52591 -76.8678,-38.85858 -12.50842,30.90422 33.18802,41.15796 43.63906,72.81689 -12.13119,-27.10884 -63.95578,-36.99028 -56.31921,-65.7412 -23.3342,23.81776 14.9267,50.79621 12.48691,84.04989 -0.91792,-29.68454 -44.90443,-58.55079 -26.94234,-82.20685 -30.52604,13.08061 -5.51076,52.42635 -20.40148,82.1115 10.52779,-27.68213 -19.142,-71.14178 6.50422,-85.95312 -33.28723,0.26178 -25.22433,46.36124 -50.42165,68.10561 20.19342,-21.61449 9.56061,-73.07902 38.93405,-77.02045 -30.82248,-12.42881 -40.97658,33.13197 -72.51748,43.60397 26.96772,-12.16478 36.73248,-63.85091 65.44571,-56.2401 -23.84186,-23.33921 -50.82425,14.95057 -84.09809,12.50177 29.71572,-0.92028 58.59737,-44.91725 82.27902,-26.93716 -13.09021,-30.5574 -52.46375,-5.54384 -82.18369,-20.43791 27.71822,10.49841 71.1654,-19.13852 86.00134,6.52062 -0.29659,-33.26401 -46.30115,-25.1912 -68.06003,-50.34436 21.62986,20.15198 73.09362,9.50257 76.95482,38.88072 12.50842,-30.90422 -33.18126,-41.14892 -43.63229,-72.80785 12.13118,27.10885 63.94901,36.98124 56.31244,65.73216 23.21299,-23.73069 -14.97689,-50.4966 -12.54238,-83.6033 0.9161,29.12 44.88641,58.37833 26.93375,81.78816 z"
       id="path3023"
       inkscape:connector-curvature="0"
       sodipodi:nodetypes="ccccccccccccccccccccccccccccccccc" />
    <path
       sodipodi:type="arc"
       style="fill:url(#radialGradient5760);fill-opacity:1;stroke:none"
       id="path5722"
       sodipodi:cx="162.63457"
       sodipodi:cy="121.50503"
       sodipodi:rx="27.779196"
       sodipodi:ry="26.769043"
       d="m 190.41376,121.50503 a 27.779196,26.769043 0 1 1 -55.55839,0 27.779196,26.769043 0 1 1 55.55839,0 z"
       transform="matrix(2.0221476,0,0,2.1284685,-14.692532,36.251596)" />
  </g>
</svg>
