<?xml version="1.0" encoding="UTF-8" standalone="no"?>
<!-- Created with Inkscape (http://www.inkscape.org/) -->

<svg
   xmlns:dc="http://purl.org/dc/elements/1.1/"
   xmlns:cc="http://creativecommons.org/ns#"
   xmlns:rdf="http://www.w3.org/1999/02/22-rdf-syntax-ns#"
   xmlns:svg="http://www.w3.org/2000/svg"
   xmlns="http://www.w3.org/2000/svg"
   xmlns:xlink="http://www.w3.org/1999/xlink"
   xmlns:sodipodi="http://sodipodi.sourceforge.net/DTD/sodipodi-0.dtd"
   xmlns:inkscape="http://www.inkscape.org/namespaces/inkscape"
   width="256"
   height="256"
   id="svg2"
   sodipodi:version="0.32"
   inkscape:version="0.91 r13725"
   sodipodi:docname="CompositorLogo.svg"
   inkscape:output_extension="org.inkscape.output.svg.inkscape"
   inkscape:export-filename="CompositorLogo.png"
   inkscape:export-xdpi="90"
   inkscape:export-ydpi="90"
   version="1.0"
   style="enable-background:new">
  <defs
     id="defs4">
    <radialGradient
       inkscape:collect="always"
       xlink:href="#linearGradient4142"
       id="radialGradient4154"
       cx="1682.8572"
       cy="522.36218"
       fx="1682.8572"
       fy="522.36218"
       r="14.285714"
       gradientTransform="matrix(1,0,0,0.59999999,0,208.94488)"
       gradientUnits="userSpaceOnUse" />
    <linearGradient
       inkscape:collect="always"
       id="linearGradient4142">
      <stop
         style="stop-color:#ffffff;stop-opacity:1;"
         offset="0"
         id="stop4144" />
      <stop
         style="stop-color:#ffffff;stop-opacity:0;"
         offset="1"
         id="stop4146" />
    </linearGradient>
    <radialGradient
       inkscape:collect="always"
       xlink:href="#linearGradient4142"
       id="radialGradient4152"
       cx="1682.8572"
       cy="522.36218"
       fx="1682.8572"
       fy="522.36218"
       r="14.285714"
       gradientTransform="matrix(1,0,0,0.59999999,0,208.94488)"
       gradientUnits="userSpaceOnUse" />
    <linearGradient
       inkscape:collect="always"
       xlink:href="#linearGradient3816"
       id="linearGradient3822"
       x1="1603.6793"
       y1="632.367"
       x2="1610.3125"
       y2="718.43842"
       gradientUnits="userSpaceOnUse"
       gradientTransform="translate(19.8222,13.99716)" />
    <linearGradient
       inkscape:collect="always"
       id="linearGradient3816">
      <stop
         style="stop-color:#ececec;stop-opacity:1;"
         offset="0"
         id="stop3818" />
      <stop
         style="stop-color:#ececec;stop-opacity:0;"
         offset="1"
         id="stop3820" />
    </linearGradient>
    <linearGradient
       inkscape:collect="always"
       xlink:href="#linearGradient3996"
       id="linearGradient4120"
       gradientUnits="userSpaceOnUse"
       gradientTransform="matrix(0.77057399,-0.33550559,0.26519013,0.92594413,-1164.75,666.70181)"
       x1="1739.6583"
       y1="447.80368"
       x2="1849.2484"
       y2="682.13495" />
    <linearGradient
       id="linearGradient3996">
      <stop
         style="stop-color:#334b69;stop-opacity:1;"
         offset="0"
         id="stop3998" />
      <stop
         id="stop3809"
         offset="0.2585929"
         style="stop-color:#8abcd1;stop-opacity:1" />
      <stop
         style="stop-color:#55b5a8;stop-opacity:1"
         offset="0.70750356"
         id="stop3844" />
      <stop
         style="stop-color:#4ba546;stop-opacity:1;"
         offset="1"
         id="stop4000" />
    </linearGradient>
  </defs>
  <sodipodi:namedview
     id="base"
     pagecolor="#ffffff"
     bordercolor="#666666"
     borderopacity="1.0"
     inkscape:pageopacity="0.0"
     inkscape:pageshadow="2"
     inkscape:zoom="2.8284271"
     inkscape:cx="171.40333"
     inkscape:cy="101.41489"
     inkscape:document-units="px"
     inkscape:current-layer="layer2"
     showgrid="true"
     inkscape:snap-global="false"
     showguides="true"
     inkscape:guide-bbox="true"
     inkscape:window-width="1440"
     inkscape:window-height="852"
     inkscape:window-x="0"
     inkscape:window-y="0"
     inkscape:window-maximized="1">
    <inkscape:grid
       type="xygrid"
       id="grid3176"
       visible="false"
       enabled="true" />
  </sodipodi:namedview>
  <metadata
     id="metadata7">
    <rdf:RDF>
      <cc:Work
         rdf:about="">
        <dc:format>image/svg+xml</dc:format>
        <dc:type
           rdf:resource="http://purl.org/dc/dcmitype/StillImage" />
        <dc:title />
      </cc:Work>
    </rdf:RDF>
  </metadata>
  <g
     inkscape:groupmode="layer"
     id="layer2"
     inkscape:label="ACF_Logo"
     style="display:inline"
     transform="translate(-214.15812,-422.24623)">
    <path
       style="opacity:1;fill:#784421;fill-opacity:1;stroke:none;stroke-width:1;stroke-miterlimit:4;stroke-dasharray:none"
       d="m 470.15812,527.07247 c -16.89543,-0.92657 -28.20298,-13.74148 -40.77014,-22.24022 7.15376,-14.99761 27.61836,-47.35908 27.99523,-56.7481 -19.77987,1.49864 -92.01529,14.20382 -110.70778,11.61073 3.25044,16.49576 -0.33216,36.81732 -5.13585,37.85443 -7.4287,1.60388 -29.17093,-18.71235 -30.59874,-11.22902 -1.10591,5.79545 18.39572,16.89756 26.94108,23.59138 -8.88155,37.9683 -75.31221,-20.05209 -79.96187,-7.32139 -4.89399,13.39953 58.07638,35.08102 69.97368,41.75221 -8.20352,26.50461 -37.62832,8.17453 -50.76127,4.28935 -21.80829,-6.45161 -52.86446,-12.38 -54.354,-3.6794 -2.68759,14.11866 38.77101,19.04422 49.8566,23.63075 -7.26116,2.52101 -19.02916,8.83068 -23.94354,24.282 -20.77708,-3.7373 -27.19863,-5.73508 -32.58556,-0.47812 -8.09858,8.94748 19.96569,18.18271 28.9647,18.80818 0.76607,20.98516 30.4733,54.37903 77.4578,18.45204 8.43885,22.10766 41.37544,21.50399 58.9596,5.67453 6.53101,1.00395 10.16378,0.15366 18.92022,0.97788 -46.36061,8.21832 -74.18792,42.01497 -34.1292,42.01478 l 103.87904,-4.9e-4 z m -94.44006,-30.45973 c 11.81716,-0.1796 26.77669,11.23326 32.16352,14.94973 -7.19269,19.72829 -8.45696,18.63779 -45.13629,-5.70798 2.87906,-6.68409 7.60132,-9.16011 12.97277,-9.24175 z m -12.26071,29.42922 c 7.85005,0.25004 19.00265,8.88349 33.75861,15.70135 -4.44821,14.01468 -12.06561,9.2837 -44.38528,-4.8934 2.39598,-8.08975 5.91663,-10.95799 10.62667,-10.80795 z m -4.10567,24.69717 c 8.89905,0.0361 20.6837,6.59292 34.49232,13.22415 -4.24499,22.76492 -5.12109,22.24052 -50.71799,6.33761 2.76777,-14.54793 8.37358,-19.59358 16.22567,-19.56176 z"
       id="rect4663"
       inkscape:connector-curvature="0"
       sodipodi:nodetypes="ccccsccscsccccccccsccsccssccssccs" />
    <path
       style="fill:url(#linearGradient4120);fill-opacity:1;stroke:none"
       d="m 351.92776,465.50698 c 1.20564,6.84686 -4.25948,31.81028 -6.99143,39.33118 -6.48482,-1.56997 -17.52066,-10.3901 -23.48821,-11.93261 4.26149,5.48303 17.37871,11.24324 22.48579,15.60502 -1.82927,10.58812 -5.23584,20.66714 -7.80302,28.98378 -16.80436,-4.83089 -53.68902,-25.45331 -53.6417,-20.99637 0.0554,5.21963 38.03411,15.22487 53.01783,23.31211 l -9.79109,33.52909 c -10.19645,-3.95843 -32.06336,-11.14884 -45.93321,-15.10151 -13.03256,-3.23291 -37.71121,-13.21969 -39.50846,-8.41431 -1.88701,5.04539 64.14023,19.6966 84.83232,24.87815 -2.37215,7.44668 -1.93998,8.01348 -4.54483,12.99767 -8.67689,-10.42942 -31.16944,-21.79815 -46.00148,-14.89442 -9.67208,4.50198 -18.66024,13.00531 -17.30855,31.73217 -21.3287,-5.48566 -35.21572,-11.09513 -32.04785,-6.39282 3.02901,4.49619 17.18155,4.49544 32.25895,8.22214 3.99763,16.15949 17.29859,22.7098 29.85864,24.27344 12.13222,1.51039 19.85313,-1.89547 25.9019,-6.76358 9.35495,-7.52891 12.53867,-1.76895 16.23855,-0.84494 8.46514,14.61245 35.1641,18.26452 52.89906,6.73172 23.99352,2.603 28.83908,8.18341 28.04788,8.12382 -22.64015,0.67104 -118.13882,40.91501 59.74927,40.91501 l 0,-122.84542 c -1.48694,-12.57433 -35.1136,-31.11864 -46.63316,-44.44288 8.21988,-22.48279 15.87088,-33.02722 26.76268,-57.50897 -25.89248,2.27955 -83.40041,13.61643 -98.35988,11.50253 z m 69.86266,17.58838 -7.30005,22.36344 c -16.1108,-9.81666 -14.50104,-10.81684 -13.59637,-15.43642 1.07099,-5.46881 16.52701,-4.96235 20.89642,-6.92702 z m -48.71824,4.92337 c 4.00551,0.0635 7.50262,1.5553 11.41449,2.79764 10.99983,4.03963 20.15321,11.62022 28.69557,17.71897 -3.79285,12.67889 -5.69096,19.39037 -7.66751,28.62174 -18.00844,-5.65985 -36.22234,-19.88932 -52.05333,-28.83666 0.61644,-3.31126 3.26229,-11.53419 4.62993,-16.17995 0.94168,-1.19785 1.86385,-2.0643 2.5982,-2.32782 2.96743,-1.34634 9.97948,-1.83204 12.38265,-1.79392 z m -21.01487,24.97462 c 7.51081,5.3673 45.02145,22.18855 52.62767,27.22374 l -5.26798,20.32703 c -19.73967,-10.88235 -36.26545,-14.0883 -55.40739,-20.52324 z m 70.86181,1.6824 c 15.97549,16.17154 44.04863,28.62233 34.96181,52.41557 -4.78346,-5.94101 -17.80232,-14.1291 -44.59661,-26.69684 0,0 4.78135,-15.04666 7.38853,-21.82175 0.41665,-1.08293 1.2802,-4.37737 2.24682,-3.89694 z m 4.88671,36.66443 c 18.71244,7.97338 21.50049,12.90963 23.39357,16.64627 0.83935,1.65676 3.19041,8.40709 1.15949,13.30958 -3.40028,8.20803 -27.09135,-5.02489 -46.29431,-18.05419 0.68771,-2.99223 4.33054,-13.53271 6.17679,-19.23361 0,0 13.11464,6.27641 15.56446,7.33195 z m -83.4332,-8.60401 c 12.94468,3.57843 20.86028,4.79324 30.96587,8.67725 8.03628,3.08869 24.01378,9.28982 23.44353,11.57439 l -7.77608,31.15453 C 377.213,583.1142 363.39688,577.95609 349.77857,580.60231 c -1.39723,-0.85675 -14.01412,-4.2738 -16.0063,-6.45129 l 8.67777,-29.51415 c 1.08662,-2.16228 1.34637,-2.18115 1.92259,-1.9007 z m 61.12183,22.60303 c 20.77731,18.2012 49.74394,21.57611 39.59624,36.24598 -26.04515,-7.2252 -32.66919,-1.96413 -48.37097,-5.88266 z m -70.67567,11.77239 c 0.49022,-0.005 13.65475,3.55568 14.1164,3.76103 -16.96693,4.16509 -24.16693,21.33053 -20.72035,38.82699 -2.67466,2.31987 -4.22935,-1.83269 -5.87335,-6.00006 l 9.19637,-31.9244 c 0.66865,-1.1867 1.20264,-5.1125 3.28093,-4.66356 z m 61.2211,21.38473 c 19.43254,5.42938 44.52769,-3.641 45.65132,13.17367 -4.85123,6.86226 -7.13931,15.93374 -23.12511,20.2347 -3.82377,1.04025 -12.03911,0.27288 -33.85338,-4.13044 6.12091,-6.1444 9.15162,-19.59102 11.32729,-29.27793 z"
       id="rect3818"
       inkscape:connector-curvature="0"
       sodipodi:nodetypes="cccccscccsccacscssccccccccccscccccccscccccccccscccssccccasccccccccccccccccccccc" />
    <g
       transform="matrix(1.1081167,0,0,1.366287,-1362.9847,-415.36175)"
       id="g3839">
      <ellipse
         ry="8.5714283"
         rx="14.285714"
         cy="522.36218"
         cx="1682.8572"
         transform="matrix(0.69539066,-0.24556012,0.23931607,0.67770837,188.04999,789.18467)"
         id="path3988"
         style="fill:url(#radialGradient4154);fill-opacity:1;stroke:none" />
      <ellipse
         ry="8.5714283"
         rx="14.285714"
         cy="522.36218"
         cx="1682.8572"
         style="fill:url(#radialGradient4152);fill-opacity:1;stroke:none"
         id="path3990"
         transform="matrix(0.69539066,-0.24556012,0.23931607,0.67770837,251.6218,795.75719)" />
      <path
         sodipodi:nodetypes="cccccsccccc"
         inkscape:connector-curvature="0"
         id="path3040"
         d="m 1550.9756,647.99364 c 0.685,6.70263 -16.9257,55.47784 -29.7062,88.56969 1.3159,2.57641 0.6652,2.9795 0.7063,7.65948 7.6854,-22.6645 24.2543,-69.27287 31.4509,-86.07032 4.5167,-2.60726 20.6477,-2.22186 32.6417,4.87324 -5.219,-4.20774 -4.7373,-6.4267 -1.2284,-6.81158 10.535,-1.15558 22.8617,-2.51024 31.6073,-3.46699 -14.9865,29.34123 -21.6043,55.96319 -32.0827,87.34794 2.0354,3.19454 1.3807,3.00952 0.8372,7.7253 8.9604,-36.86312 26.8493,-79.91302 44.308,-107.69824 -28.6138,4.51872 -76.7435,8.7893 -78.5341,7.87148 z"
         style="color:#000000;font-style:normal;font-variant:normal;font-weight:normal;font-stretch:normal;font-size:medium;line-height:normal;font-family:Sans;-inkscape-font-specification:Sans;text-indent:0;text-align:start;text-decoration:none;text-decoration-line:none;letter-spacing:normal;word-spacing:normal;text-transform:none;direction:ltr;block-progression:tb;writing-mode:lr-tb;baseline-shift:baseline;text-anchor:start;display:inline;overflow:visible;visibility:visible;fill:url(#linearGradient3822);fill-opacity:1;stroke:none;stroke-width:1px;marker:none;enable-background:accumulate" />
    </g>
  </g>
  <g
     inkscape:groupmode="layer"
     id="layer5"
     inkscape:label="Notes"
     style="display:inline"
     transform="translate(-214.15812,-422.24623)" />
</svg>
