<?xml version="1.0" encoding="UTF-8" standalone="no"?>
<!-- Created with Inkscape (http://www.inkscape.org/) -->

<svg
   xmlns:dc="http://purl.org/dc/elements/1.1/"
   xmlns:cc="http://creativecommons.org/ns#"
   xmlns:rdf="http://www.w3.org/1999/02/22-rdf-syntax-ns#"
   xmlns:svg="http://www.w3.org/2000/svg"
   xmlns="http://www.w3.org/2000/svg"
   xmlns:xlink="http://www.w3.org/1999/xlink"
   xmlns:sodipodi="http://sodipodi.sourceforge.net/DTD/sodipodi-0.dtd"
   xmlns:inkscape="http://www.inkscape.org/namespaces/inkscape"
   width="400"
   height="300"
   id="svg2"
   version="1.1"
   inkscape:version="0.48.4 r9939"
   sodipodi:docname="CompositorSplashScreen.svg">
  <defs
     id="defs4">
    <linearGradient
       inkscape:collect="always"
       id="linearGradient3816">
      <stop
         style="stop-color:#ececec;stop-opacity:1;"
         offset="0"
         id="stop3818" />
      <stop
         style="stop-color:#ececec;stop-opacity:0;"
         offset="1"
         id="stop3820" />
    </linearGradient>
    <linearGradient
       inkscape:collect="always"
       id="linearGradient4142">
      <stop
         style="stop-color:#ffffff;stop-opacity:1;"
         offset="0"
         id="stop4144" />
      <stop
         style="stop-color:#ffffff;stop-opacity:0;"
         offset="1"
         id="stop4146" />
    </linearGradient>
    <linearGradient
       inkscape:collect="always"
       id="linearGradient4004">
      <stop
         style="stop-color:#0a0a0a;stop-opacity:1;"
         offset="0"
         id="stop4006" />
      <stop
         style="stop-color:#0a0a0a;stop-opacity:0;"
         offset="1"
         id="stop4008" />
    </linearGradient>
    <linearGradient
       inkscape:collect="always"
       id="linearGradient3996">
      <stop
         style="stop-color:#deaa87;stop-opacity:1;"
         offset="0"
         id="stop3998" />
      <stop
         style="stop-color:#deaa87;stop-opacity:0;"
         offset="1"
         id="stop4000" />
    </linearGradient>
    <radialGradient
       r="110.768"
       fy="-10.650517"
       fx="185.78894"
       cy="-10.650517"
       cx="185.78894"
       gradientTransform="matrix(0.17275891,0.19874467,-0.90381059,0.73086079,158.8611,270.28806)"
       gradientUnits="userSpaceOnUse"
       id="radialGradient3780"
       xlink:href="#linearGradient3174"
       inkscape:collect="always" />
    <radialGradient
       r="110.768"
       fy="-13.075346"
       fx="177.52515"
       cy="-13.075346"
       cx="177.52515"
       gradientTransform="matrix(0.74409846,-0.83457923,0.70059701,0.58108967,77.648188,455.1853)"
       gradientUnits="userSpaceOnUse"
       id="radialGradient3778"
       xlink:href="#linearGradient3164"
       inkscape:collect="always" />
    <linearGradient
       gradientTransform="translate(257.08066,320.91015)"
       gradientUnits="userSpaceOnUse"
       y2="76.830009"
       x2="-81.235634"
       y1="76.830009"
       x1="-145.65298"
       id="linearGradient3792"
       xlink:href="#linearGradient3164"
       inkscape:collect="always" />
    <radialGradient
       gradientUnits="userSpaceOnUse"
       gradientTransform="matrix(0.16910395,0.19859899,-0.88468918,0.73032504,144.16435,-74.341942)"
       r="110.768"
       fy="-10.650517"
       fx="185.78894"
       cy="-10.650517"
       cx="185.78894"
       id="radialGradient3180"
       xlink:href="#linearGradient3174"
       inkscape:collect="always" />
    <radialGradient
       gradientUnits="userSpaceOnUse"
       gradientTransform="matrix(0.72835599,-0.83396746,0.68577488,0.58066372,64.669628,110.41978)"
       r="110.768"
       fy="-13.075346"
       fx="177.52515"
       cy="-13.075346"
       cx="177.52515"
       id="radialGradient3170"
       xlink:href="#linearGradient3164"
       inkscape:collect="always" />
    <inkscape:perspective
       sodipodi:type="inkscape:persp3d"
       inkscape:vp_x="0 : 495 : 1"
       inkscape:vp_y="0 : 1000 : 0"
       inkscape:vp_z="765 : 495 : 1"
       inkscape:persp3d-origin="382.5 : 330 : 1"
       id="perspective3324" />
    <inkscape:perspective
       sodipodi:type="inkscape:persp3d"
       inkscape:vp_x="0 : 526.18109 : 1"
       inkscape:vp_y="0 : 1000 : 0"
       inkscape:vp_z="744.09448 : 526.18109 : 1"
       inkscape:persp3d-origin="372.04724 : 350.78739 : 1"
       id="perspective3188" />
    <inkscape:perspective
       sodipodi:type="inkscape:persp3d"
       inkscape:vp_x="0 : 526.18109 : 1"
       inkscape:vp_y="0 : 1000 : 0"
       inkscape:vp_z="744.09448 : 526.18109 : 1"
       inkscape:persp3d-origin="372.04724 : 350.78739 : 1"
       id="perspective2390" />
    <inkscape:perspective
       id="perspective10"
       inkscape:persp3d-origin="372.04724 : 350.78739 : 1"
       inkscape:vp_z="744.09448 : 526.18109 : 1"
       inkscape:vp_y="0 : 1000 : 0"
       inkscape:vp_x="0 : 526.18109 : 1"
       sodipodi:type="inkscape:persp3d" />
    <linearGradient
       id="linearGradient3164">
      <stop
         id="stop3166"
         offset="0"
         style="stop-color:#ffffff;stop-opacity:1;" />
      <stop
         style="stop-color:#0af27e;stop-opacity:1;"
         offset="0.7562812"
         id="stop3172" />
      <stop
         id="stop3168"
         offset="1"
         style="stop-color:#0af27e;stop-opacity:0.78431374;" />
    </linearGradient>
    <linearGradient
       id="linearGradient3174">
      <stop
         id="stop3176"
         offset="0"
         style="stop-color:#ffe2c0;stop-opacity:1;" />
      <stop
         style="stop-color:#000000;stop-opacity:1;"
         offset="0.84038174"
         id="stop3182" />
      <stop
         id="stop3178"
         offset="1"
         style="stop-color:#000000;stop-opacity:1;" />
    </linearGradient>
    <linearGradient
       inkscape:collect="always"
       xlink:href="#linearGradient3996"
       id="linearGradient4120"
       gradientUnits="userSpaceOnUse"
       gradientTransform="matrix(0.69539066,-0.24556012,0.23931607,0.67770837,179.07115,791.97669)"
       x1="1357.1875"
       y1="645.7113"
       x2="2093.1875"
       y2="645.7113" />
    <radialGradient
       inkscape:collect="always"
       xlink:href="#linearGradient4142"
       id="radialGradient4148"
       cx="1682.8572"
       cy="522.36218"
       fx="1682.8572"
       fy="522.36218"
       r="14.285714"
       gradientTransform="matrix(1,0,0,0.59999999,0,208.94488)"
       gradientUnits="userSpaceOnUse" />
    <radialGradient
       inkscape:collect="always"
       xlink:href="#linearGradient4142"
       id="radialGradient4150"
       cx="1682.8572"
       cy="522.36218"
       fx="1682.8572"
       fy="522.36218"
       r="14.285714"
       gradientTransform="matrix(1,0,0,0.59999999,0,208.94488)"
       gradientUnits="userSpaceOnUse" />
    <radialGradient
       inkscape:collect="always"
       xlink:href="#linearGradient4142"
       id="radialGradient4152"
       cx="1682.8572"
       cy="522.36218"
       fx="1682.8572"
       fy="522.36218"
       r="14.285714"
       gradientTransform="matrix(1,0,0,0.59999999,0,208.94488)"
       gradientUnits="userSpaceOnUse" />
    <radialGradient
       inkscape:collect="always"
       xlink:href="#linearGradient4142"
       id="radialGradient4154"
       cx="1682.8572"
       cy="522.36218"
       fx="1682.8572"
       fy="522.36218"
       r="14.285714"
       gradientTransform="matrix(1,0,0,0.59999999,0,208.94488)"
       gradientUnits="userSpaceOnUse" />
    <linearGradient
       inkscape:collect="always"
       xlink:href="#linearGradient4004"
       id="linearGradient3038"
       gradientUnits="userSpaceOnUse"
       gradientTransform="matrix(0.69539066,-0.24556012,0.23931607,0.67770837,179.07115,791.97669)"
       x1="1301.1296"
       y1="578.42053"
       x2="2093.1616"
       y2="578.42053" />
    <linearGradient
       inkscape:collect="always"
       xlink:href="#linearGradient3816"
       id="linearGradient3822"
       x1="1603.6793"
       y1="632.367"
       x2="1610.3125"
       y2="718.43842"
       gradientUnits="userSpaceOnUse"
       gradientTransform="translate(20,6)" />
  </defs>
  <sodipodi:namedview
     id="base"
     pagecolor="#764e26"
     bordercolor="#666666"
     borderopacity="1.0"
     inkscape:pageopacity="1"
     inkscape:pageshadow="2"
     inkscape:zoom="7.919596"
     inkscape:cx="244.67855"
     inkscape:cy="121.74946"
     inkscape:document-units="px"
     inkscape:current-layer="layer1"
     showgrid="false"
     fit-margin-top="0"
     fit-margin-left="0"
     fit-margin-right="0"
     fit-margin-bottom="0"
     inkscape:window-width="1680"
     inkscape:window-height="988"
     inkscape:window-x="-8"
     inkscape:window-y="-8"
     inkscape:window-maximized="1" />
  <metadata
     id="metadata7">
    <rdf:RDF>
      <cc:Work
         rdf:about="">
        <dc:format>image/svg+xml</dc:format>
        <dc:type
           rdf:resource="http://purl.org/dc/dcmitype/StillImage" />
        <dc:title />
      </cc:Work>
    </rdf:RDF>
  </metadata>
  <g
     inkscape:label="Layer 1"
     inkscape:groupmode="layer"
     id="layer1"
     transform="translate(-1301.1296,-576.18474)">
    <path
       style="fill:url(#linearGradient3038);fill-opacity:1"
       d="m 1301.3074,576.07659 c 0,100.03699 0,200.07397 0,300.11096 33.3144,0 66.6287,0 99.9431,0 6.3755,-8.47207 26.3874,-10.87304 18.2733,-23.03584 10.8755,-9.704 36.2041,18.56346 41.5476,2.97008 21.783,-4.60481 53.3252,-48.21578 92.9866,-67.02293 39.8275,-18.88588 43.6976,-17.41386 61.5195,-18.87577 10.0062,-0.8208 -28.4746,-6.74232 -39.3627,-9.27794 -8.3733,0.9979 -44.749,10.08489 -53.4606,-4.08977 -45.6268,29.10689 -73.6158,21.67661 -69.9002,-9.46434 -17.0355,-3.51081 -38.6363,-7.30136 -55.3079,-12.69537 -8.4705,-2.75507 -31.8635,-7.08477 -12.7847,-14.19979 19.088,-3.89707 38.9729,2.91627 57.7228,5.65164 5.1925,1.31791 31.47,-9.36223 30.6991,-11.45992 -2.3004,-6.25933 -25.4503,-9.0121 -38.2202,-12.61977 -9.1208,-2.57674 -25.7847,-9.86445 -25.1168,-13.02865 1.3442,-6.36807 50.7455,3.7991 70.426,8.5211 11.8516,2.8436 34.3385,10.75429 36.1858,5.24489 3.9185,-11.6863 -31.22,-14.2784 -45.0224,-28.00869 -19.3028,-11.87437 15.6816,-10.43417 22.6329,-6.31476 8.6094,2.67429 35.0111,14.53309 34.8521,2.54493 -8.2167,-4.01539 -32.6173,-21.15434 -10.8915,-21.01721 16.0481,9.03253 24.8961,-1.67385 26.0014,-15.91873 16.8687,0.77291 75.5324,-14.05437 92.1273,-7.36698 0.5438,10.53373 -13.4472,27.56772 -17.8561,38.19108 25.826,14.16505 76.1807,53.43468 83.1534,-40.12163 0,-16.23887 0,-32.47773 0,-48.71659 -133.3826,0 -266.7652,0 -400.1478,0 z m 256.224,90.17462 c 30.8025,17.28859 38.4838,17.37976 40.7321,4.17786 -7.0709,-3.95655 -35.4232,-21.60052 -40.7321,-4.17786 z m -7.0025,20.03394 c 24.9058,10.41296 34.3769,16.92373 38.1112,6.23364 -15.9398,-6.8844 -36.8784,-19.33269 -38.1112,-6.23364 z m -10.7014,27.1341 c 31.9557,-1.2652 41.9384,12.02377 45.7692,-4.63813 -16.2088,-5.95396 -39.2033,-10.1222 -45.7692,4.63813 z m -64.9441,109.06548 c 19.5771,3.94311 -17.0415,12.32467 0,0 z m -58.4085,48.107 0.2032,0.21883 z"
       id="path3000"
       inkscape:connector-curvature="0"
       sodipodi:nodetypes="cccccssccccccssssscccccccccccccccccccccccc" />
    <path
       style="fill:url(#linearGradient4120);fill-opacity:1;stroke:none"
       d="m 1626.9204,629.70357 c 0,-1.50299 -3.6108,0.73443 -4.8613,0.51582 -23.5282,2.50725 -47.0644,4.92296 -70.3384,9.25341 -0.418,0.14226 -0.7455,0.41903 -1.1099,0.65651 -2.7733,3.33715 -3.7893,8.33627 -4.9237,13.208 l -3.1886,9.3941 c -0.3137,0.53741 -0.6555,1.0546 -1.0317,1.53181 -5.6311,1.10482 -11.5244,-5.47701 -17.1938,-5.59582 3.8457,4.01308 12.558,4.94604 15.9041,9.6537 0.6679,1.27754 -1.3454,3.24755 -1.1486,4.6172 l -4.9237,14.52101 c -12.4975,-3.70538 -27.455,-10.01568 -40.3431,-10.50389 9.9908,5.94703 27.6279,10.68614 38.2329,16.69367 l -7.8792,21.99449 c -9.2016,-2.89721 -28.935,-8.15995 -41.4516,-11.05294 -11.761,-2.36621 -33.9619,-9.64255 -35.6537,-6.15853 -2.2029,4.53653 57.8822,14.41615 76.5554,18.20858 -2.1407,5.45031 -1.7507,5.86515 -4.1014,9.51314 -7.8303,-7.63341 -28.1283,-15.95431 -41.5132,-10.9014 -8.7284,3.29505 -16.8396,9.51873 -15.6198,23.22512 -19.2477,-4.01501 -48.9202,-12.98242 -58.921,-10.33058 -0.3061,0.0812 -0.2684,0.40143 0.2034,0.67107 18.5515,6.52687 38.7674,6.83964 58.9081,10.99841 3.6076,11.82731 15.6108,16.62155 26.9454,17.766 10.9485,1.10546 17.9161,-1.38732 23.3747,-4.95035 8.4422,-5.51049 13.3153,-1.2947 16.6542,-0.61842 7.6392,10.69502 31.3721,11.69122 45.2517,4.75024 31.7173,5.54818 44.6679,5.33315 61.6762,11.18048 3.4736,1.14725 2.8645,5.23238 0.719,7.36209 1.5461,-0.19851 5.8158,-1.85833 7.409,0.71903 1.7741,4.51778 -23.3173,8.31184 -26.2053,11.19164 -1.1071,1.51897 -4.8051,3.44731 -3.267,5.56456 4.0316,0.62764 8.4351,-4.2475 12.7704,-2.29773 3.6659,3.20207 8.6806,3.18995 13.2705,3.79827 4.2622,1.32343 1.3787,7.1229 -1.6725,8.33121 -2.9862,1.4765 -5.1526,-1.28132 -7.0338,-2.82917 -2.61,-1.03487 -3.3893,1.8739 -4.7517,3.2512 3.6198,-0.99605 5.311,3.20088 5.0331,6.06474 1.2009,7.02558 -7.6548,6.36492 -11.5512,3.5482 -3.677,-1.45529 -0.034,-5.00051 1.7663,-6.5962 1.29,-1.24522 3.0656,-2.27263 0.1407,-1.20356 -8.7614,0.43108 -12.3906,9.46452 -18.8351,13.98954 -5.3284,3.35719 -11.1745,6.00849 -15.4432,10.8165 -2.1,1.70292 2.3831,1.62753 2.3915,3.53256 0.465,4.05926 -5.266,4.85826 -7.9717,6.47114 -1.9219,1.33959 -6.4767,1.45413 -6.4242,4.36098 -0.1501,3.67288 4.1225,1.28918 6.2053,1.73502 3.8655,-0.44869 5.8725,3.43062 9.2847,4.01712 4.7988,-2.49745 7.9116,-7.52343 10.926,-11.84814 1.9512,-1.59031 0.5915,-3.81509 1.7818,-5.5333 4.0982,-3.10057 9.7757,-3.11288 14.6618,-4.09526 3.3846,-1.01388 4.4704,3.20877 2.5009,5.28321 -2.6076,5.25822 -10.1392,6.14585 -11.1761,12.4421 1.1809,0.0867 2.8072,-0.32833 4.1578,-0.0625 3.6493,0.31248 2.4513,4.76182 -0.1406,5.84591 -6.3733,5.20811 -14.9805,6.63062 -22.8366,4.86117 -2.4715,0.0453 -3.7652,-1.99292 -5.7834,-2.78227 -5.5562,-0.823 -10.5991,4.00961 -14.2239,7.69034 -2.8322,5.5996 -10.6504,10.52638 -16.8031,7.12763 -2.237,-1.85636 -2.4034,1.49323 -2.3134,2.87607 0.1493,1.7999 -0.7235,3.50529 -2.0633,4.61108 l 150.5087,0 0.2582,-166.91509 c 0.034,-22.31308 -17.6552,-1.54215 -71.5404,-28.36468 -4.3807,-2.73651 -16.9117,-6.78946 -20.1512,-10.88774 6.5063,-19.03146 16.4299,-27.10315 18.4459,-39.75376 -0.2991,-0.42869 -1.5473,0.12043 -1.5473,-0.56271 z m -22.524,22.78968 c 1.4958,-0.0409 3.019,0.0699 4.2984,0.54707 l -2.6103,7.70598 c -1.8765,0.20552 -3.8503,-0.14236 -5.2207,-1.016 -2.6393,-0.79283 -5.7276,-4.83602 -1.9226,-6.39299 0.1416,-0.0691 0.29,-0.1163 0.4377,-0.17194 0.4429,-0.16709 0.9143,-0.29177 1.3755,-0.39077 1.0711,-0.0988 2.3446,-0.24597 3.642,-0.28135 z m -37.5452,0.70339 c 3.6147,0.0464 6.7706,1.13834 10.3008,2.04762 9.2943,2.39404 17.5157,8.06257 25.775,12.83287 0.2107,0.0962 0.3932,0.19954 0.5627,0.31262 l -7.2363,21.41195 c -0.4456,0.0596 -0.9407,-0.003 -1.5004,-0.2032 -14.5701,-4.87637 -31.6726,-15.25049 -45.5992,-21.54285 0.5563,-2.42354 2.944,-8.44199 4.1782,-11.84227 0.8498,-0.87671 1.682,-1.51088 2.3447,-1.70375 2.6779,-0.98539 9.0058,-1.34089 11.1745,-1.31299 z m -18.9645,18.27918 c 6.778,3.9284 40.8788,16.49004 47.7429,20.17536 l -5.004,14.62757 c -17.8137,-7.96493 -32.7271,-10.31139 -50.0014,-15.02118 z m 63.0604,1.61954 c 21.6134,10.95509 33.5276,17.54365 56.6451,25.82435 15.6067,5.59034 26.9461,2.17173 25.7307,8.66187 -2.7553,14.71323 -55.955,-2.47065 -90.6906,-15.68462 l 6.1109,-17.36357 c 0.01,-0.006 0.011,-0.0102 0.016,-0.0156 0.3824,-0.41955 0.8077,-0.8036 1.2818,-1.15667 0.1429,-0.0605 0.2866,-0.1171 0.4376,-0.17194 0.1511,-0.0548 0.6282,-0.0874 0.469,-0.0938 z m -2.4111,23.03077 c 38.5709,13.75182 77.2896,27.10144 71.976,30.25818 -5.0933,3.02587 -52.7556,-3.52352 -84.0566,-18.54278 0.6206,-2.19004 3.5696,-9.12707 5.2357,-13.29962 0,0 4.6341,0.81165 6.8449,1.58422 z m -67.5842,-2.88122 c 11.6817,2.6191 18.825,3.50823 27.9446,6.35098 7.2522,2.26065 21.6708,6.79932 21.1562,8.47141 l -7.0174,22.80235 c -12.4472,-8.07163 -24.9153,-11.84689 -37.2049,-9.9101 -1.2609,-0.62707 -12.6468,-3.12803 -14.4446,-4.72177 l 7.8311,-21.60172 c 0.9806,-1.5826 1.215,-1.59641 1.735,-1.39115 z m 54.9891,16.1317 c 1.98,0.67061 30.5665,11.58246 43.4696,16.66411 24.1538,9.51259 66.7806,25.42138 -13.9443,10.18826 -6.7273,-2.17842 -29.1713,-3.14811 -36.9176,-6.00313 z m -63.6108,9.02804 c 0.4424,-0.005 12.3225,2.60244 12.7391,2.75274 -15.4145,3.04848 -20.4864,17.37981 -16.6987,28.41789 -2.4137,1.69794 -5.8167,-1.34136 -7.3003,-4.39151 l 8.2991,-23.3658 c 0.6034,-0.86856 1.0853,-3.74191 2.9608,-3.41332 z m 55.2479,15.65172 c 4.7252,1.43115 42.2003,3.90153 55.6306,7.28283 24.3045,6.11906 25.3038,9.64715 4.0005,24.41689 -4.658,0.89684 -9.2202,-2.33105 -13.802,-3.11053 -17.7758,-4.30293 -38.1584,-2.76387 -56.0512,-7.16037 5.5237,-4.49715 8.4373,-14.96387 10.2221,-21.42882 z m 72.0493,51.06626 c 4.0234,-0.0223 2.0863,5.37686 0.3127,7.22142 -1.8749,2.38244 -7.2421,5.6233 -8.9252,1.56308 0.5363,-3.86152 4.5424,-6.4877 7.659,-8.47188 0.1477,-0.0781 0.3106,-0.13923 0.469,-0.18758 0.1582,-0.0483 0.3233,-0.0878 0.4845,-0.12504 z m -52.0036,15.17748 c -0.1118,-0.005 -0.2812,0.0267 -0.5314,0.10942 -0.2859,0.0948 -0.6711,0.25189 -1.1724,0.48456 -4.1756,1.6716 -8.1045,3.84709 -11.5355,6.70559 -1.5285,0.86417 -2.2838,2.90117 0.2032,2.7354 3.7178,-1.26252 7.0554,-4.74337 10.4101,-7.12764 1.1099,-0.9094 3.4083,-2.87496 2.626,-2.90733 z m -26.1503,5.34573 c -0.2473,-0.008 -0.5285,0.0437 -0.8441,0.14069 -1.3001,0.55358 -1.7277,1.84255 -2.5009,2.86042 -1.5385,3.22953 -6.3754,4.7904 -6.4868,8.53441 3.7164,-0.73554 7.6062,-3.02396 10.754,-5.39262 0.8249,-1.47333 1.4679,-6.06673 -0.9222,-6.1429 z m 73.2928,3.03238 c 0.813,-0.0386 1.6208,0.16144 2.2351,0.71901 3.4491,3.54695 -2.7271,7.67055 -6.2992,6.79939 -3.9352,-1.34746 -0.6613,-6.25664 2.1102,-7.01821 0.1634,-0.0774 0.3407,-0.14083 0.5158,-0.20321 0.4597,-0.16376 0.9501,-0.2738 1.4381,-0.29698 z m -105.1014,7.48714 c -0.084,0.01 -0.1861,0.0246 -0.3127,0.0625 -4.0756,1.95527 -7.7849,4.98579 -10.9571,8.23742 3.3585,-0.64005 6.2562,-2.75323 8.7375,-4.9237 0.4789,-0.61977 3.7879,-3.51559 2.5323,-3.37624 z m 1.3754,10.39446 c -1.6295,1.88328 -0.6378,1.06587 0,0 z m 26.6662,2.15706 c -1.8752,-0.02 -5.167,0.81954 -7.2527,0.9691 -7.4791,-0.32019 -11.2233,6.84511 -16.8656,10.17564 -4.8898,2.45712 -8.2451,-4.52978 -6.6274,-8.3781 -2.8585,1.70839 -7.1709,3.93425 -11.0979,4.04838 -3.8962,-0.84482 -8.091,-1.5007 -11.9888,-0.0782 -0.2599,0.0948 -0.5089,0.19879 -0.7659,0.31262 -1.1738,0.45496 -2.2503,1.06562 -3.0794,2.01637 -1.5787,1.00072 -0.7964,2.2396 0.7035,2.5947 6.2972,3.46106 13.3985,3.37336 20.2107,1.50056 1.96,-0.41356 6.859,-0.96639 5.4862,2.34461 -4.077,2.09051 -6.2139,6.62962 -8.0341,10.66019 3.0238,-0.25479 6.5142,-3.56852 8.7688,-6.08037 4.6291,-6.9452 14.069,-5.85264 21.2579,-7.37772 3.5449,-3.40047 4.5478,-10.54565 10.0037,-12.6453 -0.2023,-0.0426 -0.4512,-0.0597 -0.719,-0.0625 z m -41.531,34.2314 c -1.7467,0.67225 -2.5436,4.12532 -3.5169,5.95533 -1.019,3.42667 -3.5389,5.93624 -6.7212,7.28394 l 18.0848,0 c -4.6991,-2.73936 -5.7508,-8.6637 -7.8467,-13.23927 z m -17.4596,7.17452 c -0.099,0.009 -0.2206,0.0369 -0.3595,0.0938 -0.6118,0.24968 -0.8819,0.94175 -0.8597,1.54744 -0.082,3.00958 2.7007,-1.77973 1.2192,-1.64124 z"
       id="rect3818"
       inkscape:connector-curvature="0"
       sodipodi:nodetypes="sccccccccccccccsccacsccsscccccccccccccccccccccccccccccccccccccscccssscccccssccccccccscccccccsscccccsccsccccasccccccsccccccccccscccccccccccccccccccccccccccccccccccccccccccccccsccccccccccccccc" />
    <text
       xml:space="preserve"
       style="font-size:63.59191132px;font-style:normal;font-variant:normal;font-weight:bold;font-stretch:normal;text-align:start;line-height:125%;letter-spacing:0px;word-spacing:0px;writing-mode:lr-tb;text-anchor:start;fill:#ffe680;fill-opacity:1;stroke:none;font-family:Latha;-inkscape-font-specification:Latha Bold"
       x="1285.3671"
       y="641.55841"
       id="text3016"
       sodipodi:linespacing="125%"
       transform="scale(1.0201324,0.98026491)"><tspan
         sodipodi:role="line"
         id="tspan3018"
         x="1285.3671"
         y="641.55841">Compositor</tspan></text>
    <g
       id="g3293"
       clip-path="url(#clp1)"
       transform="matrix(0.33041653,0,0,0.33041653,1555.4984,691.2821)"
       style="fill:none">
      <path
         inkscape:connector-curvature="0"
         style="fill:url(#radialGradient3778);fill-opacity:1;stroke:url(#radialGradient3780);stroke-width:20;stroke-miterlimit:4;stroke-dasharray:none"
         d="m 164.32924,270.28488 c 0,0 -13.69481,0 -13.69481,13.20878 0,0 0,203.58246 0,203.58246 0,0 0,13.20876 13.69481,13.20876 0,0 202.61038,0 202.61038,0 0,0 13.69482,0 13.69482,-13.20876 0,0 0,-203.58246 0,-203.58246 0,0 0,-13.20878 -13.69482,-13.20878 0,0 -202.61038,0 -202.61038,0 z"
         id="path3301" />
      <path
         sodipodi:nodetypes="cc"
         inkscape:connector-curvature="0"
         style="stroke:#000000;stroke-width:20;stroke-miterlimit:4;stroke-dasharray:none"
         d="m 235.64869,385.2853 -80.88452,0"
         id="path3313" />
      <path
         sodipodi:nodetypes="cc"
         inkscape:connector-curvature="0"
         style="stroke:#000000;stroke-width:20;stroke-miterlimit:4;stroke-dasharray:none"
         d="m 340.55607,385.2853 37.98526,0"
         id="path3317" />
      <path
         inkscape:connector-curvature="0"
         style="fill:#99ccff;fill-opacity:1;stroke:#000000;stroke-width:20.2140274;stroke-miterlimit:4;stroke-dasharray:none"
         d="m 265.6334,415.17829 c 16.5101,0 29.89358,-13.38394 29.89358,-29.89299 0,-16.50905 -13.38348,-29.89299 -29.89358,-29.89299 -16.51009,0 -29.89238,13.38394 -29.89238,29.89412 0,16.5102 13.38348,29.89184 29.89238,29.89184 z"
         id="path3309" />
      <path
         style="font-size:medium;font-style:normal;font-variant:normal;font-weight:normal;font-stretch:normal;text-indent:0;text-align:start;text-decoration:none;line-height:normal;letter-spacing:normal;word-spacing:normal;text-transform:none;direction:ltr;block-progression:tb;writing-mode:lr-tb;text-anchor:start;baseline-shift:baseline;color:#000000;fill:#000000;fill-opacity:1;stroke:none;stroke-width:20;marker:none;visibility:visible;display:inline;overflow:visible;enable-background:accumulate;font-family:Sans;-inkscape-font-specification:Sans"
         d="m 223.19859,342.85484 c 23.51521,-23.51521 61.33761,-23.51521 84.85282,0 23.51521,23.51521 23.51521,61.33761 0,84.85282 -23.51521,23.51521 -61.33761,23.51521 -84.85282,0 l -14.14213,14.14213 c 31.15818,31.15819 81.9789,31.15819 113.13708,0 31.15819,-31.15818 31.15819,-81.9789 0,-113.13708 -31.15818,-31.15819 -81.9789,-31.15819 -113.13708,0"
         id="path3786"
         inkscape:connector-curvature="0"
         sodipodi:nodetypes="cssccssc" />
    </g>
    <path
       sodipodi:type="arc"
       style="fill:url(#radialGradient4154);fill-opacity:1;stroke:none"
       id="path3988"
       sodipodi:cx="1682.8572"
       sodipodi:cy="522.36218"
       sodipodi:rx="14.285714"
       sodipodi:ry="8.5714283"
       d="m 1697.1429,522.36218 c 0,4.73387 -6.3959,8.57143 -14.2857,8.57143 -7.8898,0 -14.2857,-3.83756 -14.2857,-8.57143 0,-4.73387 6.3959,-8.57143 14.2857,-8.57143 7.8898,0 14.2857,3.83756 14.2857,8.57143 z"
       transform="matrix(0.69539066,-0.24556012,0.23931607,0.67770837,188.22779,781.18751)" />
    <path
       transform="matrix(0.69539066,-0.24556012,0.23931607,0.67770837,251.7996,787.76003)"
       d="m 1697.1429,522.36218 a 14.285714,8.5714283 0 1 1 -28.5714,0 14.285714,8.5714283 0 1 1 28.5714,0 z"
       sodipodi:ry="8.5714283"
       sodipodi:rx="14.285714"
       sodipodi:cy="522.36218"
       sodipodi:cx="1682.8572"
       id="path3990"
       style="fill:url(#radialGradient4152);fill-opacity:1;stroke:none"
       sodipodi:type="arc" />
    <path
       style="font-size:medium;font-style:normal;font-variant:normal;font-weight:normal;font-stretch:normal;text-indent:0;text-align:start;text-decoration:none;line-height:normal;letter-spacing:normal;word-spacing:normal;text-transform:none;direction:ltr;block-progression:tb;writing-mode:lr-tb;text-anchor:start;baseline-shift:baseline;color:#000000;fill:url(#linearGradient3822);fill-opacity:1;stroke:none;stroke-width:1px;marker:none;visibility:visible;display:inline;overflow:visible;enable-background:accumulate;font-family:Sans;-inkscape-font-specification:Sans"
       d="m 1623.8438,633.09375 c -23.9227,2.6583 -47.8568,5.23195 -71.7813,7.875 -10.3621,29.30089 -17.0848,54.25557 -31.2403,86.97242 1.3159,2.57641 1.2902,3.6045 1.3313,8.28448 7.6854,-22.6645 23.5472,-67.44965 31.6277,-84.60065 20.948,-2.29167 41.8959,-4.58333 62.8438,-6.875 -14.9865,29.34123 -22.3543,55.71319 -32.8327,87.09794 2.0354,3.19454 2.1307,3.25952 1.5872,7.9753 1.5142,-2.05516 0.6759,-8.0679 1.8577,-10.71287 15.2877,-46.43337 24.0031,-70.42256 40.5753,-96.48537 -1.3229,0.15625 -2.6458,0.3125 -3.9687,0.46875 z"
       id="path3040"
       inkscape:connector-curvature="0"
       sodipodi:nodetypes="ccccccccccc" />
  </g>
</svg>
