<?xml version="1.0" encoding="UTF-8" standalone="no"?>
<!-- Created with Inkscape (http://www.inkscape.org/) -->

<svg
   xmlns:dc="http://purl.org/dc/elements/1.1/"
   xmlns:cc="http://creativecommons.org/ns#"
   xmlns:rdf="http://www.w3.org/1999/02/22-rdf-syntax-ns#"
   xmlns:svg="http://www.w3.org/2000/svg"
   xmlns="http://www.w3.org/2000/svg"
   xmlns:xlink="http://www.w3.org/1999/xlink"
   xmlns:sodipodi="http://sodipodi.sourceforge.net/DTD/sodipodi-0.dtd"
   xmlns:inkscape="http://www.inkscape.org/namespaces/inkscape"
   width="320"
   height="320"
   id="svg2"
   sodipodi:version="0.32"
   inkscape:version="0.48.2 r9819"
   sodipodi:docname="Locked.svg"
   inkscape:output_extension="org.inkscape.output.svg.inkscape"
   version="1.0"
   inkscape:export-filename="Locked.png"
   inkscape:export-xdpi="4.5"
   inkscape:export-ydpi="4.5">
  <defs
     id="defs4">
    <linearGradient
       id="linearGradient4196">
      <stop
         style="stop-color:#000000;stop-opacity:1;"
         offset="0"
         id="stop4198" />
      <stop
         style="stop-color:#000000;stop-opacity:0;"
         offset="1"
         id="stop4200" />
    </linearGradient>
    <linearGradient
       id="linearGradient4188">
      <stop
         style="stop-color:#ff9b00;stop-opacity:0.37599999;"
         offset="0"
         id="stop4190" />
      <stop
         style="stop-color:#ffff00;stop-opacity:0.31200001;"
         offset="1"
         id="stop4192" />
    </linearGradient>
    <linearGradient
       id="linearGradient4177">
      <stop
         style="stop-color:#705a00;stop-opacity:0.456;"
         offset="0"
         id="stop4179" />
      <stop
         id="stop4186"
         offset="0.5"
         style="stop-color:#000000;stop-opacity:1;" />
      <stop
         style="stop-color:#830000;stop-opacity:0.40799999;"
         offset="1"
         id="stop4181" />
    </linearGradient>
    <linearGradient
       id="linearGradient3375">
      <stop
         style="stop-color:#2d3509;stop-opacity:1;"
         offset="0"
         id="stop3377" />
      <stop
         id="stop3379"
         offset="0.4354268"
         style="stop-color:#7d4f24;stop-opacity:1;" />
      <stop
         style="stop-color:#f2d9a5;stop-opacity:1;"
         offset="1"
         id="stop3381" />
    </linearGradient>
    <linearGradient
       id="linearGradient4185">
      <stop
         id="stop4187"
         offset="0"
         style="stop-color:#f0f2e4;stop-opacity:1;" />
      <stop
         style="stop-color:#966428;stop-opacity:1;"
         offset="0.8214606"
         id="stop4189" />
      <stop
         id="stop4191"
         offset="1"
         style="stop-color:#635129;stop-opacity:1;" />
    </linearGradient>
    <linearGradient
       id="linearGradient4085">
      <stop
         id="stop4087"
         offset="0"
         style="stop-color:#2d3509;stop-opacity:1;" />
      <stop
         style="stop-color:#7d4f24;stop-opacity:1;"
         offset="0.24137931"
         id="stop4089" />
      <stop
         id="stop4091"
         offset="1"
         style="stop-color:#f2d9a5;stop-opacity:1;" />
    </linearGradient>
    <linearGradient
       inkscape:collect="always"
       id="linearGradient3892">
      <stop
         style="stop-color:#000000;stop-opacity:1;"
         offset="0"
         id="stop3894" />
      <stop
         style="stop-color:#000000;stop-opacity:0;"
         offset="1"
         id="stop3896" />
    </linearGradient>
    <linearGradient
       id="linearGradient3269">
      <stop
         id="stop3271"
         offset="0"
         style="stop-color:#ffffff;stop-opacity:1;" />
      <stop
         style="stop-color:#8793b4;stop-opacity:1;"
         offset="0.50120121"
         id="stop3273" />
      <stop
         id="stop3275"
         offset="1"
         style="stop-color:#161640;stop-opacity:1;" />
    </linearGradient>
    <radialGradient
       inkscape:collect="always"
       xlink:href="#linearGradient3269"
       id="radialGradient3325"
       gradientUnits="userSpaceOnUse"
       gradientTransform="matrix(0.6083335,0.4750004,-0.6154347,0.7881878,90.490086,29.911693)"
       cx="2.0203052"
       cy="145.74869"
       fx="2.0203052"
       fy="145.74869"
       r="15.152288" />
    <linearGradient
       id="linearGradient3272">
      <stop
         id="stop3274"
         offset="0"
         style="stop-color:#ffffff;stop-opacity:1;" />
      <stop
         style="stop-color:#ffffff;stop-opacity:1;"
         offset="0.5884158"
         id="stop3276" />
      <stop
         id="stop3278"
         offset="1"
         style="stop-color:#ffffff;stop-opacity:0;" />
    </linearGradient>
    <linearGradient
       id="linearGradient3166">
      <stop
         style="stop-color:#f0f2e4;stop-opacity:1;"
         offset="0"
         id="stop3168" />
      <stop
         id="stop3174"
         offset="0.24137931"
         style="stop-color:#9d792d;stop-opacity:1;" />
      <stop
         style="stop-color:#5d5c26;stop-opacity:1;"
         offset="1"
         id="stop3170" />
    </linearGradient>
    <inkscape:perspective
       sodipodi:type="inkscape:persp3d"
       inkscape:vp_x="0 : 526.18109 : 1"
       inkscape:vp_y="0 : 1000 : 0"
       inkscape:vp_z="744.09448 : 526.18109 : 1"
       inkscape:persp3d-origin="372.04724 : 350.78739 : 1"
       id="perspective10" />
    <radialGradient
       inkscape:collect="always"
       xlink:href="#linearGradient3166"
       id="radialGradient3314"
       gradientUnits="userSpaceOnUse"
       gradientTransform="matrix(0.4455139,0.7522594,-1.8061445,1.0696609,1223.4279,-184.1994)"
       cx="-140.2345"
       cy="514.15198"
       fx="-140.2345"
       fy="514.15198"
       r="144.23438" />
    <linearGradient
       inkscape:collect="always"
       xlink:href="#linearGradient3166"
       id="linearGradient3325"
       gradientUnits="userSpaceOnUse"
       gradientTransform="matrix(0.8801047,0,0,0.8801047,211.82687,215.61927)"
       x1="347.91574"
       y1="361.24612"
       x2="90.733574"
       y2="104.285" />
    <radialGradient
       inkscape:collect="always"
       xlink:href="#linearGradient3269"
       id="radialGradient3335"
       cx="317.80841"
       cy="340.9429"
       fx="317.80841"
       fy="340.9429"
       r="46.985882"
       gradientTransform="matrix(0.98308538,2.5146028e-7,-3.453947e-7,1.3445466,-4.0931873,-139.85801)"
       gradientUnits="userSpaceOnUse" />
    <radialGradient
       inkscape:collect="always"
       xlink:href="#linearGradient3166"
       id="radialGradient3384"
       gradientUnits="userSpaceOnUse"
       gradientTransform="matrix(0.5069956,0.792841,-1.904075,1.2175932,1246,-292.16115)"
       cx="95.709755"
       cy="491.52563"
       fx="95.709755"
       fy="491.52563"
       r="144.23438" />
    <radialGradient
       inkscape:collect="always"
       xlink:href="#linearGradient3272"
       id="radialGradient3196"
       gradientUnits="userSpaceOnUse"
       gradientTransform="matrix(0.6589336,-0.2771669,0.1297573,0.3084838,218.05155,260.8998)"
       cx="87.994423"
       cy="81.913292"
       fx="87.994423"
       fy="81.913292"
       r="138.84375" />
    <radialGradient
       inkscape:collect="always"
       xlink:href="#linearGradient3166"
       id="radialGradient3795"
       gradientUnits="userSpaceOnUse"
       gradientTransform="matrix(0.4455139,0.7522594,-1.8061445,1.0696609,1072.9152,-351.66795)"
       cx="-140.2345"
       cy="514.15198"
       fx="-140.2345"
       fy="514.15198"
       r="144.23438" />
    <radialGradient
       inkscape:collect="always"
       xlink:href="#linearGradient3166"
       id="radialGradient3798"
       gradientUnits="userSpaceOnUse"
       gradientTransform="matrix(0.4455139,0.7522594,-1.8061445,1.0696609,1072.9152,-351.66795)"
       cx="-140.2345"
       cy="514.15198"
       fx="-140.2345"
       fy="514.15198"
       r="144.23438" />
    <radialGradient
       inkscape:collect="always"
       xlink:href="#linearGradient3166"
       id="radialGradient3803"
       gradientUnits="userSpaceOnUse"
       gradientTransform="matrix(0.5069956,0.792841,-1.904075,1.2175932,1246,-292.16115)"
       cx="95.709755"
       cy="491.52563"
       fx="95.709755"
       fy="491.52563"
       r="144.23438" />
    <radialGradient
       inkscape:collect="always"
       xlink:href="#linearGradient3166"
       id="radialGradient3807"
       gradientUnits="userSpaceOnUse"
       gradientTransform="matrix(0.5069956,0.792841,-1.904075,1.2175932,1246,-292.16115)"
       cx="95.709755"
       cy="491.52563"
       fx="95.709755"
       fy="491.52563"
       r="144.23438" />
    <radialGradient
       inkscape:collect="always"
       xlink:href="#linearGradient3166"
       id="radialGradient3811"
       gradientUnits="userSpaceOnUse"
       gradientTransform="matrix(0.5069956,0.792841,-1.904075,1.2175932,1246,-292.16115)"
       cx="95.709755"
       cy="491.52563"
       fx="95.709755"
       fy="491.52563"
       r="144.23438" />
    <radialGradient
       inkscape:collect="always"
       xlink:href="#linearGradient3166"
       id="radialGradient3816"
       gradientUnits="userSpaceOnUse"
       gradientTransform="matrix(0.5069956,0.792841,-1.904075,1.2175932,1095.4873,-459.6297)"
       cx="95.709755"
       cy="491.52563"
       fx="95.709755"
       fy="491.52563"
       r="144.23438" />
    <radialGradient
       inkscape:collect="always"
       xlink:href="#linearGradient3166"
       id="radialGradient3819"
       gradientUnits="userSpaceOnUse"
       gradientTransform="matrix(0.5069956,0.792841,-1.904075,1.2175932,1095.4873,-459.6297)"
       cx="95.709755"
       cy="491.52563"
       fx="95.709755"
       fy="491.52563"
       r="144.23438" />
    <radialGradient
       inkscape:collect="always"
       xlink:href="#linearGradient3166"
       id="radialGradient3823"
       gradientUnits="userSpaceOnUse"
       gradientTransform="matrix(0.5069956,0.792841,-1.904075,1.2175932,1246,-292.16115)"
       cx="95.709755"
       cy="491.52563"
       fx="95.709755"
       fy="491.52563"
       r="144.23438" />
    <radialGradient
       inkscape:collect="always"
       xlink:href="#linearGradient3166"
       id="radialGradient3827"
       gradientUnits="userSpaceOnUse"
       gradientTransform="matrix(0.5069956,0.792841,-1.904075,1.2175932,1246,-292.16115)"
       cx="95.709755"
       cy="491.52563"
       fx="95.709755"
       fy="491.52563"
       r="144.23438" />
    <radialGradient
       inkscape:collect="always"
       xlink:href="#linearGradient3166"
       id="radialGradient3831"
       gradientUnits="userSpaceOnUse"
       gradientTransform="matrix(0.5069956,0.792841,-1.904075,1.2175932,1246,-292.16115)"
       cx="95.709755"
       cy="491.52563"
       fx="95.709755"
       fy="491.52563"
       r="144.23438" />
    <radialGradient
       inkscape:collect="always"
       xlink:href="#linearGradient3166"
       id="radialGradient3835"
       gradientUnits="userSpaceOnUse"
       gradientTransform="matrix(0.5069956,0.792841,-1.904075,1.2175932,1246,-292.16115)"
       cx="95.709755"
       cy="491.52563"
       fx="95.709755"
       fy="491.52563"
       r="144.23438" />
    <radialGradient
       inkscape:collect="always"
       xlink:href="#linearGradient3166"
       id="radialGradient3839"
       gradientUnits="userSpaceOnUse"
       gradientTransform="matrix(0.5069956,0.792841,-1.904075,1.2175932,1246,-292.16115)"
       cx="95.709755"
       cy="491.52563"
       fx="95.709755"
       fy="491.52563"
       r="144.23438" />
    <radialGradient
       inkscape:collect="always"
       xlink:href="#linearGradient3272"
       id="radialGradient3847"
       gradientUnits="userSpaceOnUse"
       gradientTransform="matrix(0.6589336,-0.2771669,0.1297573,0.3084838,218.05155,260.8998)"
       cx="87.994423"
       cy="81.913292"
       fx="87.994423"
       fy="81.913292"
       r="138.84375" />
    <radialGradient
       inkscape:collect="always"
       xlink:href="#linearGradient3272"
       id="radialGradient3851"
       gradientUnits="userSpaceOnUse"
       gradientTransform="matrix(0.6589336,-0.2771669,0.1297573,0.3084838,218.05155,260.8998)"
       cx="87.994423"
       cy="81.913292"
       fx="87.994423"
       fy="81.913292"
       r="138.84375" />
    <radialGradient
       inkscape:collect="always"
       xlink:href="#linearGradient3272"
       id="radialGradient3855"
       gradientUnits="userSpaceOnUse"
       gradientTransform="matrix(0.6589336,-0.2771669,0.1297573,0.3084838,218.05155,260.8998)"
       cx="87.994423"
       cy="81.913292"
       fx="87.994423"
       fy="81.913292"
       r="138.84375" />
    <radialGradient
       inkscape:collect="always"
       xlink:href="#linearGradient3272"
       id="radialGradient3874"
       gradientUnits="userSpaceOnUse"
       gradientTransform="matrix(0.6589336,-0.2771669,0.1297573,0.3084838,67.53882,93.43125)"
       cx="87.994423"
       cy="81.913292"
       fx="87.994423"
       fy="81.913292"
       r="138.84375" />
    <radialGradient
       inkscape:collect="always"
       xlink:href="#linearGradient3272"
       id="radialGradient3877"
       gradientUnits="userSpaceOnUse"
       gradientTransform="matrix(0.6589336,-0.2771669,0.1297573,0.3084838,67.53882,93.43125)"
       cx="87.994423"
       cy="81.913292"
       fx="87.994423"
       fy="81.913292"
       r="138.84375" />
    <radialGradient
       inkscape:collect="always"
       xlink:href="#linearGradient3272"
       id="radialGradient3881"
       gradientUnits="userSpaceOnUse"
       gradientTransform="matrix(0.6589336,-0.2771669,0.1297573,0.3084838,218.05155,260.8998)"
       cx="87.994423"
       cy="81.913292"
       fx="87.994423"
       fy="81.913292"
       r="138.84375" />
    <radialGradient
       inkscape:collect="always"
       xlink:href="#linearGradient3272"
       id="radialGradient3885"
       gradientUnits="userSpaceOnUse"
       gradientTransform="matrix(0.6589336,-0.2771669,0.1297573,0.3084838,218.05155,260.8998)"
       cx="87.994423"
       cy="81.913292"
       fx="87.994423"
       fy="81.913292"
       r="138.84375" />
    <radialGradient
       inkscape:collect="always"
       xlink:href="#linearGradient3272"
       id="radialGradient3889"
       gradientUnits="userSpaceOnUse"
       gradientTransform="matrix(0.62900667,-0.26457875,0.12386408,0.29447332,218.78882,256.65981)"
       cx="87.994423"
       cy="81.913292"
       fx="87.994423"
       fy="81.913292"
       r="138.84375" />
    <radialGradient
       inkscape:collect="always"
       xlink:href="#linearGradient3166"
       id="radialGradient3903"
       gradientUnits="userSpaceOnUse"
       gradientTransform="matrix(0.48396927,0.75683237,-1.8175972,1.1622935,1200.0507,-271.28265)"
       cx="95.709755"
       cy="491.52563"
       fx="95.709755"
       fy="491.52563"
       r="144.23438" />
    <radialGradient
       inkscape:collect="always"
       xlink:href="#linearGradient3166"
       id="radialGradient3905"
       gradientUnits="userSpaceOnUse"
       gradientTransform="matrix(0.4252799,0.71809387,-1.7241144,1.0210799,1178.5038,-168.22422)"
       cx="-140.2345"
       cy="514.15198"
       fx="-140.2345"
       fy="514.15198"
       r="144.23438" />
    <radialGradient
       inkscape:collect="always"
       xlink:href="#linearGradient3892"
       id="radialGradient3900"
       cx="7.7607141"
       cy="439.285"
       fx="7.7607141"
       fy="439.285"
       r="102.5"
       gradientTransform="matrix(0.9606626,-3.3017876e-4,7.668e-4,2.231165,0.72046958,-557.14623)"
       gradientUnits="userSpaceOnUse" />
    <radialGradient
       inkscape:collect="always"
       xlink:href="#linearGradient3892"
       id="radialGradient3981"
       gradientUnits="userSpaceOnUse"
       gradientTransform="matrix(0.9606626,-3.3017876e-4,7.668e-4,2.231165,0.72046958,-557.14623)"
       cx="7.7607141"
       cy="439.285"
       fx="7.7607141"
       fy="439.285"
       r="102.5" />
    <radialGradient
       inkscape:collect="always"
       xlink:href="#linearGradient3892"
       id="radialGradient4023"
       gradientUnits="userSpaceOnUse"
       gradientTransform="matrix(0.9606626,-3.3017876e-4,7.668e-4,2.231165,0.72046958,-557.14623)"
       cx="7.7607141"
       cy="439.285"
       fx="7.7607141"
       fy="439.285"
       r="102.5" />
    <radialGradient
       inkscape:collect="always"
       xlink:href="#linearGradient3892"
       id="radialGradient4059"
       gradientUnits="userSpaceOnUse"
       gradientTransform="matrix(0.9606626,-3.3017876e-4,7.668e-4,2.231165,0.72046958,-557.14623)"
       cx="7.7607141"
       cy="439.285"
       fx="7.7607141"
       fy="439.285"
       r="102.5" />
    <radialGradient
       inkscape:collect="always"
       xlink:href="#linearGradient3892"
       id="radialGradient4139"
       gradientUnits="userSpaceOnUse"
       gradientTransform="matrix(1.0524224,0.04932171,8.4004256e-4,2.200241,367.51743,-456.17396)"
       cx="-58.859245"
       cy="438.37875"
       fx="-58.859245"
       fy="438.37875"
       r="102.5" />
    <radialGradient
       inkscape:collect="always"
       xlink:href="#linearGradient3892"
       id="radialGradient4142"
       gradientUnits="userSpaceOnUse"
       gradientTransform="matrix(1.0524224,0.04932171,8.4004256e-4,2.200241,367.51743,-590.28658)"
       cx="-58.859245"
       cy="438.37875"
       fx="-58.859245"
       fy="438.37875"
       r="102.5" />
    <radialGradient
       inkscape:collect="always"
       xlink:href="#linearGradient3272"
       id="radialGradient4145"
       gradientUnits="userSpaceOnUse"
       gradientTransform="matrix(0.34942758,0.04027797,-0.06632256,0.79467545,284.9336,167.77695)"
       cx="201.39629"
       cy="135.02905"
       fx="201.39629"
       fy="135.02905"
       r="78.78125" />
    <radialGradient
       inkscape:collect="always"
       xlink:href="#linearGradient3272"
       id="radialGradient4148"
       gradientUnits="userSpaceOnUse"
       gradientTransform="matrix(0.30742135,0.15832795,-0.71456181,1.2604262,411.05121,114.12809)"
       cx="-270.27054"
       cy="128.63875"
       fx="-270.27054"
       fy="128.63875"
       r="78.78125" />
    <radialGradient
       inkscape:collect="always"
       xlink:href="#linearGradient3272"
       id="radialGradient4151"
       gradientUnits="userSpaceOnUse"
       gradientTransform="matrix(1.0955171,0.05168028,0,1.8973536,527.1737,-51.893834)"
       cx="-251.98059"
       cy="218.93735"
       fx="-251.98059"
       fy="218.93735"
       r="43" />
    <radialGradient
       inkscape:collect="always"
       xlink:href="#linearGradient4085"
       id="radialGradient4157"
       gradientUnits="userSpaceOnUse"
       gradientTransform="matrix(1.2439472,-0.05328257,-0.02233949,-0.17037035,721.49044,212.33405)"
       cx="-337.3996"
       cy="-496.16501"
       fx="-337.3996"
       fy="-496.16501"
       r="169.11147" />
    <radialGradient
       inkscape:collect="always"
       xlink:href="#linearGradient3892"
       id="radialGradient4160"
       gradientUnits="userSpaceOnUse"
       gradientTransform="matrix(1.0524224,0.04932171,8.4004256e-4,2.200241,367.51743,-584.67515)"
       cx="-58.859245"
       cy="438.37875"
       fx="-58.859245"
       fy="438.37875"
       r="102.5" />
    <radialGradient
       inkscape:collect="always"
       xlink:href="#linearGradient3892"
       id="radialGradient4163"
       gradientUnits="userSpaceOnUse"
       gradientTransform="matrix(0.76443171,0.08201024,-0.09494346,1.2753548,392.38465,-154.02319)"
       cx="-61.130428"
       cy="475.98117"
       fx="-61.130428"
       fy="475.98117"
       r="102.5" />
    <radialGradient
       inkscape:collect="always"
       xlink:href="#linearGradient3892"
       id="radialGradient4166"
       gradientUnits="userSpaceOnUse"
       gradientTransform="matrix(0.86082499,-0.02656292,0.1881256,2.1927113,277.45356,-564.98554)"
       cx="-70.959763"
       cy="408.29718"
       fx="-70.959763"
       fy="408.29718"
       r="102.5" />
    <radialGradient
       inkscape:collect="always"
       xlink:href="#linearGradient3375"
       id="radialGradient4172"
       gradientUnits="userSpaceOnUse"
       gradientTransform="matrix(-1.9431026,-0.33961538,0.06856529,-0.20335113,-991.62953,103.47593)"
       cx="-370.38998"
       cy="-263.77353"
       fx="-370.38998"
       fy="-263.77353"
       r="169.11147" />
    <radialGradient
       inkscape:collect="always"
       xlink:href="#linearGradient4185"
       id="radialGradient4183"
       cx="283.06107"
       cy="404.26862"
       fx="283.06107"
       fy="404.26862"
       r="101.07753"
       gradientTransform="matrix(0.97264833,0.25527791,-1.2267395,3.7871982,510.90873,-1212.0832)"
       gradientUnits="userSpaceOnUse" />
    <radialGradient
       inkscape:collect="always"
       xlink:href="#linearGradient3269"
       id="radialGradient4198"
       gradientUnits="userSpaceOnUse"
       gradientTransform="matrix(1.9361113,1.3758722,-2.4589944,2.8870597,1005.6082,298.26341)"
       cx="-248.56439"
       cy="69.099045"
       fx="-248.56439"
       fy="69.099045"
       r="78.78125" />
    <radialGradient
       inkscape:collect="always"
       xlink:href="#linearGradient3892"
       id="radialGradient4240"
       gradientUnits="userSpaceOnUse"
       gradientTransform="matrix(1.0524224,0.04932171,8.4004256e-4,2.200241,367.51743,-578.28658)"
       cx="-58.859245"
       cy="438.37875"
       fx="-58.859245"
       fy="438.37875"
       r="102.5" />
    <radialGradient
       inkscape:collect="always"
       xlink:href="#linearGradient4177"
       id="radialGradient4184"
       cx="339.32611"
       cy="379.94278"
       fx="339.32611"
       fy="379.94278"
       r="26.598611"
       gradientTransform="matrix(1.0050754,1.6100224,-2.2678568,1.4157365,855.1544,-700.59993)"
       gradientUnits="userSpaceOnUse" />
    <radialGradient
       inkscape:collect="always"
       xlink:href="#linearGradient4188"
       id="radialGradient4194"
       cx="280.29614"
       cy="385.18213"
       fx="280.29614"
       fy="385.18213"
       r="27.098611"
       gradientTransform="matrix(2.3063904,0.14760871,-0.09966964,1.5573404,-336.03446,-261.61224)"
       gradientUnits="userSpaceOnUse" />
    <radialGradient
       inkscape:collect="always"
       xlink:href="#linearGradient3166"
       id="radialGradient4202"
       cx="366.31625"
       cy="374.95901"
       fx="366.31625"
       fy="374.95901"
       r="20.140625"
       gradientTransform="matrix(1.5779134,0.53440625,-2.6538196,7.8357944,729.118,-2714.2854)"
       gradientUnits="userSpaceOnUse" />
    <radialGradient
       inkscape:collect="always"
       xlink:href="#linearGradient3166"
       id="radialGradient4208"
       gradientUnits="userSpaceOnUse"
       gradientTransform="matrix(1.5779134,0.53440625,-2.6538196,7.8357944,729.118,-2714.2854)"
       cx="366.31625"
       cy="374.95901"
       fx="366.31625"
       fy="374.95901"
       r="20.140625" />
    <radialGradient
       inkscape:collect="always"
       xlink:href="#linearGradient4188"
       id="radialGradient4210"
       gradientUnits="userSpaceOnUse"
       gradientTransform="matrix(2.3063904,0.14760871,-0.09966964,1.5573404,-336.03446,-261.61224)"
       cx="280.29614"
       cy="385.18213"
       fx="280.29614"
       fy="385.18213"
       r="27.098611" />
    <radialGradient
       inkscape:collect="always"
       xlink:href="#linearGradient4177"
       id="radialGradient4212"
       gradientUnits="userSpaceOnUse"
       gradientTransform="matrix(1.0050754,1.6100224,-2.2678568,1.4157365,855.1544,-700.59993)"
       cx="339.32611"
       cy="379.94278"
       fx="339.32611"
       fy="379.94278"
       r="26.598611" />
    <filter
       inkscape:collect="always"
       id="filter5432">
      <feGaussianBlur
         inkscape:collect="always"
         stdDeviation="2.4624846"
         id="feGaussianBlur5434" />
    </filter>
    <filter
       inkscape:collect="always"
       id="filter5464">
      <feGaussianBlur
         inkscape:collect="always"
         stdDeviation="1.5908993"
         id="feGaussianBlur5466" />
    </filter>
  </defs>
  <sodipodi:namedview
     id="base"
     pagecolor="#ffffff"
     bordercolor="#666666"
     borderopacity="1.0"
     inkscape:pageopacity="0.0"
     inkscape:pageshadow="2"
     inkscape:zoom="1.4142136"
     inkscape:cx="4.8805304"
     inkscape:cy="130.94839"
     inkscape:document-units="px"
     inkscape:current-layer="layer1"
     showgrid="false"
     inkscape:window-width="1600"
     inkscape:window-height="829"
     inkscape:window-x="-9"
     inkscape:window-y="-9"
     inkscape:window-maximized="1" />
  <metadata
     id="metadata7">
    <rdf:RDF>
      <cc:Work
         rdf:about="">
        <dc:format>image/svg+xml</dc:format>
        <dc:type
           rdf:resource="http://purl.org/dc/dcmitype/StillImage" />
        <dc:title></dc:title>
      </cc:Work>
    </rdf:RDF>
  </metadata>
  <g
     inkscape:groupmode="layer"
     id="layer2"
     inkscape:label="Shadow">
    <path
       transform="matrix(1.1356287,0.05240758,0,1,-197.81362,-184.3042)"
       style="opacity:0.2;fill:#000000;fill-opacity:1;stroke:none;filter:url(#filter5432)"
       d="m 328.63773,188.46855 c -41.98135,0 -76.03125,21.68659 -76.03125,48.4375 l -0.28125,59.375 c -13.22895,3.88868 -21.801,8.79177 -23.5,14.1875 l -0.3125,0 0,2 0,148 c 0,0.34549 0.0382,0.68916 0.0937,1.03125 0.005,0.0304 -0.005,0.0633 0,0.0937 0.12297,0.69396 0.37395,1.38438 0.71875,2.0625 0.006,0.0125 0.0248,0.0187 0.0312,0.0312 0.35262,0.68528 0.80506,1.36451 1.375,2.03125 0.18972,0.22129 0.41199,0.43717 0.625,0.65625 0.11864,0.12234 0.21794,0.25337 0.34375,0.375 0.37206,0.35883 0.78524,0.71011 1.21875,1.0625 0.19032,0.15497 0.39177,0.31507 0.59375,0.46875 0.31538,0.23962 0.62542,0.48239 0.96875,0.71875 0.0322,0.0222 0.0613,0.0403 0.0937,0.0625 0.3519,0.24024 0.71348,0.45078 1.09375,0.6875 0.43096,0.26883 0.8769,0.54837 1.34375,0.8125 0.20456,0.11567 0.41367,0.22901 0.625,0.34375 0.92546,0.50302 1.88504,0.9844 2.9375,1.46875 0.12523,0.0576 0.24802,0.0989 0.375,0.15625 0.65953,0.29818 1.32503,0.61568 2.03125,0.90625 0.71549,0.29452 1.45679,0.55736 2.21875,0.84375 0.61629,0.23176 1.2602,0.46126 1.90625,0.6875 0.16042,0.0561 0.30653,0.1317 0.46875,0.1875 18.17579,6.25593 47.64355,10.3125 80.9375,10.3125 55.22848,0 100,-11.19288 100,-25 l 0,-148 0,-2 -0.3125,0 c -1.69619,-5.3868 -10.24592,-10.27062 -23.4375,-14.15625 l -0.125,-59.40625 c 0,-26.75091 -34.01863,-48.4375 -76,-48.4375 z m 0,25.9375 c 23.32079,0 42.21875,11.85534 42.21875,26.5 l 1.40625,35.65625 0,13.4375 c -13.21914,-1.6112 -28.05392,-2.53125 -43.75,-2.53125 -15.69608,0 -30.53086,0.92005 -43.75,2.53125 l 0,-13.53125 1.65625,-35.5625 c 0,-14.64466 18.89797,-26.5 42.21875,-26.5 z"
       id="path3993"
       inkscape:connector-curvature="0" />
  </g>
  <g
     inkscape:label="Ebene 1"
     inkscape:groupmode="layer"
     id="layer1"
     transform="translate(-150.51273,-167.46855)">
    <use
       x="0"
       y="0"
       xlink:href="#path3259"
       id="use3299"
       transform="matrix(1.2320644,0,0,0.9861222,153.66315,-521.76822)"
       width="320"
       height="320" />
    <path
       style="fill:none;stroke:#000000;stroke-width:8.31505108;stroke-miterlimit:4;stroke-dasharray:none"
       d="m 304.12645,171.81548 c -41.99379,0.46508 -74.76904,19.27477 -74.76904,44.00571 l -0.30812,58.52019 c -6.98679,2.31126 -26.98506,7.18713 -26.08701,14.7302 l 0,145.94608 c 0,13.61551 49.04797,26.97598 109.55172,29.8302 60.50375,2.85422 109.55172,-5.86041 109.55172,-19.47591 l 0,-145.94609 c -1.76439,-8.66416 -18.31673,-14.70826 -26.01853,-17.19551 l -0.13694,-58.551 c 0,-26.37967 -37.268,-49.54018 -83.2593,-51.70978 -2.87446,-0.13561 -5.72491,-0.18509 -8.5245,-0.15409 z m 3.80008,25.63918 c 1.55504,-0.0158 3.12765,0.0171 4.72442,0.0925 25.54832,1.20523 46.25137,13.87877 46.25137,28.3202 l 1.54056,35.22305 0,13.25102 c -14.48021,-2.27019 -30.73591,-3.93465 -47.92888,-4.74572 -17.19247,-0.81104 -33.44896,-0.68821 -47.92886,0.21572 l 0,-13.31265 1.81444,-35.00734 c 0,-13.53884 18.20128,-23.79982 41.52695,-24.03673 z"
       id="path4174"
       inkscape:connector-curvature="0"
       sodipodi:nodetypes="scccssscccsssscccscccs" />
    <path
       inkscape:connector-curvature="0"
       id="path3040"
       d="m 312.514,269.59573 c -57.56983,-2.71582 -104.76732,5.04002 -109.20936,17.52894 l -0.34236,-0.0162 0,1.97225 0,145.94608 c 0,13.61551 49.04797,26.96687 109.55172,29.82109 60.50375,2.85422 109.55172,-5.86953 109.55172,-19.48504 l 0,-145.94608 0,-1.97225 -0.34234,-0.0162 c -4.44205,-12.908 -51.63954,-25.11688 -109.20938,-27.83269 z"
       style="fill:url(#radialGradient4183);fill-opacity:1;stroke:#000000;stroke-width:5.19690752;stroke-miterlimit:4;stroke-dasharray:none" />
    <path
       transform="matrix(0.66108799,0.03118637,0,0.88498145,547.67245,68.293621)"
       d="m -190.00002,267.85715 a 165.71428,27.857143 0 1 1 -331.42855,0 165.71428,27.857143 0 1 1 331.42855,0 z"
       sodipodi:ry="27.857143"
       sodipodi:rx="165.71428"
       sodipodi:cy="267.85715"
       sodipodi:cx="-355.71429"
       id="path3812"
       style="fill:url(#radialGradient4172);fill-opacity:1;stroke:#000000;stroke-width:6.79435539;stroke-miterlimit:4;stroke-dasharray:none"
       sodipodi:type="arc" />
    <path
       style="fill:none;stroke:url(#radialGradient4166);stroke-width:5.19690752;stroke-miterlimit:4;stroke-dasharray:none"
       d="m 422.06571,417.75148 c 0,13.6155 -49.04797,22.33925 -109.55171,19.48503 -60.50375,-2.85423 -109.55172,-16.20558 -109.55172,-29.82108"
       id="path3815"
       inkscape:connector-curvature="0"
       sodipodi:nodetypes="csc" />
    <path
       sodipodi:nodetypes="cssc"
       inkscape:connector-curvature="0"
       id="path3822"
       d="m 422.06571,429.58495 c 0,9.74361 -25.11849,16.98205 -61.57839,19.2649 -14.48836,0.90716 -30.76763,1.03178 -47.97332,0.22012 C 252.01025,446.21575 202.96228,432.8644 202.96228,419.2489"
       style="fill:none;stroke:url(#radialGradient4163);stroke-width:5.19690752;stroke-miterlimit:4;stroke-dasharray:none" />
    <path
       inkscape:connector-curvature="0"
       id="path4093"
       d="m 323.80886,274.04242 c 29.92666,2.55154 61.12965,5.5824 88.39455,18.65363 3.78579,1.69948 9.21148,6.83929 4.38207,9.7906 -18.35451,10.83644 -42.13098,11.2539 -63.87864,12.84567 -43.82754,1.1313 -89.16487,-1.32323 -131.22612,-15.57818 -5.34289,-2.37867 -12.20479,-5.09861 -14.72102,-10.2167 1.69954,-5.99272 10.26246,-7.16254 15.67959,-9.61461 31.22829,-8.06178 65.15653,-7.83694 98.11618,-6.12598 1.08446,0.0818 2.16893,0.16376 3.25339,0.24558 z"
       style="opacity:0.3;fill:url(#radialGradient4157);fill-opacity:1;stroke:#000000;stroke-width:2.07876277;stroke-miterlimit:4;stroke-dasharray:none" />
    <path
       style="opacity:0.29999999999999999;fill:#000000;fill-opacity:1;stroke:none;filter:url(#filter5464)"
       d="m 271.6875,268.84375 c -14.1966,0.58009 -28.65422,1.80817 -42.3125,5.03125 0.79645,8.21032 -1.95195,17.53261 2,25 11.06797,8.58103 27.85746,9.28626 39.5625,1.96875 5.92019,-8.15072 0.30122,-18.77743 2.75,-27.96875 -0.0494,-1.35166 0.33848,-4.50218 -2,-4.03125 z m 75.875,13.125 c 0.27739,7.3704 -0.50156,15.31197 1.03125,22.34375 11.46863,9.27881 29.35118,9.39492 41.34375,1.4375 4.18211,-4.83636 0.43834,-11.34718 1.6875,-16.9375 -0.73757,-2.7769 -5.40527,-2.40305 -7.40625,-4.15625 -11.65618,-4.97321 -24.07696,-8.15515 -36.625,-10.34375 -0.0104,2.55208 -0.0208,5.10417 -0.0312,7.65625 z"
       id="path4200"
       inkscape:connector-curvature="0"
       transform="matrix(1.1109345,0,0,1,-32.445095,0)" />
    <path
       style="fill:url(#radialGradient4198);fill-opacity:1;stroke:#000000;stroke-width:5.19690752;stroke-miterlimit:4;stroke-dasharray:none"
       d="m 360.44287,261.10185 -0.0342,35.40633 c 0,1.38061 11.66496,5.01865 17.8364,5.30979 6.17143,0.29113 17.83638,-2.24634 17.83638,-3.62695 l -0.17117,-74.52194 c 0,-26.37966 -37.268,-49.52338 -83.25931,-51.69299 -45.99129,-2.1696 -83.29354,17.45632 -83.29354,43.83599 l -0.41082,74.49447 c 0,1.38061 7.99407,4.84548 17.83639,5.30978 9.84231,0.46431 17.83638,-2.24634 17.83638,-3.62695 l -0.0342,-35.502 1.81444,-34.98338 c 0,-14.44142 20.70306,-25.15558 46.25138,-23.95036 25.54832,1.20523 46.25136,13.87269 46.25136,28.31411 z"
       id="path3834"
       inkscape:connector-curvature="0"
       sodipodi:nodetypes="ccaccsccscccscc" />
    <path
       style="fill:none;stroke:url(#radialGradient4160);stroke-width:5.19690752;stroke-miterlimit:4;stroke-dasharray:none"
       d="m 422.06571,310.94497 c 0,13.6155 -49.04797,22.33925 -109.55171,19.48503 -60.50375,-2.85422 -109.55172,-16.20558 -109.55172,-29.82108"
       id="path3824"
       inkscape:connector-curvature="0"
       sodipodi:nodetypes="csc" />
    <path
       inkscape:connector-curvature="0"
       id="path3873"
       d="m 207.26874,430.39207 c 1.0152,2.76084 5.74384,5.8124 7.60014,4.95016 6.34257,-42.63702 22.28679,-85.59257 55.93985,-115.84982 -21.63639,-2.68503 -43.76823,-6.37126 -63.53999,-15.69378 0,42.19782 0,84.39562 0,126.59344 z"
       style="opacity:0.58426962;fill:url(#radialGradient4151);fill-opacity:1;stroke:none" />
    <path
       style="fill:url(#radialGradient4148);fill-opacity:1;stroke:none"
       d="m 310.63926,174.72193 c -24.40885,1.1598 -50.82979,3.48747 -72.42592,25.20171 -3.23771,5.00179 -4.51811,10.41882 -4.89886,16.03279 l 0.47946,72.48348 c 4.31655,1.13602 7.32639,3.72498 11.6741,2.92362 0.5783,-25.00812 -3.81415,-62.26451 6.09382,-85.25863 16.37145,-20.97652 52.3322,-28.34124 59.0774,-31.38297 z"
       id="path3925"
       inkscape:connector-curvature="0"
       sodipodi:nodetypes="ccccccc" />
    <path
       sodipodi:nodetypes="ccccc"
       inkscape:connector-curvature="0"
       id="path3949"
       d="m 369.92782,244.86371 c 0.0784,11.02353 3.15006,41.61009 2.08838,52.56204 -4.31656,0.74835 -5.13534,-1.77429 -9.48307,-3.00703 -0.57828,-25.58865 0.47929,-70.50489 0.47929,-70.50489 0,0 6.0096,7.16251 6.9154,20.94988 z"
       style="fill:url(#radialGradient4145);fill-opacity:1;stroke:none" />
    <path
       sodipodi:nodetypes="csc"
       inkscape:connector-curvature="0"
       id="path4114"
       d="m 422.06571,305.33355 c 0,13.6155 -49.04797,22.33925 -109.55171,19.48503 C 252.01025,321.96435 202.96228,308.613 202.96228,294.9975"
       style="opacity:0.3;fill:none;stroke:url(#radialGradient4142);stroke-width:2.07876277;stroke-miterlimit:4;stroke-dasharray:none" />
    <path
       style="opacity:0.3;fill:none;stroke:url(#radialGradient4139);stroke-width:2.07876277;stroke-miterlimit:4;stroke-dasharray:none"
       d="m 422.06571,439.44617 c 0,13.6155 -49.04797,22.33925 -109.55171,19.48503 -60.50375,-2.85423 -109.55172,-16.20558 -109.55172,-29.82108"
       id="path4118"
       inkscape:connector-curvature="0"
       sodipodi:nodetypes="csc" />
    <path
       style="opacity:0.3;fill:none;stroke:url(#radialGradient4240);stroke-width:2.07876277;stroke-miterlimit:4;stroke-dasharray:none"
       d="m 422.06571,317.33355 c 0,13.6155 -49.04797,22.33925 -109.55171,19.48503 C 252.01025,333.96435 202.96228,320.613 202.96228,306.9975"
       id="path4238"
       inkscape:connector-curvature="0"
       sodipodi:nodetypes="csc" />
    <g
       id="g4204"
       transform="matrix(1.0788383,0,0,0.89633821,-21.539925,40.129713)">
      <path
         sodipodi:nodetypes="sscacss"
         inkscape:connector-curvature="0"
         id="path3383"
         d="m 305.57523,350.71855 c -11.12994,0 -20.15625,9.02631 -20.15625,20.15625 0,6.77282 5.34487,12.75238 10.46875,16.40625 0.77987,17.9076 -2.78969,36.16128 9.6875,36.15625 12.4745,-0.005 9.3027,-18.46657 9.65625,-36.15625 5.12388,-3.65387 10.46875,-9.63343 10.46875,-16.40625 0,-11.12994 -8.99506,-20.15625 -20.125,-20.15625 z"
         style="fill:#000000;fill-opacity:0.78431373;stroke:url(#radialGradient4208);stroke-width:4;stroke-miterlimit:4;stroke-dasharray:none" />
      <path
         inkscape:connector-curvature="0"
         id="path3398"
         d="m 304.34375,344.75 c -9.15461,-0.0917 -17.08331,5.68185 -21.40625,13.28125 -4.30206,7.5627 -5.10076,17.24439 0.3125,24.90625 0.007,0.0139 0.0239,0.0174 0.0312,0.0312 0.0493,0.0695 0.0747,0.14959 0.125,0.21875 l 0.0312,-0.0312 c 1.45467,2.58325 3.7143,4.24062 5.1875,5.78125 0.76198,0.79686 1.29309,1.5114 1.5625,2.21875 0.26941,0.70735 0.34604,1.40033 0.0312,2.5 l -0.0625,0.28125 0,0.28125 c 0.0365,4.94228 -0.55812,10.80434 -0.0937,16.53125 0.46437,5.72691 2.06418,11.46887 6.625,15.8125 l 0.0625,0.0937 0.0937,0.0625 c 8.77219,6.78437 22.56833,0.51316 23.4375,-10.4375 8.4e-4,-0.0105 -8.1e-4,-0.0207 0,-0.0312 0.008,-0.0991 0.057,-0.18135 0.0625,-0.28125 l -0.0312,0 c 1.88221,-8.82983 0.57845,-17.61664 1.03125,-25.84375 10.30432,-7.67504 13.97842,-23.2007 5.90625,-33.9375 -0.0211,-0.0306 -0.0413,-0.0632 -0.0625,-0.0937 -5.01796,-7.21967 -13.68872,-11.85858 -22.6875,-11.34375 -0.0525,0.003 -0.10367,-0.003 -0.15625,0 z m 0.0937,4 0.0625,0 0.0937,0 c 7.54074,-0.48171 15.09267,3.51474 19.34375,9.6875 l 0.0312,0.0625 0.0312,0.0312 c 6.85417,9.0182 3.37747,22.83931 -5.78125,29 l -0.8125,0.53125 -0.0625,1 c -0.64872,9.20407 0.88253,18.14469 -0.9375,26.34375 l -0.0625,0.15625 0,0.15625 c -0.42919,7.79858 -10.77227,12.58204 -17,7.84375 -0.0191,-0.0145 -0.0435,-0.0165 -0.0625,-0.0312 -3.50118,-3.43268 -4.80136,-7.97753 -5.21875,-13.125 -0.42297,-5.21631 0.13022,-10.90242 0.0937,-16.15625 -7e-5,-0.0102 7e-5,-0.0211 0,-0.0312 0.34875,-1.61273 0.27701,-3.16711 -0.21875,-4.46875 -0.55442,-1.45565 -1.46225,-2.60654 -2.40625,-3.59375 -1.888,-1.97442 -3.88763,-3.51355 -4.71875,-5.09375 l -0.0937,-0.125 -0.0625,-0.125 c -4.55338,-6.25542 -3.98494,-14.21551 -0.25,-20.78125 3.73494,-6.56574 10.55022,-11.4113 18.03125,-11.28125 z"
         style="font-size:medium;font-style:normal;font-variant:normal;font-weight:normal;font-stretch:normal;text-indent:0;text-align:start;text-decoration:none;line-height:normal;letter-spacing:normal;word-spacing:normal;text-transform:none;direction:ltr;block-progression:tb;writing-mode:lr-tb;text-anchor:start;baseline-shift:baseline;color:#000000;fill:url(#radialGradient4210);fill-opacity:1;stroke:url(#radialGradient4212);stroke-width:2;stroke-miterlimit:4;stroke-dasharray:none;marker:none;visibility:visible;display:inline;overflow:visible;enable-background:accumulate;font-family:Sans;-inkscape-font-specification:Sans" />
    </g>
  </g>
</svg>
