<?xml version="1.0" encoding="UTF-8" standalone="no"?>
<!-- Created with Inkscape (http://www.inkscape.org/) -->
<svg
   xmlns:dc="http://purl.org/dc/elements/1.1/"
   xmlns:cc="http://creativecommons.org/ns#"
   xmlns:rdf="http://www.w3.org/1999/02/22-rdf-syntax-ns#"
   xmlns:svg="http://www.w3.org/2000/svg"
   xmlns="http://www.w3.org/2000/svg"
   xmlns:xlink="http://www.w3.org/1999/xlink"
   xmlns:sodipodi="http://sodipodi.sourceforge.net/DTD/sodipodi-0.dtd"
   xmlns:inkscape="http://www.inkscape.org/namespaces/inkscape"
   width="225.741"
   height="228.952"
   id="svg2"
   sodipodi:version="0.32"
   inkscape:version="0.46"
   sodipodi:docname="AcfSlnLogo.svg"
   inkscape:output_extension="org.inkscape.output.svg.inkscape"
   version="1.0">
  <sodipodi:namedview
     id="base"
     pagecolor="#ffffff"
     bordercolor="#666666"
     borderopacity="1.0"
     inkscape:pageopacity="0.0"
     inkscape:pageshadow="2"
     inkscape:zoom="2.0000001"
     inkscape:cx="262.56005"
     inkscape:cy="189.42571"
     inkscape:document-units="px"
     inkscape:current-layer="g3293"
     showgrid="true"
     inkscape:snap-global="false"
     showguides="false"
     inkscape:guide-bbox="true"
     inkscape:window-width="1920"
     inkscape:window-height="1134"
     inkscape:window-x="0"
     inkscape:window-y="26">
    <inkscape:grid
       type="xygrid"
       id="grid3176"
       visible="true"
       enabled="true" />
  </sodipodi:namedview>
  <defs
     id="defs4">
    <inkscape:perspective
       sodipodi:type="inkscape:persp3d"
       inkscape:vp_x="0 : 526.18109 : 1"
       inkscape:vp_y="0 : 1000 : 0"
       inkscape:vp_z="744.09448 : 526.18109 : 1"
       inkscape:persp3d-origin="372.04724 : 350.78739 : 1"
       id="perspective10" />
    <inkscape:perspective
       id="perspective2390"
       inkscape:persp3d-origin="372.04724 : 350.78739 : 1"
       inkscape:vp_z="744.09448 : 526.18109 : 1"
       inkscape:vp_y="0 : 1000 : 0"
       inkscape:vp_x="0 : 526.18109 : 1"
       sodipodi:type="inkscape:persp3d" />
    <inkscape:perspective
       id="perspective3188"
       inkscape:persp3d-origin="372.04724 : 350.78739 : 1"
       inkscape:vp_z="744.09448 : 526.18109 : 1"
       inkscape:vp_y="0 : 1000 : 0"
       inkscape:vp_x="0 : 526.18109 : 1"
       sodipodi:type="inkscape:persp3d" />
    <inkscape:perspective
       id="perspective3324"
       inkscape:persp3d-origin="382.5 : 330 : 1"
       inkscape:vp_z="765 : 495 : 1"
       inkscape:vp_y="0 : 1000 : 0"
       inkscape:vp_x="0 : 495 : 1"
       sodipodi:type="inkscape:persp3d" />
  </defs>
  <metadata
     id="metadata7">
    <rdf:RDF>
      <cc:Work
         rdf:about="">
        <dc:format>image/svg+xml</dc:format>
        <dc:type
           rdf:resource="http://purl.org/dc/dcmitype/StillImage" />
      </cc:Work>
    </rdf:RDF>
  </metadata>
  <g
     inkscape:label="Ebene 1"
     inkscape:groupmode="layer"
     id="layer1"
     transform="translate(-225.1295,-433.88618)">
    <g
       id="g3293"
       clip-path="url(#clp1)"
       transform="translate(87.4955,149.55288)"
       style="fill:none">
      <g
         id="g3299"
         transform="translate(17.25,344.7143)">
        <path
           id="path3301"
           d="M 144.75,-50.381 C 144.75,-50.381 132.75,-50.381 132.75,-38.381 C 132.75,-38.381 132.75,146.571 132.75,146.571 C 132.75,146.571 132.75,158.571 144.75,158.571 C 144.75,158.571 322.286,158.571 322.286,158.571 C 322.286,158.571 334.286,158.571 334.286,146.571 C 334.286,146.571 334.286,-38.381 334.286,-38.381 C 334.286,-38.381 334.286,-50.381 322.286,-50.381 C 322.286,-50.381 144.75,-50.381 144.75,-50.381 z"
           style="fill:#0af27e;fill-opacity:1;stroke:#000000;stroke-width:20" />
      </g>
      <g
         id="g3303"
         transform="translate(-107.5833,414.0571)">
        <path
           id="path3305"
           d="M 314.264,30.666 C 325.551,42.407 341.143,49.668 358.366,49.668 C 392.811,49.668 420.735,20.622 420.735,-15.207 C 420.735,-51.036 392.811,-80.082 358.366,-80.082 C 341.144,-80.082 325.552,-72.821 314.265,-61.081"
           style="stroke:#000000;stroke-width:20" />
      </g>
      <g
         id="g3307"
         transform="translate(-54.5,393.25)"
         style="fill:#ffff00">
        <path
           id="path3309"
           d="M 305.254,31.63 C 319.015,31.63 330.17,19.951 330.17,5.545 C 330.17,-8.861 319.015,-20.54 305.254,-20.54 C 291.493,-20.54 280.339,-8.861 280.339,5.546 C 280.339,19.953 291.494,31.63 305.254,31.63 z"
           style="fill:#ffff00;fill-opacity:1;stroke:#000000;stroke-width:20" />
      </g>
      <g
         id="g3311"
         transform="translate(0,396)">
        <path
           id="path3313"
           d="M 222.972,6.006 L 147.634,6.006"
           style="stroke:#000000;stroke-width:20" />
      </g>
      <g
         id="g3315"
         transform="translate(0,396)">
        <path
           id="path3317"
           d="M 316.081,3.16 L 353.375,3.16"
           style="stroke:#000000;stroke-width:20" />
      </g>
    </g>
  </g>
  <text
     xml:space="preserve"
     style="font-size:27.27083588px;font-style:normal;font-variant:normal;font-weight:bold;font-stretch:normal;text-align:start;line-height:125%;writing-mode:lr-tb;text-anchor:start;fill:#ffff00;fill-opacity:1;stroke:none;stroke-width:1px;stroke-linecap:butt;stroke-linejoin:miter;stroke-opacity:1;font-family:Courier New;-inkscape-font-specification:Courier New Bold"
     x="15.672232"
     y="20.426697"
     id="text2394"
     transform="scale(1.2642047,0.7910112)"
     sodipodi:linespacing="125%"><tspan
       sodipodi:role="line"
       x="15.672232"
       y="20.426697"
       id="tspan2398">SOLUTIONS</tspan></text>
  <use
     x="0"
     y="0"
     xlink:href="#text2394"
     id="use2402"
     transform="matrix(0,1.0388825,-1,0,223.76514,-2.847111)"
     width="225.741"
     height="228.952" />
  <use
     x="0"
     y="0"
     xlink:href="#use2402"
     id="use2404"
     transform="matrix(-1,0,0,-1,226.46586,228.84258)"
     width="225.741"
     height="228.952" />
  <use
     x="0"
     y="0"
     xlink:href="#text2394"
     id="use2406"
     transform="matrix(-1,0,0,-1,225.00874,227.42838)"
     width="225.741"
     height="228.952" />
</svg>
