<?xml version="1.0" encoding="UTF-8" standalone="no"?>
<!-- Created with Inkscape (http://www.inkscape.org/) -->

<svg
   xmlns:dc="http://purl.org/dc/elements/1.1/"
   xmlns:cc="http://creativecommons.org/ns#"
   xmlns:rdf="http://www.w3.org/1999/02/22-rdf-syntax-ns#"
   xmlns:svg="http://www.w3.org/2000/svg"
   xmlns="http://www.w3.org/2000/svg"
   xmlns:xlink="http://www.w3.org/1999/xlink"
   xmlns:sodipodi="http://sodipodi.sourceforge.net/DTD/sodipodi-0.dtd"
   xmlns:inkscape="http://www.inkscape.org/namespaces/inkscape"
   inkscape:export-ydpi="7.1999998"
   inkscape:export-xdpi="7.1999998"
   inkscape:export-filename="C:\Dokumente und Einstellungen\wga\Desktop\Hotfolder.png"
   sodipodi:docname="Hotfolder.svg"
   width="256"
   height="256"
   id="svg2"
   version="1.1"
   inkscape:version="0.47 r22583">
  <defs
     id="defs4">
    <linearGradient
       inkscape:collect="always"
       id="linearGradient3739">
      <stop
         style="stop-color:#000000;stop-opacity:1;"
         offset="0"
         id="stop3741" />
      <stop
         style="stop-color:#000000;stop-opacity:0;"
         offset="1"
         id="stop3743" />
    </linearGradient>
    <linearGradient
       id="linearGradient4261">
      <stop
         style="stop-color:#ffffff;stop-opacity:1;"
         offset="0"
         id="stop4263" />
      <stop
         style="stop-color:#ffffff;stop-opacity:0;"
         offset="1"
         id="stop4265" />
    </linearGradient>
    <linearGradient
       inkscape:collect="always"
       id="linearGradient4610">
      <stop
         style="stop-color:#ff0000;stop-opacity:1;"
         offset="0"
         id="stop4612" />
      <stop
         style="stop-color:#ff0000;stop-opacity:0;"
         offset="1"
         id="stop4614" />
    </linearGradient>
    <linearGradient
       id="linearGradient4564">
      <stop
         style="stop-color:#000000;stop-opacity:1;"
         offset="0"
         id="stop4566" />
      <stop
         style="stop-color:#000000;stop-opacity:0;"
         offset="1"
         id="stop4568" />
    </linearGradient>
    <linearGradient
       id="linearGradient4483">
      <stop
         id="stop4485"
         offset="0"
         style="stop-color:#ffffff;stop-opacity:1;" />
      <stop
         id="stop4487"
         offset="1"
         style="stop-color:#ffffff;stop-opacity:1" />
    </linearGradient>
    <linearGradient
       id="linearGradient4419">
      <stop
         id="stop4421"
         offset="0"
         style="stop-color:#f3ff1f;stop-opacity:1;" />
      <stop
         id="stop4423"
         offset="1"
         style="stop-color:#94a151;stop-opacity:0" />
    </linearGradient>
    <linearGradient
       id="linearGradient4306">
      <stop
         style="stop-color:#ff4b1b;stop-opacity:1;"
         offset="0"
         id="stop4308" />
      <stop
         id="stop3737"
         offset="0.84285712"
         style="stop-color:#ff250d;stop-opacity:0.54117647;" />
      <stop
         style="stop-color:#ff0000;stop-opacity:0.0877193;"
         offset="1"
         id="stop4310" />
    </linearGradient>
    <linearGradient
       id="linearGradient4268">
      <stop
         id="stop4270"
         offset="0"
         style="stop-color:#f3ff1f;stop-opacity:1;" />
      <stop
         id="stop4272"
         offset="1"
         style="stop-color:#dc3e2b;stop-opacity:1;" />
    </linearGradient>
    <linearGradient
       id="linearGradient4260">
      <stop
         id="stop4262"
         offset="0"
         style="stop-color:#ffffff;stop-opacity:1;" />
      <stop
         style="stop-color:#fff5e4;stop-opacity:0.39473686;"
         offset="0.5"
         id="stop4264" />
      <stop
         id="stop4266"
         offset="1"
         style="stop-color:#ffd2b7;stop-opacity:0;" />
    </linearGradient>
    <linearGradient
       id="linearGradient3852">
      <stop
         id="stop3854"
         offset="0"
         style="stop-color:#daddf7;stop-opacity:1;" />
      <stop
         style="stop-color:#fbdfd2;stop-opacity:0.51754385;"
         offset="0.37508923"
         id="stop3856" />
      <stop
         id="stop3858"
         offset="1"
         style="stop-color:#ffff5e;stop-opacity:0.12280702;" />
    </linearGradient>
    <linearGradient
       id="linearGradient3794">
      <stop
         style="stop-color:#daddf7;stop-opacity:1;"
         offset="0"
         id="stop3796" />
      <stop
         id="stop3802"
         offset="0.5"
         style="stop-color:#f8cbb6;stop-opacity:0.78039217;" />
      <stop
         style="stop-color:#ffff0d;stop-opacity:0.12280702;"
         offset="1"
         id="stop3798" />
    </linearGradient>
    <linearGradient
       id="linearGradient3764">
      <stop
         style="stop-color:#ffffff;stop-opacity:1;"
         offset="0"
         id="stop3766" />
      <stop
         style="stop-color:#ffffff;stop-opacity:0.89473683;"
         offset="1"
         id="stop3768" />
    </linearGradient>
    <linearGradient
       id="linearGradient3725">
      <stop
         style="stop-color:#ffffff;stop-opacity:0"
         offset="0"
         id="stop3727" />
      <stop
         style="stop-color:#dadaff;stop-opacity:1;"
         offset="1"
         id="stop3729" />
    </linearGradient>
    <linearGradient
       id="linearGradient3698">
      <stop
         style="stop-color:#909800;stop-opacity:1;"
         offset="0"
         id="stop3700" />
      <stop
         style="stop-color:#ffff51;stop-opacity:1;"
         offset="1"
         id="stop3702" />
    </linearGradient>
    <inkscape:perspective
       sodipodi:type="inkscape:persp3d"
       inkscape:vp_x="0 : 526.18109 : 1"
       inkscape:vp_y="0 : 1000 : 0"
       inkscape:vp_z="744.09448 : 526.18109 : 1"
       inkscape:persp3d-origin="372.04724 : 350.78739 : 1"
       id="perspective10" />
    <inkscape:perspective
       id="perspective2827"
       inkscape:persp3d-origin="0.5 : 0.33333333 : 1"
       inkscape:vp_z="1 : 0.5 : 1"
       inkscape:vp_y="0 : 1000 : 0"
       inkscape:vp_x="0 : 0.5 : 1"
       sodipodi:type="inkscape:persp3d" />
    <linearGradient
       inkscape:collect="always"
       xlink:href="#linearGradient4268"
       id="linearGradient3706"
       x1="255.72769"
       y1="285.92188"
       x2="353.56696"
       y2="-69.078125"
       gradientUnits="userSpaceOnUse"
       gradientTransform="matrix(0.33418253,-0.11249967,0.13432244,0.50157654,-113.54124,563.98258)" />
    <linearGradient
       inkscape:collect="always"
       xlink:href="#linearGradient3725"
       id="linearGradient3731"
       x1="321.6424"
       y1="49.381351"
       x2="276.0625"
       y2="29"
       gradientUnits="userSpaceOnUse"
       gradientTransform="matrix(0.33418252,-0.11249965,0.14144592,0.52817643,-114.17842,562.57496)" />
    <inkscape:perspective
       id="perspective3745"
       inkscape:persp3d-origin="0.5 : 0.33333333 : 1"
       inkscape:vp_z="1 : 0.5 : 1"
       inkscape:vp_y="0 : 1000 : 0"
       inkscape:vp_x="0 : 0.5 : 1"
       sodipodi:type="inkscape:persp3d" />
    <radialGradient
       inkscape:collect="always"
       xlink:href="#linearGradient3764"
       id="radialGradient3770"
       cx="336.40488"
       cy="230.03316"
       fx="336.40488"
       fy="230.03316"
       r="32.285713"
       gradientTransform="matrix(1,0,0,1.6637168,0,-142.13356)"
       gradientUnits="userSpaceOnUse" />
    <filter
       inkscape:collect="always"
       id="filter3840"
       color-interpolation-filters="sRGB">
      <feGaussianBlur
         inkscape:collect="always"
         stdDeviation="4.5360841"
         id="feGaussianBlur3842" />
    </filter>
    <filter
       inkscape:collect="always"
       id="filter3844"
       color-interpolation-filters="sRGB">
      <feGaussianBlur
         inkscape:collect="always"
         stdDeviation="4.432826"
         id="feGaussianBlur3846" />
    </filter>
    <filter
       inkscape:collect="always"
       id="filter3848"
       color-interpolation-filters="sRGB">
      <feGaussianBlur
         inkscape:collect="always"
         stdDeviation="4.2325392"
         id="feGaussianBlur3850" />
    </filter>
    <inkscape:perspective
       id="perspective3879"
       inkscape:persp3d-origin="0.5 : 0.33333333 : 1"
       inkscape:vp_z="1 : 0.5 : 1"
       inkscape:vp_y="0 : 1000 : 0"
       inkscape:vp_x="0 : 0.5 : 1"
       sodipodi:type="inkscape:persp3d" />
    <linearGradient
       inkscape:collect="always"
       xlink:href="#linearGradient3698-0"
       id="linearGradient3704-4"
       x1="498.31738"
       y1="125.20982"
       x2="459.53976"
       y2="313.78125"
       gradientUnits="userSpaceOnUse" />
    <linearGradient
       id="linearGradient3698-0">
      <stop
         style="stop-color:#ffffff;stop-opacity:1;"
         offset="0"
         id="stop3700-9" />
      <stop
         style="stop-color:#ffffff;stop-opacity:0;"
         offset="1"
         id="stop3702-4" />
    </linearGradient>
    <radialGradient
       inkscape:collect="always"
       xlink:href="#linearGradient3698-0"
       id="radialGradient3950"
       cx="587.04132"
       cy="114.38779"
       fx="587.04132"
       fy="114.38779"
       r="210.44698"
       gradientTransform="matrix(0.2695144,-0.08500705,-0.03093959,0.09552132,-31.596463,625.15813)"
       gradientUnits="userSpaceOnUse" />
    <inkscape:perspective
       id="perspective4078"
       inkscape:persp3d-origin="0.5 : 0.33333333 : 1"
       inkscape:vp_z="1 : 0.5 : 1"
       inkscape:vp_y="0 : 1000 : 0"
       inkscape:vp_x="0 : 0.5 : 1"
       sodipodi:type="inkscape:persp3d" />
    <linearGradient
       id="linearGradient3852-2">
      <stop
         id="stop3854-4"
         offset="0"
         style="stop-color:#daddf7;stop-opacity:1;" />
      <stop
         style="stop-color:#f8cbb6;stop-opacity:0.78039217;"
         offset="0.37508923"
         id="stop3856-5" />
      <stop
         id="stop3858-5"
         offset="1"
         style="stop-color:#ffff0d;stop-opacity:0.40350878;" />
    </linearGradient>
    <linearGradient
       id="linearGradient3794-1">
      <stop
         style="stop-color:#daddf7;stop-opacity:1;"
         offset="0"
         id="stop3796-5" />
      <stop
         id="stop3802-2"
         offset="0.5"
         style="stop-color:#f8cbb6;stop-opacity:0.78039217;" />
      <stop
         style="stop-color:#ffff0d;stop-opacity:0.21138211"
         offset="1"
         id="stop3798-7" />
    </linearGradient>
    <linearGradient
       id="linearGradient4097">
      <stop
         id="stop4099"
         offset="0"
         style="stop-color:#daddf7;stop-opacity:1;" />
      <stop
         style="stop-color:#f8cbb6;stop-opacity:0.78039217;"
         offset="0.37508923"
         id="stop4101" />
      <stop
         id="stop4103"
         offset="1"
         style="stop-color:#ffff0d;stop-opacity:0.40350878;" />
    </linearGradient>
    <radialGradient
       inkscape:collect="always"
       xlink:href="#linearGradient3794-1"
       id="radialGradient3800-2"
       cx="134.35028"
       cy="-322.22815"
       fx="134.35028"
       fy="-322.22815"
       r="180.81731"
       gradientTransform="matrix(0.46243802,0.1320238,-0.38901956,1.3626137,298.40164,481.72747)"
       gradientUnits="userSpaceOnUse" />
    <linearGradient
       id="linearGradient4110">
      <stop
         style="stop-color:#daddf7;stop-opacity:1;"
         offset="0"
         id="stop4112" />
      <stop
         id="stop4114"
         offset="0.5"
         style="stop-color:#f8cbb6;stop-opacity:0.78039217;" />
      <stop
         style="stop-color:#ffff0d;stop-opacity:0.21138211"
         offset="1"
         id="stop4116" />
    </linearGradient>
    <radialGradient
       inkscape:collect="always"
       xlink:href="#linearGradient3794"
       id="radialGradient4293"
       gradientUnits="userSpaceOnUse"
       gradientTransform="matrix(0.46243802,0.1320238,-0.38901956,1.3626137,284.2595,481.72747)"
       cx="134.35028"
       cy="-322.22815"
       fx="134.35028"
       fy="-322.22815"
       r="180.81731" />
    <radialGradient
       inkscape:collect="always"
       xlink:href="#linearGradient4306"
       id="radialGradient4331"
       gradientUnits="userSpaceOnUse"
       gradientTransform="matrix(0.62451521,0.02582596,-0.16524337,0.56562951,-165.26632,454.89825)"
       cx="418.55783"
       cy="92.109787"
       fx="418.55783"
       fy="92.109787"
       r="153.14731" />
    <radialGradient
       inkscape:collect="always"
       xlink:href="#linearGradient4419"
       id="radialGradient4411"
       cx="298.94974"
       cy="675.46466"
       fx="298.94974"
       fy="675.46466"
       r="231.02071"
       gradientTransform="matrix(0.331966,-0.03762386,-0.09280586,0.50873116,-9.0454158,316.70502)"
       gradientUnits="userSpaceOnUse" />
    <radialGradient
       inkscape:collect="always"
       xlink:href="#linearGradient4306"
       id="radialGradient4479"
       gradientUnits="userSpaceOnUse"
       gradientTransform="matrix(-0.35766114,0.1470281,0.39131741,0.50419366,130.50655,451.74537)"
       cx="466.60516"
       cy="165.45937"
       fx="466.60516"
       fy="165.45937"
       r="153.14731" />
    <radialGradient
       inkscape:collect="always"
       xlink:href="#linearGradient4564"
       id="radialGradient4574"
       gradientUnits="userSpaceOnUse"
       gradientTransform="matrix(1,0,0,0.85786802,0,35.51909)"
       cx="-984.89874"
       cy="249.90216"
       fx="-984.89874"
       fy="249.90216"
       r="199.00005" />
    <filter
       inkscape:collect="always"
       id="filter4576"
       color-interpolation-filters="sRGB">
      <feGaussianBlur
         inkscape:collect="always"
         stdDeviation="1.3854205"
         id="feGaussianBlur4578" />
    </filter>
    <radialGradient
       inkscape:collect="always"
       xlink:href="#linearGradient4610"
       id="radialGradient4616"
       cx="-187.88837"
       cy="522.20807"
       fx="-187.88837"
       fy="522.20807"
       r="111.11678"
       gradientTransform="matrix(1,0,0,0.73636362,0,137.67304)"
       gradientUnits="userSpaceOnUse" />
    <radialGradient
       inkscape:collect="always"
       xlink:href="#linearGradient3698"
       id="radialGradient3710"
       cx="432.84073"
       cy="450.0069"
       fx="432.84073"
       fy="450.0069"
       r="278.33255"
       gradientTransform="matrix(0.52602972,-0.41972609,0.0906912,0.12991145,-202.92535,754.55004)"
       gradientUnits="userSpaceOnUse" />
    <inkscape:perspective
       sodipodi:type="inkscape:persp3d"
       inkscape:vp_x="0 : 495 : 1"
       inkscape:vp_y="0 : 1000 : 0"
       inkscape:vp_z="765 : 495 : 1"
       inkscape:persp3d-origin="382.5 : 330 : 1"
       id="perspective3324" />
    <inkscape:perspective
       sodipodi:type="inkscape:persp3d"
       inkscape:vp_x="0 : 526.18109 : 1"
       inkscape:vp_y="0 : 1000 : 0"
       inkscape:vp_z="744.09448 : 526.18109 : 1"
       inkscape:persp3d-origin="372.04724 : 350.78739 : 1"
       id="perspective3188" />
    <inkscape:perspective
       sodipodi:type="inkscape:persp3d"
       inkscape:vp_x="0 : 526.18109 : 1"
       inkscape:vp_y="0 : 1000 : 0"
       inkscape:vp_z="744.09448 : 526.18109 : 1"
       inkscape:persp3d-origin="372.04724 : 350.78739 : 1"
       id="perspective2390" />
    <inkscape:perspective
       id="perspective10-4"
       inkscape:persp3d-origin="372.04724 : 350.78739 : 1"
       inkscape:vp_z="744.09448 : 526.18109 : 1"
       inkscape:vp_y="0 : 1000 : 0"
       inkscape:vp_x="0 : 526.18109 : 1"
       sodipodi:type="inkscape:persp3d" />
    <linearGradient
       id="linearGradient3164">
      <stop
         id="stop3166"
         offset="0"
         style="stop-color:#ffffff;stop-opacity:1;" />
      <stop
         style="stop-color:#0af27e;stop-opacity:1;"
         offset="0.7562812"
         id="stop3172" />
      <stop
         id="stop3168"
         offset="1"
         style="stop-color:#0af27e;stop-opacity:1;" />
    </linearGradient>
    <linearGradient
       id="linearGradient3174">
      <stop
         id="stop3176"
         offset="0"
         style="stop-color:#ffe2c0;stop-opacity:1;" />
      <stop
         style="stop-color:#000000;stop-opacity:1;"
         offset="0.84038174"
         id="stop3182" />
      <stop
         id="stop3178"
         offset="1"
         style="stop-color:#000000;stop-opacity:1;" />
    </linearGradient>
    <filter
       inkscape:collect="always"
       id="filter4224"
       color-interpolation-filters="sRGB">
      <feGaussianBlur
         inkscape:collect="always"
         stdDeviation="1.999632"
         id="feGaussianBlur4226" />
    </filter>
    <radialGradient
       inkscape:collect="always"
       xlink:href="#linearGradient4610"
       id="radialGradient4233"
       gradientUnits="userSpaceOnUse"
       gradientTransform="matrix(0.84133615,-0.55845521,0.21714281,0.38771768,65.430712,340.6534)"
       cx="-204.21214"
       cy="537.54218"
       fx="-204.21214"
       fy="537.54218"
       r="111.11678" />
    <radialGradient
       inkscape:collect="always"
       xlink:href="#linearGradient4261"
       id="radialGradient4267"
       cx="-448.50772"
       cy="1464.6804"
       fx="-448.50772"
       fy="1464.6804"
       r="77.271591"
       gradientTransform="matrix(1,0,0,0.81698149,0,268.06363)"
       gradientUnits="userSpaceOnUse" />
    <radialGradient
       inkscape:collect="always"
       xlink:href="#linearGradient4261"
       id="radialGradient3746"
       gradientUnits="userSpaceOnUse"
       gradientTransform="matrix(1,0,0,0.81698149,0,268.06363)"
       cx="-438.5365"
       cy="1445.8127"
       fx="-438.5365"
       fy="1445.8127"
       r="77.271591" />
    <radialGradient
       inkscape:collect="always"
       xlink:href="#linearGradient4260"
       id="radialGradient3748"
       gradientUnits="userSpaceOnUse"
       gradientTransform="matrix(0.74435181,0.53298149,-0.86592308,2.5632681,92.712563,814.74332)"
       cx="134.35028"
       cy="-322.22815"
       fx="134.35028"
       fy="-322.22815"
       r="180.81731" />
    <radialGradient
       inkscape:collect="always"
       xlink:href="#linearGradient3852"
       id="radialGradient3750"
       gradientUnits="userSpaceOnUse"
       gradientTransform="matrix(0.35583165,0.30323654,-0.80635121,0.43836237,108.6921,154.77778)"
       cx="150.53398"
       cy="-343.84311"
       fx="150.53398"
       fy="-343.84311"
       r="180.81731" />
    <radialGradient
       inkscape:collect="always"
       xlink:href="#linearGradient3794"
       id="radialGradient3752"
       gradientUnits="userSpaceOnUse"
       gradientTransform="matrix(0.62795561,-0.10032672,0.12005438,1.9632728,302.04515,716.64137)"
       cx="177.65125"
       cy="-324.86987"
       fx="177.65125"
       fy="-324.86987"
       r="180.81731" />
    <linearGradient
       inkscape:collect="always"
       xlink:href="#linearGradient3739"
       id="linearGradient3751"
       x1="6.3888388"
       y1="649.50391"
       x2="-79.874832"
       y2="629.50391"
       gradientUnits="userSpaceOnUse" />
    <filter
       inkscape:collect="always"
       id="filter3753">
      <feGaussianBlur
         inkscape:collect="always"
         stdDeviation="2.1994732"
         id="feGaussianBlur3755" />
    </filter>
    <filter
       inkscape:collect="always"
       id="filter3759">
      <feGaussianBlur
         inkscape:collect="always"
         stdDeviation="1.7762486"
         id="feGaussianBlur3761" />
    </filter>
  </defs>
  <sodipodi:namedview
     id="base"
     pagecolor="#ffffff"
     bordercolor="#666666"
     borderopacity="1.0"
     inkscape:pageopacity="0"
     inkscape:pageshadow="2"
     inkscape:zoom="0.70000001"
     inkscape:cx="84.255239"
     inkscape:cy="-195.865"
     inkscape:document-units="px"
     inkscape:current-layer="layer3"
     showgrid="false"
     inkscape:window-width="1920"
     inkscape:window-height="1134"
     inkscape:window-x="-4"
     inkscape:window-y="-4"
     inkscape:window-maximized="1"
     inkscape:snap-nodes="false" />
  <metadata
     id="metadata7">
    <rdf:RDF>
      <cc:Work
         rdf:about="">
        <dc:format>image/svg+xml</dc:format>
        <dc:type
           rdf:resource="http://purl.org/dc/dcmitype/StillImage" />
        <dc:title />
      </cc:Work>
    </rdf:RDF>
  </metadata>
  <g
     inkscape:groupmode="layer"
     id="layer4"
     inkscape:label="Background"
     style="display:inline"
     transform="translate(80.552545,-448.11639)"
     sodipodi:insensitive="true">
    <path
       style="opacity:0.3;fill:url(#linearGradient3751);fill-opacity:1;stroke:none;display:inline;filter:url(#filter3753)"
       d="m -30.429546,617.3251 c -15.863672,2.96381 -33.206125,4.72393 -48.259574,8.3385 -5.578998,2.7054 -3.285516,8.71678 3.494327,13.16255 17.886447,15.41562 37.457026,33.47549 56.030909,48.77132 8.021444,5.08736 21.3147914,6.93238 28.4655776,4.60087 38.3065714,-6.31302 77.2994564,-12.03557 115.1196164,-18.76682 7.56265,-2.53319 8.48566,-8.53242 4.2993,-14.30114 -5.962,-12.20824 -12.8713,-26.82343 -20.00653,-39.0954 -4.82461,-4.92177 -17.359276,-7.82771 -23.734588,-5.83352 -4.603568,0.61758 -8.870807,1.53148 -13.476229,2.14735 -8.372892,-3.72534 -18.707464,-4.18284 -25.140402,-2.34888 -17.729187,2.96154 -35.595521,5.80463 -53.5382335,8.5799 -6.1988605,-4.03297 -16.5455315,-6.56106 -23.2541735,-5.25473 z"
       id="path4333"
       sodipodi:nodetypes="ccccccccccccc"
       transform="matrix(1,-0.17632629,0,1,0,7.2643618)" />
    <path
       sodipodi:type="arc"
       style="opacity:0.3;fill:url(#radialGradient4574);fill-opacity:1;stroke:none;display:inline"
       id="path4562"
       sodipodi:cx="-984.89874"
       sodipodi:cy="249.90216"
       sodipodi:rx="199.00005"
       sodipodi:ry="170.71577"
       d="m -785.8987,249.90216 a 199.00005,170.71577 0 1 1 -398.0001,0 199.00005,170.71577 0 1 1 398.0001,0 z"
       transform="matrix(0.63717846,-0.11235131,0,0.74274649,670.25871,283.64117)" />
  </g>
  <g
     inkscape:label="BackPages"
     inkscape:groupmode="layer"
     id="layer1"
     style="display:inline"
     transform="translate(80.552545,-448.11639)"
     sodipodi:insensitive="true">
    <path
       style="fill:url(#linearGradient3706);fill-opacity:1;stroke:#0c0c0c;stroke-width:3.61193871;stroke-miterlimit:4;stroke-opacity:1;stroke-dasharray:none"
       d="m -43.004478,550.11343 c -4.935414,1.66148 -7.311276,8.96137 -5.327518,16.36897 l 5.822038,21.74019 5.246968,19.59284 20.849363,77.85408 c 2.338745,8.73315 8.8995867,14.19391 14.7181745,12.2351 L 123.38282,655.79811 c 5.81859,-1.95876 8.62184,-10.57183 6.28311,-19.30501 L 103.5696,539.04621 C 101.23086,530.31304 94.663745,524.8715 88.845162,526.83028 L 19.14721,550.2935 17.543741,544.30591 C 15.559983,536.89832 9.9905736,532.2731 5.0551485,533.93459 l -48.0596265,16.17884 z"
       id="rect2916" />
    <rect
       style="opacity:0.7;fill:#ffffff;fill-opacity:1;stroke:#797979;stroke-width:1.93338847;stroke-miterlimit:4;stroke-opacity:0.46354167;stroke-dasharray:none"
       id="rect3708"
       width="138.67348"
       height="119.94718"
       x="-175.8065"
       y="541.8053"
       ry="1.9579477"
       transform="matrix(0.95749078,-0.28846389,0.24296745,0.97003444,0,0)" />
    <rect
       ry="1.8526957"
       y="530.27673"
       x="-196.27496"
       height="113.49926"
       width="132.041"
       id="rect3710"
       style="opacity:0.5;fill:#ffffff;fill-opacity:1;stroke:#797979;stroke-width:1.00370073;stroke-miterlimit:4;stroke-opacity:0.46354167;stroke-dasharray:none"
       transform="matrix(0.92988,-0.367863,0.28158076,0.95953753,0,0)" />
    <text
       xml:space="preserve"
       style="font-size:5.98386526px;font-style:normal;font-weight:normal;opacity:0.22767855;fill:#000000;fill-opacity:1;stroke:none;font-family:Bitstream Vera Sans"
       x="487.32028"
       y="198.85201"
       id="text3712"
       transform="matrix(0.31267773,1.0794962,-0.84189845,0.29159041,0,0)"><tspan
         sodipodi:role="line"
         id="tspan3714"
         x="487.32028"
         y="198.85201">ACF - code ones </tspan><tspan
         sodipodi:role="line"
         x="487.32028"
         y="206.33183"
         id="tspan3716">and save your time!</tspan></text>
    <path
       style="opacity:0.5;fill:url(#linearGradient3731);fill-opacity:1;stroke:none"
       d="m -41.067798,554.66089 c -3.020511,1.01683 -4.422477,5.67711 -3.144021,10.45104 l 1.502862,5.61186 57.395856,-19.32179 -1.502871,-5.6119 c -1.278453,-4.77392 -4.7381779,-7.79756 -7.7586828,-6.7807 l -46.4931432,15.65149 z"
       id="rect3718" />
    <path
       style="opacity:0.5;fill:#000000;stroke:#000000;stroke-width:1.71149325;stroke-linecap:butt;stroke-linejoin:miter;stroke-miterlimit:4;stroke-opacity:1;stroke-dasharray:none;display:inline"
       d="M -41.490887,574.38448 90.429982,530.69547"
       id="path4604"
       sodipodi:nodetypes="cc" />
    <path
       style="opacity:0.5;fill:url(#radialGradient4233);fill-opacity:1;stroke:none;display:inline"
       d="m 59.648854,626.808 c 7.937319,21.93745 -6.066722,53.94548 -32.471546,61.95514 -28.7565519,8.72302 -37.361222,14.56027 -43.21442,-7.88826 -11.342456,-43.50124 -9.550313,-74.20941 15.54211266,-89.02785 C 24.597432,577.02859 51.71154,604.87059 59.648854,626.808 z"
       id="path4608"
       sodipodi:nodetypes="csssc" />
    <path
       sodipodi:type="arc"
       style="fill:url(#radialGradient3746);fill-opacity:1;stroke:none;display:inline"
       id="path4259"
       sodipodi:cx="-448.50772"
       sodipodi:cy="1464.6804"
       sodipodi:rx="76.771591"
       sodipodi:ry="62.629459"
       d="m -371.73613,1464.6804 a 76.771591,62.629459 0 1 1 -153.54318,0 76.771591,62.629459 0 1 1 153.54318,0 z"
       transform="matrix(0.24483091,-0.03203167,0.00757213,0.49415025,99.225689,-170.19048)" />
  </g>
  <g
     inkscape:groupmode="layer"
     id="layer3"
     inkscape:label="Fire"
     style="display:inline"
     transform="translate(80.552545,-448.11639)">
    <path
       transform="matrix(0.30351082,-0.14863136,0.01787003,0.43660933,-27.53251,584.84238)"
       style="fill:url(#radialGradient3750);fill-opacity:1;stroke:none;display:inline;filter:url(#filter3840)"
       d="M 163.64472,222.01679 C 258.59906,127.06245 301.19481,184.42031 327.45878,65.222318 360.67184,-85.513819 529.95062,-4.1415286 605.18145,-48.167739 578.48759,41.402594 556.46092,31.408108 546.53964,57.192942 522.38106,119.97965 418.20316,153.32642 525.27933,224.03709"
       id="path3836"
       sodipodi:nodetypes="cscss" />
    <path
       style="fill:url(#radialGradient4331);fill-opacity:1;stroke:none;display:inline"
       d="M 13.433079,619.67135 C 6.0088701,552.68725 -7.3225296,546.89009 -4.2211964,526.01191 -1.1386972,505.2605 -0.12827249,486.7053 9.6985159,467.40447 c 0.2515376,30.97929 11.4897451,76.23642 20.7148691,73.82292 12.957867,-3.39007 20.070309,-68.22433 33.450678,-84.90381 -1.53238,49.82097 17.747196,78.53503 19.94128,80.31177 21.805877,18.85154 -5.998245,-38.76105 23.873617,-78.99052 -0.70755,17.04806 -5.59666,52.3248 3.16249,51.20929 13.62822,-1.73562 40.16906,-32.12462 47.03621,-42.22874 -4.12476,25.37262 -19.18524,54.19114 -18.8388,72.45426 7.02367,-0.45243 23.4894,-25.35596 36.29433,-44.14736 -12.40666,38.64478 -12.56697,48.14167 -20.42869,87.14885"
       id="path4297"
       sodipodi:nodetypes="cscscccscccc" />
    <path
       style="fill:url(#radialGradient4293);fill-opacity:1;stroke:none;display:inline;filter:url(#filter3848)"
       d="M 264.65997,234.13862 C 359.61431,139.18428 385.87827,112.92031 412.14224,-6.2776824 445.3553,-157.01382 492.95445,-107.29294 547.50268,-248.7143 c 24.24366,163.644718 0,169.705628 20.20305,240.4163076 C 587.90878,62.412688 519.21841,165.44825 626.29458,236.15892"
       id="path3784"
       sodipodi:nodetypes="cscss"
       transform="matrix(0.25251682,-0.03915972,-0.0316005,0.37226,-37.117859,592.05939)" />
    <path
       sodipodi:nodetypes="cccccscccc"
       id="path4477"
       d="M 80.481937,568.09688 C 69.504192,561.82696 40.534112,504.9344 30.43621,477.54657 33.90993,561.2398 25.728284,531.15175 7.6149474,516.53369 28.249037,547.84552 18.41181,566.18091 17.985444,567.91275 14.094122,585.95299 2.6231002,539.14165 -6.2918515,508.63934 c -2.3730235,24.82149 0.5286628,42.1899 -2.6843975,44.50281 -4.561098,3.2833 -22.243944,-21.0088 -27.909081,-26.26535 9.129521,16.67621 18.851363,28.11793 23.999766,40.87462 -5.670643,5.06151 6.2385842,-5.32344 -47.188306,4.59405 22.507395,7.59646 51.0873207,39.64959 65.7753472,64.94178"
       style="fill:url(#radialGradient4479);fill-opacity:1;stroke:none;display:inline" />
    <path
       sodipodi:nodetypes="cscss"
       id="path4256"
       d="M 264.65997,234.13862 C 359.61431,139.18428 385.87827,112.92031 412.14224,-6.2776824 445.3553,-157.01382 492.95445,-107.29294 547.50268,-248.7143 c 24.24366,163.644718 0,169.705628 20.20305,240.4163076 C 587.90878,62.412688 519.21841,165.44825 626.29458,236.15892"
       style="opacity:0.5;fill:url(#radialGradient3748);fill-opacity:1;stroke:none;display:inline;filter:url(#filter3848)"
       transform="matrix(0.17617686,-0.0161541,-0.060574,0.29959364,32.777109,568.77973)" />
    <path
       transform="matrix(-0.35818352,0.12793429,0.02437727,0.48200197,214.83142,438.14498)"
       sodipodi:nodetypes="cccccccccc"
       id="path4425"
       d="m 322.24015,187.05803 c 18.64324,-23.72564 -3.83582,-174.216106 -1.7869,-234.803892 52.00218,105.40727 95.3122,111.707325 126.94486,144.003121 10.78029,-33.539922 -28.29794,-117.686984 0.36896,-183.667119 17.27836,69.453513 43.23082,88.8224276 53.40671,61.668429 5.20135,40.645148 -1.47567,64.142991 7.51374,93.181087 19.47195,-41.384968 23.5891,-62.0616458 24.24535,-93.880405 12.88173,34.9726749 -3.77237,91.792283 2.50494,114.558386 19.40593,3.23231 41.09256,-35.496946 41.42928,-35.833664 -1.76716,62.309257 -60.33088,74.210737 -54.73986,136.797567"
       style="opacity:0.82916667;fill:#e43500;fill-opacity:0.54807691;stroke:none;display:inline;filter:url(#filter4576)" />
    <path
       sodipodi:nodetypes="cscss"
       id="path3832"
       d="m 163.64472,222.01679 c 94.95434,-94.95434 88.32012,-156.201619 114.58409,-275.399612 33.21306,-150.736138 19.81049,-100.075058 51.46161,-249.715848 36.22573,100.27853 104.08789,145.6433 124.29094,216.353979 20.20305,70.710679 -35.7782,240.071111 71.29797,310.781781"
       style="opacity:0.5;fill:url(#radialGradient3752);fill-opacity:1;stroke:none;display:inline;filter:url(#filter3844)"
       transform="matrix(0.1583307,-0.15107452,0.07267053,0.21600472,-12.937655,618.69204)" />
  </g>
  <g
     inkscape:groupmode="layer"
     id="layer2"
     inkscape:label="TitlePage"
     style="display:inline"
     transform="translate(80.552545,-448.11639)"
     sodipodi:insensitive="true">
    <path
       style="fill:url(#radialGradient3710);fill-opacity:1;stroke:#000000;stroke-width:3.1699636;stroke-linejoin:round;stroke-miterlimit:4;stroke-opacity:0.92990657;stroke-dasharray:none"
       d="M 149.96422,540.33133 35.111223,578.58858 c -5.803623,1.93338 -12.398733,10.02865 -14.780808,18.1442 l -26.5807091,90.54856 c -2.3820818,8.11554 0.3748133,13.09574 6.17844287,11.16236 L 124.68315,656.89038 c 5.80363,-1.93337 12.39874,-10.02865 14.78082,-18.14418 l 26.27126,-89.51436 -2.60959,2.51863 -4.53842,-7.94216 -18.17431,2.74578 9.55131,-6.22276 z"
       id="path2923" />
    <path
       style="opacity:0.5;fill:url(#radialGradient3950);fill-opacity:1;stroke:none;display:inline"
       d="m 152.06858,559.27182 c -40.96095,13.32972 -81.63458,24.34679 -122.683085,38.44069 -5.529053,3.33303 -10.436465,16.74834 -13.251139,28.4224 -1.331831,4.76576 -2.783662,9.44344 -4.192061,14.1543 47.041477,-42.16857 93.283175,-58.25047 133.995755,-50.54681 1.50087,-6.5254 4.00525,-12.59731 5.74397,-19.0503 0.94052,-3.52845 2.35476,-8.03056 2.45269,-11.31831 -0.51866,-0.69843 -1.3406,-0.34449 -2.06613,-0.10197 z"
       id="path2923-8" />
    <path
       style="opacity:0.67886179;fill:url(#radialGradient4411);fill-opacity:1;stroke:none"
       d="m 156.55268,547.498 c -40.63739,13.67931 -81.302608,26.55493 -121.930995,40.98355 -5.671828,4.12532 -8.144188,12.24617 -9.618817,18.90558 -7.944464,27.28589 -16.4062544,54.55743 -23.6645102,81.84277 0.3987909,2.12229 2.7646488,0.92596 4.2331792,0.24459 39.631953,-13.23897 79.262802,-26.06731 118.905273,-39.83961 5.41897,-3.19319 8.30704,-10.71714 9.71051,-16.92357 7.85514,-27.81807 16.67666,-55.59494 24.10162,-83.41931 0.22934,-1.38913 -0.36347,-2.70904 -1.73626,-1.794 z"
       id="path4375" />
    <g
       id="g4592"
       transform="matrix(0.42878886,-0.10080791,0.02034073,0.49664379,-101.65308,399.93982)">
      <rect
         transform="matrix(0.99299646,-0.11814415,-0.34821138,0.93741604,0,0)"
         ry="5.0756483"
         y="568.55859"
         x="497.68896"
         height="142.11803"
         width="71.56926"
         id="rect3733"
         style="opacity:0.71951222;fill:#e8e8e8;fill-opacity:1;stroke:#797979;stroke-width:1.22610521;stroke-opacity:0.46354167" />
      <path
         sodipodi:nodetypes="cc"
         id="path3735"
         d="m 314.59357,488.63435 c 0,0 -21.99101,65.73465 -33.00268,97.39672"
         style="fill:#ffffff;fill-opacity:1;stroke:#797979;stroke-width:2;stroke-linecap:butt;stroke-linejoin:miter;stroke-miterlimit:4;stroke-opacity:0.46354167;stroke-dasharray:none" />
      <path
         sodipodi:nodetypes="cc"
         id="path3735-7"
         d="m 330.81837,487.36447 c 0,0 -21.99101,65.73465 -33.00268,97.39672"
         style="fill:#ffffff;fill-opacity:1;stroke:#797979;stroke-width:2;stroke-linecap:butt;stroke-linejoin:miter;stroke-miterlimit:4;stroke-opacity:0.46354167;stroke-dasharray:none" />
    </g>
    <path
       style="fill:#000000;fill-opacity:1;stroke:none;display:inline;filter:url(#filter3759)"
       d="m 624.92969,343.93126 c -18.61725,3.33543 -26.8141,1.88231 -45.45452,5.39763 -61.98021,8.72371 -123.90858,17.8413 -185.69392,27.85861 15.28101,8.3742 33.41437,5.47634 50.08658,7.70045 9.52973,1.32486 20.81159,0.92481 28.35092,7.6433 2.61272,3.57271 -0.77456,7.94826 -1.15625,11.71875 13.60221,-15.4718 34.7289,-18.6844 53.875,-22.46875 2.67379,-0.42358 6.45706,-1.83318 8.46875,-1.96875 -3.01673,10.62073 3.58017,21.61701 -1.50929,31.96942 -0.97395,3.44489 6.0654,-0.8199 8.63429,-1.46942 14.58677,-5.77475 23.49388,-19.44577 30,-32.96875 0.99808,-2.27534 2.3306,-3.44989 3.53125,-0.4375 5.17273,5.46475 13.60247,12.50558 9.5625,20.9375 -0.74668,2.97809 -8.48776,10.45145 -2.66615,7.5075 10.80458,-5.57155 22.96619,-6.49738 34.9474,-5.695 7.5536,-0.0735 14.83361,-2.54748 21.25,-6.375 -1.03556,12.74809 4.65648,26.85094 15.71875,33.53125 3.55306,1.76876 10.02506,3.59244 9.99912,-2.49583 5.63944,-16.5974 11.34418,-33.17273 16.93838,-49.78542 -5.31343,4.61201 -10.16985,7.16563 -12.57435,-1.35235 -3.52378,-4.48002 -5.66673,-11.36914 -9.98774,-14.45746 -15.05219,-0.31486 -30.10445,-0.62655 -45.15666,-0.94019 6.8927,-1.88046 36.94895,-17.30589 12.83594,-13.84999 z"
       id="path4435"
       transform="matrix(0.33006697,-0.05819948,0,0.39681889,-58.308045,438.91261)"
       sodipodi:nodetypes="ccccccccccccccccccccccc" />
    <text
       xml:space="preserve"
       style="font-size:28.19090271px;font-style:normal;font-variant:normal;font-weight:bold;font-stretch:normal;text-align:start;line-height:125%;writing-mode:lr-tb;text-anchor:start;fill:#efa551;fill-opacity:1;stroke:none;font-family:Arial;-inkscape-font-specification:Arial Bold"
       x="699.85077"
       y="-182.26657"
       id="text4597"
       transform="matrix(-0.24123342,0.94456111,-1.1284404,0.2731003,0,0)"
       sodipodi:linespacing="125%"><tspan
         sodipodi:role="line"
         id="tspan4599"
         x="699.85077"
         y="-182.26657">HOT</tspan></text>
    <g
       id="g4207"
       transform="matrix(0.15528454,-0.02214572,-0.02762015,0.23334621,34.853562,524.52607)"
       style="opacity:0.3;filter:url(#filter4224)">
      <g
         id="g4202">
        <g
           inkscape:label="Ebene 1"
           id="g4196"
           transform="matrix(-0.17554014,0.66426367,-0.87320565,0.11306795,1022.1796,158.13898)"
           style="fill:none;stroke:#ffffff;stroke-opacity:1;display:inline">
          <g
             id="g4198"
             clip-path="url(#clp1)"
             transform="translate(87.4955,149.55288)"
             style="fill:none;stroke:#ffffff;stroke-opacity:1">
            <path
               id="path4200"
               d="m 168.99984,274.74264 c 0,0 -5.08361,-0.16132 -10.46875,2.53125 -5.38514,2.69257 -11.53125,10.13542 -11.53125,19.46875 l 0,184.9375 c 0,0 -0.13007,5.08361 2.5625,10.46875 2.69257,5.38514 10.10417,11.53125 19.4375,11.53125 l 177.53125,0 c 0,0 5.08361,0.13007 10.46875,-2.5625 5.38514,-2.69257 11.53125,-10.10417 11.53125,-19.4375 l 0,-184.9375 c 0,0 0.13007,-5.08361 -2.5625,-10.46875 -2.69257,-5.38514 -10.10417,-11.53125 -19.4375,-11.53125 l -177.53125,0 z m 0,20 177.53125,0 c 2.66667,0 1.25507,-0.14611 1.5625,0.46875 0.30743,0.61486 0.4375,1.53125 0.4375,1.53125 l 0,82.8125 -19,0 c -4.61622,-36.52407 -34.89255,-65.1875 -71.75,-65.1875 -20.03275,0 -38.26434,8.49066 -51.3125,22.0625 l 14.40625,13.875 c 9.52584,-9.90816 22.495,-15.9375 36.90625,-15.9375 28.82328,0 52.375,24.24179 52.375,54.875 0,30.63321 -23.55172,54.875 -52.375,54.875 -14.41242,0 -27.38045,-6.02854 -36.90625,-15.9375 l -14.40625,13.875 c 13.0482,13.57304 31.27892,22.0625 51.3125,22.0625 36.65783,0 66.82022,-28.32175 71.6875,-64.5625 l 19.0625,0 0,82.125 c 0,2.66667 0.14611,1.25507 -0.46875,1.5625 -0.61486,0.30743 -1.53125,0.4375 -1.53125,0.4375 l -177.53125,0 c -2.66667,0 -1.25507,0.14611 -1.5625,-0.46875 -0.30743,-0.61486 -0.4375,-1.53125 -0.4375,-1.53125 l 0,-79.28125 58.3125,0 c 5.10355,13.25814 17.61783,22.875 32.4375,22.875 19.41902,0 34.90625,-16.52555 34.90625,-36.09375 0,-19.5682 -15.48723,-36.0625 -34.90625,-36.0625 -17.12141,0 -31.16142,12.83519 -34.25,29.28125 l -56.5,0 0,-85.65625 c 0,-2.66667 -0.14611,-1.25507 0.46875,-1.5625 0.61486,-0.30743 1.53125,-0.4375 1.53125,-0.4375 z m 88.75,78.375 c 8.10298,0 14.90625,6.8187 14.90625,16.0625 0,9.2438 -6.80327,16.09375 -14.90625,16.09375 -8.10254,0 -14.90625,-6.84859 -14.90625,-16.09375 0,-9.24562 6.80327,-16.0625 14.90625,-16.0625 z"
               style="font-size:medium;font-style:normal;font-variant:normal;font-weight:normal;font-stretch:normal;text-indent:0;text-align:start;text-decoration:none;line-height:normal;letter-spacing:normal;word-spacing:normal;text-transform:none;direction:ltr;block-progression:tb;writing-mode:lr-tb;text-anchor:start;color:#000000;fill:none;stroke:#ffffff;stroke-width:1.33607864;stroke-miterlimit:4;stroke-opacity:1;stroke-dasharray:none;marker:none;visibility:visible;display:inline;overflow:visible;enable-background:accumulate;font-family:Bitstream Vera Sans;-inkscape-font-specification:Bitstream Vera Sans" />
          </g>
        </g>
      </g>
      <g
         inkscape:label="Ebene 1"
         id="layer1-4"
         transform="matrix(-0.17554014,0.66426367,-0.87320565,0.11306795,1020.0367,155.99612)"
         style="display:inline">
        <g
           id="g3293"
           clip-path="url(#clp1)"
           transform="translate(87.4955,149.55288)"
           style="fill:none">
          <path
             id="path3301"
             d="m 168.99984,274.74264 c 0,0 -5.08361,-0.16132 -10.46875,2.53125 -5.38514,2.69257 -11.53125,10.13542 -11.53125,19.46875 l 0,184.9375 c 0,0 -0.13007,5.08361 2.5625,10.46875 2.69257,5.38514 10.10417,11.53125 19.4375,11.53125 l 177.53125,0 c 0,0 5.08361,0.13007 10.46875,-2.5625 5.38514,-2.69257 11.53125,-10.10417 11.53125,-19.4375 l 0,-184.9375 c 0,0 0.13007,-5.08361 -2.5625,-10.46875 -2.69257,-5.38514 -10.10417,-11.53125 -19.4375,-11.53125 l -177.53125,0 z m 0,20 177.53125,0 c 2.66667,0 1.25507,-0.14611 1.5625,0.46875 0.30743,0.61486 0.4375,1.53125 0.4375,1.53125 l 0,82.8125 -19,0 c -4.61622,-36.52407 -34.89255,-65.1875 -71.75,-65.1875 -20.03275,0 -38.26434,8.49066 -51.3125,22.0625 l 14.40625,13.875 c 9.52584,-9.90816 22.495,-15.9375 36.90625,-15.9375 28.82328,0 52.375,24.24179 52.375,54.875 0,30.63321 -23.55172,54.875 -52.375,54.875 -14.41242,0 -27.38045,-6.02854 -36.90625,-15.9375 l -14.40625,13.875 c 13.0482,13.57304 31.27892,22.0625 51.3125,22.0625 36.65783,0 66.82022,-28.32175 71.6875,-64.5625 l 19.0625,0 0,82.125 c 0,2.66667 0.14611,1.25507 -0.46875,1.5625 -0.61486,0.30743 -1.53125,0.4375 -1.53125,0.4375 l -177.53125,0 c -2.66667,0 -1.25507,0.14611 -1.5625,-0.46875 -0.30743,-0.61486 -0.4375,-1.53125 -0.4375,-1.53125 l 0,-79.28125 58.3125,0 c 5.10355,13.25814 17.61783,22.875 32.4375,22.875 19.41902,0 34.90625,-16.52555 34.90625,-36.09375 0,-19.5682 -15.48723,-36.0625 -34.90625,-36.0625 -17.12141,0 -31.16142,12.83519 -34.25,29.28125 l -56.5,0 0,-85.65625 c 0,-2.66667 -0.14611,-1.25507 0.46875,-1.5625 0.61486,-0.30743 1.53125,-0.4375 1.53125,-0.4375 z m 88.75,78.375 c 8.10298,0 14.90625,6.8187 14.90625,16.0625 0,9.2438 -6.80327,16.09375 -14.90625,16.09375 -8.10254,0 -14.90625,-6.84859 -14.90625,-16.09375 0,-9.24562 6.80327,-16.0625 14.90625,-16.0625 z"
             style="font-size:medium;font-style:normal;font-variant:normal;font-weight:normal;font-stretch:normal;text-indent:0;text-align:start;text-decoration:none;line-height:normal;letter-spacing:normal;word-spacing:normal;text-transform:none;direction:ltr;block-progression:tb;writing-mode:lr-tb;text-anchor:start;color:#000000;fill:none;stroke:#000000;stroke-width:1.33607864;stroke-miterlimit:4;stroke-opacity:1;stroke-dasharray:none;marker:none;visibility:visible;display:inline;overflow:visible;enable-background:accumulate;font-family:Bitstream Vera Sans;-inkscape-font-specification:Bitstream Vera Sans" />
        </g>
      </g>
    </g>
  </g>
</svg>
